<?xml version='1.0' encoding='us-ascii'?>
<svg height="191.30mm" viewBox="0.0 0.0 620.58 191.30" width="620.58mm" xmlns="http://www.w3.org/2000/svg" xmlns:cc="http://creativecommons.org/ns#" xmlns:dc="http://purl.org/dc/elements/1.1/" xmlns:inkscape="http://www.inkscape.org/namespaces/inkscape" xmlns:rdf="http://www.w3.org/1999/02/22-rdf-syntax-ns#" xmlns:svg="http://www.w3.org/2000/svg" xmlns:xlink="http://www.w3.org/1999/xlink">
<!--
Console - Console with slanted panel

Created with Boxes.py (https://festi.info/boxes.py)
Creation date: 2021-02-22 13:35:55
Command line (remove spaces between dashes): boxes Console - -FingerJoint_angle=90.0 - -FingerJoint_style=rectangular - -FingerJoint_surroundingspaces=0.5 - -FingerJoint_edge_width=1.0 - -FingerJoint_finger=2.0 - -FingerJoint_play=0.0 - -FingerJoint_space=2.0 - -FingerJoint_width=1.0 - -Stackable_angle=60 - -Stackable_height=2.0 - -Stackable_holedistance=1.0 - -Stackable_width=4.0 - -x=152 - -y=92 - -h=100 - -outside=0 - -front_height=30 - -angle=50 - -thickness=4.0 - -format=svg - -tabs=0.0 - -debug=0 - -reference=100 - -burn=0.1
Url: http://www.festi.info/Console?FingerJoint_angle=90.0&FingerJoint_style=rectangular&FingerJoint_surroundingspaces=0.5&FingerJoint_edge_width=1.0&FingerJoint_finger=2.0&FingerJoint_play=0.0&FingerJoint_space=2.0&FingerJoint_width=1.0&Stackable_angle=60&Stackable_height=2.0&Stackable_holedistance=1.0&Stackable_width=4.0&x=152&y=92&h=100&outside=0&front_height=30&angle=50&thickness=4.0&format=svg&tabs=0.0&debug=0&reference=100&burn=0.1&render=1
SettingsUrl: http://www.festi.info/Console?FingerJoint_angle=90.0&FingerJoint_style=rectangular&FingerJoint_surroundingspaces=0.5&FingerJoint_edge_width=1.0&FingerJoint_finger=2.0&FingerJoint_play=0.0&FingerJoint_space=2.0&FingerJoint_width=1.0&Stackable_angle=60&Stackable_height=2.0&Stackable_holedistance=1.0&Stackable_width=4.0&x=152&y=92&h=100&outside=0&front_height=30&angle=50&thickness=4.0&format=svg&tabs=0.0&debug=0&reference=100&burn=0.1
-->
<title>Console</title>
<metadata>
<rdf:RDF><cc:Work>
<dc:title>Box - Console</dc:title>
<dc:date>2021-02-22 13:35:55</dc:date>
<dc:source>http://www.festi.info/Console?FingerJoint_angle=90.0&amp;FingerJoint_style=rectangular&amp;FingerJoint_surroundingspaces=0.5&amp;FingerJoint_edge_width=1.0&amp;FingerJoint_finger=2.0&amp;FingerJoint_play=0.0&amp;FingerJoint_space=2.0&amp;FingerJoint_width=1.0&amp;Stackable_angle=60&amp;Stackable_height=2.0&amp;Stackable_holedistance=1.0&amp;Stackable_width=4.0&amp;x=152&amp;y=92&amp;h=100&amp;outside=0&amp;front_height=30&amp;angle=50&amp;thickness=4.0&amp;format=svg&amp;tabs=0.0&amp;debug=0&amp;reference=100&amp;burn=0.1&amp;render=1</dc:source>
<dc:description>Console with slanted panel

Created with Boxes.py (https://festi.info/boxes.py)
Command line: boxes Console --FingerJoint_angle=90.0 --FingerJoint_style=rectangular --FingerJoint_surroundingspaces=0.5 --FingerJoint_edge_width=1.0 --FingerJoint_finger=2.0 --FingerJoint_play=0.0 --FingerJoint_space=2.0 --FingerJoint_width=1.0 --Stackable_angle=60 --Stackable_height=2.0 --Stackable_holedistance=1.0 --Stackable_width=4.0 --x=152 --y=92 --h=100 --outside=0 --front_height=30 --angle=50 --thickness=4.0 --format=svg --tabs=0.0 --debug=0 --reference=100 --burn=0.1
Url: http://www.festi.info/Console?FingerJoint_angle=90.0&amp;FingerJoint_style=rectangular&amp;FingerJoint_surroundingspaces=0.5&amp;FingerJoint_edge_width=1.0&amp;FingerJoint_finger=2.0&amp;FingerJoint_play=0.0&amp;FingerJoint_space=2.0&amp;FingerJoint_width=1.0&amp;Stackable_angle=60&amp;Stackable_height=2.0&amp;Stackable_holedistance=1.0&amp;Stackable_width=4.0&amp;x=152&amp;y=92&amp;h=100&amp;outside=0&amp;front_height=30&amp;angle=50&amp;thickness=4.0&amp;format=svg&amp;tabs=0.0&amp;debug=0&amp;reference=100&amp;burn=0.1&amp;render=1
SettingsUrl: http://www.festi.info/Console?FingerJoint_angle=90.0&amp;FingerJoint_style=rectangular&amp;FingerJoint_surroundingspaces=0.5&amp;FingerJoint_edge_width=1.0&amp;FingerJoint_finger=2.0&amp;FingerJoint_play=0.0&amp;FingerJoint_space=2.0&amp;FingerJoint_width=1.0&amp;Stackable_angle=60&amp;Stackable_height=2.0&amp;Stackable_holedistance=1.0&amp;Stackable_width=4.0&amp;x=152&amp;y=92&amp;h=100&amp;outside=0&amp;front_height=30&amp;angle=50&amp;thickness=4.0&amp;format=svg&amp;tabs=0.0&amp;debug=0&amp;reference=100&amp;burn=0.1
</dc:description>
</cc:Work></rdf:RDF></metadata>
<g id="p-0" style="fill:none;stroke-linecap:round;stroke-linejoin:round;">
  <path d="M 10.100 181.300 H 110.100 V 171.300 H 10.100 V 181.300 Z" stroke="rgb(0,0,0)" stroke-width="0.20" />
  <text alignment-baseline="hanging" font-size="10px" style="font-family: sans-serif ; font-weight: normal; font-style: normal; fill: rgb(0,0,0)" text-anchor="middle" transform="matrix( 1.000 0.000 0.000 1.000 60.100 171.300 )">100mm</text>
</g>
<g id="p-1" style="fill:none;stroke-linecap:round;stroke-linejoin:round;">
  <path d="M 14.100 165.100 H 16.000 C 16.100 165.100 16.000 165.000 16.000 165.100 V 169.000 C 16.000 169.055 16.045 169.100 16.100 169.100 H 24.100 C 24.155 169.100 24.200 169.055 24.200 169.000 V 165.100 C 24.200 165.000 24.100 165.100 24.200 165.100 H 32.000 C 32.100 165.100 32.000 165.000 32.000 165.100 V 169.000 C 32.000 169.055 32.045 169.100 32.100 169.100 H 40.100 C 40.155 169.100 40.200 169.055 40.200 169.000 V 165.100 C 40.200 165.000 40.100 165.100 40.200 165.100 H 48.000 C 48.100 165.100 48.000 165.000 48.000 165.100 V 169.000 C 48.000 169.055 48.045 169.100 48.100 169.100 H 56.100 C 56.155 169.100 56.200 169.055 56.200 169.000 V 165.100 C 56.200 165.000 56.100 165.100 56.200 165.100 H 64.000 C 64.100 165.100 64.000 165.000 64.000 165.100 V 169.000 C 64.000 169.055 64.045 169.100 64.100 169.100 H 72.100 C 72.155 169.100 72.200 169.055 72.200 169.000 V 165.100 C 72.200 165.000 72.100 165.100 72.200 165.100 H 80.000 C 80.100 165.100 80.000 165.000 80.000 165.100 V 169.000 C 80.000 169.055 80.045 169.100 80.100 169.100 H 88.100 C 88.155 169.100 88.200 169.055 88.200 169.000 V 165.100 C 88.200 165.000 88.100 165.100 88.200 165.100 H 96.000 C 96.100 165.100 96.000 165.000 96.000 165.100 V 169.000 C 96.000 169.055 96.045 169.100 96.100 169.100 H 104.100 C 104.155 169.100 104.200 169.055 104.200 169.000 V 165.100 C 104.200 165.000 104.100 165.100 104.200 165.100 H 106.100 C 106.155 165.100 106.200 165.055 106.200 165.000 V 162.100 C 106.200 162.000 106.100 162.100 106.200 162.100 H 110.100 C 110.155 162.100 110.200 162.055 110.200 162.000 V 154.000 C 110.200 153.945 110.155 153.900 110.100 153.900 H 106.200 C 106.100 153.900 106.200 154.000 106.200 153.900 V 146.100 C 106.200 146.000 106.100 146.100 106.200 146.100 H 110.100 C 110.155 146.100 110.200 146.055 110.200 146.000 V 138.000 C 110.200 137.945 110.155 137.900 110.100 137.900 H 106.200 C 106.100 137.900 106.200 138.000 106.200 137.900 V 135.000 C 106.200 134.976 106.192 134.954 106.177 134.936 L 100.013 127.590 C 99.948 127.513 99.936 127.654 100.013 127.590 L 103.000 125.083 C 103.043 125.048 103.048 124.984 103.013 124.942 L 97.870 118.814 C 97.835 118.772 97.772 118.766 97.729 118.801 L 94.742 121.308 C 94.665 121.373 94.806 121.385 94.742 121.308 L 89.728 115.333 C 89.664 115.257 89.652 115.397 89.728 115.333 L 92.716 112.826 C 92.758 112.791 92.764 112.728 92.728 112.685 L 87.586 106.557 C 87.550 106.515 87.487 106.509 87.445 106.545 L 84.457 109.052 C 84.381 109.116 84.522 109.128 84.457 109.052 L 79.444 103.077 C 79.379 103.000 79.367 103.141 79.444 103.077 L 82.431 100.570 C 82.473 100.534 82.479 100.471 82.443 100.429 L 77.301 94.300 C 77.266 94.258 77.203 94.253 77.160 94.288 L 74.173 96.795 C 74.096 96.859 74.237 96.872 74.173 96.795 L 69.159 90.820 C 69.095 90.743 69.082 90.884 69.159 90.820 L 72.147 88.313 C 72.189 88.277 72.194 88.214 72.159 88.172 L 67.017 82.044 C 66.981 82.001 66.918 81.996 66.876 82.031 L 63.888 84.538 C 63.811 84.603 63.952 84.615 63.888 84.538 L 58.874 78.563 C 58.810 78.486 58.798 78.627 58.874 78.563 L 61.862 76.056 C 61.904 76.021 61.910 75.958 61.874 75.915 L 56.732 69.787 C 56.696 69.745 56.633 69.739 56.591 69.775 L 53.603 72.282 C 53.527 72.346 53.668 72.358 53.603 72.282 L 47.440 64.936 C 47.421 64.913 47.393 64.900 47.363 64.900 H 42.832 C 42.732 64.900 42.832 65.000 42.832 64.900 V 61.000 C 42.832 60.945 42.787 60.900 42.732 60.900 H 34.732 C 34.676 60.900 34.632 60.945 34.632 61.000 V 64.900 C 34.632 65.000 34.732 64.900 34.632 64.900 H 26.832 C 26.732 64.900 26.832 65.000 26.832 64.900 V 61.000 C 26.832 60.945 26.787 60.900 26.732 60.900 H 18.732 C 18.676 60.900 18.632 60.945 18.632 61.000 V 64.900 C 18.632 65.000 18.732 64.900 18.632 64.900 H 14.100 C 14.045 64.900 14.000 64.945 14.000 65.000 V 70.900 C 14.000 71.000 14.100 70.900 14.000 70.900 H 10.100 C 10.045 70.900 10.000 70.945 10.000 71.000 V 79.000 C 10.000 79.055 10.045 79.100 10.100 79.100 H 14.000 C 14.100 79.100 14.000 79.000 14.000 79.100 V 86.900 C 14.000 87.000 14.100 86.900 14.000 86.900 H 10.100 C 10.045 86.900 10.000 86.945 10.000 87.000 V 95.000 C 10.000 95.055 10.045 95.100 10.100 95.100 H 14.000 C 14.100 95.100 14.000 95.000 14.000 95.100 V 102.900 C 14.000 103.000 14.100 102.900 14.000 102.900 H 10.100 C 10.045 102.900 10.000 102.945 10.000 103.000 V 111.000 C 10.000 111.055 10.045 111.100 10.100 111.100 H 14.000 C 14.100 111.100 14.000 111.000 14.000 111.100 V 118.900 C 14.000 119.000 14.100 118.900 14.000 118.900 H 10.100 C 10.045 118.900 10.000 118.945 10.000 119.000 V 127.000 C 10.000 127.055 10.045 127.100 10.100 127.100 H 14.000 C 14.100 127.100 14.000 127.000 14.000 127.100 V 134.900 C 14.000 135.000 14.100 134.900 14.000 134.900 H 10.100 C 10.045 134.900 10.000 134.945 10.000 135.000 V 143.000 C 10.000 143.055 10.045 143.100 10.100 143.100 H 14.000 C 14.100 143.100 14.000 143.000 14.000 143.100 V 150.900 C 14.000 151.000 14.100 150.900 14.000 150.900 H 10.100 C 10.045 150.900 10.000 150.945 10.000 151.000 V 159.000 C 10.000 159.055 10.045 159.100 10.100 159.100 H 14.000 C 14.100 159.100 14.000 159.000 14.000 159.100 V 165.000 C 14.000 165.055 14.045 165.100 14.100 165.100 Z" stroke="rgb(0,0,0)" stroke-width="0.20" />
</g>
<g id="p-2" style="fill:none;stroke-linecap:round;stroke-linejoin:round;">
  <path d="M 116.300 165.100 H 118.200 C 118.300 165.100 118.200 165.000 118.200 165.100 V 169.000 C 118.200 169.055 118.245 169.100 118.300 169.100 H 126.300 C 126.355 169.100 126.400 169.055 126.400 169.000 V 165.100 C 126.400 165.000 126.300 165.100 126.400 165.100 H 134.200 C 134.300 165.100 134.200 165.000 134.200 165.100 V 169.000 C 134.200 169.055 134.245 169.100 134.300 169.100 H 142.300 C 142.355 169.100 142.400 169.055 142.400 169.000 V 165.100 C 142.400 165.000 142.300 165.100 142.400 165.100 H 150.200 C 150.300 165.100 150.200 165.000 150.200 165.100 V 169.000 C 150.200 169.055 150.245 169.100 150.300 169.100 H 158.300 C 158.355 169.100 158.400 169.055 158.400 169.000 V 165.100 C 158.400 165.000 158.300 165.100 158.400 165.100 H 166.200 C 166.300 165.100 166.200 165.000 166.200 165.100 V 169.000 C 166.200 169.055 166.245 169.100 166.300 169.100 H 174.300 C 174.355 169.100 174.400 169.055 174.400 169.000 V 165.100 C 174.400 165.000 174.300 165.100 174.400 165.100 H 182.200 C 182.300 165.100 182.200 165.000 182.200 165.100 V 169.000 C 182.200 169.055 182.245 169.100 182.300 169.100 H 190.300 C 190.355 169.100 190.400 169.055 190.400 169.000 V 165.100 C 190.400 165.000 190.300 165.100 190.400 165.100 H 198.200 C 198.300 165.100 198.200 165.000 198.200 165.100 V 169.000 C 198.200 169.055 198.245 169.100 198.300 169.100 H 206.300 C 206.355 169.100 206.400 169.055 206.400 169.000 V 165.100 C 206.400 165.000 206.300 165.100 206.400 165.100 H 208.300 C 208.355 165.100 208.400 165.055 208.400 165.000 V 162.100 C 208.400 162.000 208.300 162.100 208.400 162.100 H 212.300 C 212.355 162.100 212.400 162.055 212.400 162.000 V 154.000 C 212.400 153.945 212.355 153.900 212.300 153.900 H 208.400 C 208.300 153.900 208.400 154.000 208.400 153.900 V 146.100 C 208.400 146.000 208.300 146.100 208.400 146.100 H 212.300 C 212.355 146.100 212.400 146.055 212.400 146.000 V 138.000 C 212.400 137.945 212.355 137.900 212.300 137.900 H 208.400 C 208.300 137.900 208.400 138.000 208.400 137.900 V 135.000 C 208.400 134.976 208.392 134.954 208.377 134.936 L 202.213 127.590 C 202.148 127.513 202.136 127.654 202.213 127.590 L 205.200 125.083 C 205.243 125.048 205.248 124.984 205.213 124.942 L 200.070 118.814 C 200.035 118.772 199.972 118.766 199.929 118.801 L 196.942 121.308 C 196.865 121.373 197.006 121.385 196.942 121.308 L 191.928 115.333 C 191.864 115.257 191.852 115.397 191.928 115.333 L 194.916 112.826 C 194.958 112.791 194.964 112.728 194.928 112.685 L 189.786 106.557 C 189.750 106.515 189.687 106.509 189.645 106.545 L 186.657 109.052 C 186.581 109.116 186.722 109.128 186.657 109.052 L 181.644 103.077 C 181.579 103.000 181.567 103.141 181.644 103.077 L 184.631 100.570 C 184.673 100.534 184.679 100.471 184.643 100.429 L 179.501 94.300 C 179.466 94.258 179.403 94.253 179.360 94.288 L 176.373 96.795 C 176.296 96.859 176.437 96.872 176.373 96.795 L 171.359 90.820 C 171.295 90.743 171.282 90.884 171.359 90.820 L 174.347 88.313 C 174.389 88.277 174.394 88.214 174.359 88.172 L 169.217 82.044 C 169.181 82.001 169.118 81.996 169.076 82.031 L 166.088 84.538 C 166.011 84.603 166.152 84.615 166.088 84.538 L 161.074 78.563 C 161.010 78.486 160.998 78.627 161.074 78.563 L 164.062 76.056 C 164.104 76.021 164.110 75.958 164.074 75.915 L 158.932 69.787 C 158.896 69.745 158.833 69.739 158.791 69.775 L 155.803 72.282 C 155.727 72.346 155.868 72.358 155.803 72.282 L 149.640 64.936 C 149.621 64.913 149.593 64.900 149.563 64.900 H 145.032 C 144.932 64.900 145.032 65.000 145.032 64.900 V 61.000 C 145.032 60.945 144.987 60.900 144.932 60.900 H 136.932 C 136.876 60.900 136.832 60.945 136.832 61.000 V 64.900 C 136.832 65.000 136.932 64.900 136.832 64.900 H 129.032 C 128.932 64.900 129.032 65.000 129.032 64.900 V 61.000 C 129.032 60.945 128.987 60.900 128.932 60.900 H 120.932 C 120.876 60.900 120.832 60.945 120.832 61.000 V 64.900 C 120.832 65.000 120.932 64.900 120.832 64.900 H 116.300 C 116.245 64.900 116.200 64.945 116.200 65.000 V 70.900 C 116.200 71.000 116.300 70.900 116.200 70.900 H 112.300 C 112.245 70.900 112.200 70.945 112.200 71.000 V 79.000 C 112.200 79.055 112.245 79.100 112.300 79.100 H 116.200 C 116.300 79.100 116.200 79.000 116.200 79.100 V 86.900 C 116.200 87.000 116.300 86.900 116.200 86.900 H 112.300 C 112.245 86.900 112.200 86.945 112.200 87.000 V 95.000 C 112.200 95.055 112.245 95.100 112.300 95.100 H 116.200 C 116.300 95.100 116.200 95.000 116.200 95.100 V 102.900 C 116.200 103.000 116.300 102.900 116.200 102.900 H 112.300 C 112.245 102.900 112.200 102.945 112.200 103.000 V 111.000 C 112.200 111.055 112.245 111.100 112.300 111.100 H 116.200 C 116.300 111.100 116.200 111.000 116.200 111.100 V 118.900 C 116.200 119.000 116.300 118.900 116.200 118.900 H 112.300 C 112.245 118.900 112.200 118.945 112.200 119.000 V 127.000 C 112.200 127.055 112.245 127.100 112.300 127.100 H 116.200 C 116.300 127.100 116.200 127.000 116.200 127.100 V 134.900 C 116.200 135.000 116.300 134.900 116.200 134.900 H 112.300 C 112.245 134.900 112.200 134.945 112.200 135.000 V 143.000 C 112.200 143.055 112.245 143.100 112.300 143.100 H 116.200 C 116.300 143.100 116.200 143.000 116.200 143.100 V 150.900 C 116.200 151.000 116.300 150.900 116.200 150.900 H 112.300 C 112.245 150.900 112.200 150.945 112.200 151.000 V 159.000 C 112.200 159.055 112.245 159.100 112.300 159.100 H 116.200 C 116.300 159.100 116.200 159.000 116.200 159.100 V 165.000 C 116.200 165.055 116.245 165.100 116.300 165.100 Z" stroke="rgb(0,0,0)" stroke-width="0.20" />
</g>
<g id="p-3" style="fill:none;stroke-linecap:round;stroke-linejoin:round;">
  <path d="M 219.600 170.200 H 221.600 C 221.655 170.200 221.700 170.155 221.700 170.100 V 166.200 C 221.700 166.100 221.600 166.200 221.700 166.200 H 229.500 C 229.600 166.200 229.500 166.100 229.500 166.200 V 170.100 C 229.500 170.155 229.545 170.200 229.600 170.200 H 237.600 C 237.655 170.200 237.700 170.155 237.700 170.100 V 166.200 C 237.700 166.100 237.600 166.200 237.700 166.200 H 245.500 C 245.600 166.200 245.500 166.100 245.500 166.200 V 170.100 C 245.500 170.155 245.545 170.200 245.600 170.200 H 253.600 C 253.655 170.200 253.700 170.155 253.700 170.100 V 166.200 C 253.700 166.100 253.600 166.200 253.700 166.200 H 261.500 C 261.600 166.200 261.500 166.100 261.500 166.200 V 170.100 C 261.500 170.155 261.545 170.200 261.600 170.200 H 269.600 C 269.655 170.200 269.700 170.155 269.700 170.100 V 166.200 C 269.700 166.100 269.600 166.200 269.700 166.200 H 277.500 C 277.600 166.200 277.500 166.100 277.500 166.200 V 170.100 C 277.500 170.155 277.545 170.200 277.600 170.200 H 285.600 C 285.655 170.200 285.700 170.155 285.700 170.100 V 166.200 C 285.700 166.100 285.600 166.200 285.700 166.200 H 293.500 C 293.600 166.200 293.500 166.100 293.500 166.200 V 170.100 C 293.500 170.155 293.545 170.200 293.600 170.200 H 301.600 C 301.655 170.200 301.700 170.155 301.700 170.100 V 166.200 C 301.700 166.100 301.600 166.200 301.700 166.200 H 309.500 C 309.600 166.200 309.500 166.100 309.500 166.200 V 170.100 C 309.500 170.155 309.545 170.200 309.600 170.200 H 311.600 H 315.600 C 315.655 170.200 315.700 170.155 315.700 170.100 V 166.100 V 158.100 C 315.700 158.045 315.655 158.000 315.600 158.000 H 311.700 C 311.600 158.000 311.700 158.100 311.700 158.000 V 150.200 C 311.700 150.100 311.600 150.200 311.700 150.200 H 315.600 C 315.655 150.200 315.700 150.155 315.700 150.100 V 142.100 C 315.700 142.045 315.655 142.000 315.600 142.000 H 311.700 C 311.600 142.000 311.700 142.100 311.700 142.000 V 134.200 C 311.700 134.100 311.600 134.200 311.700 134.200 H 315.600 C 315.655 134.200 315.700 134.155 315.700 134.100 V 126.100 C 315.700 126.045 315.655 126.000 315.600 126.000 H 311.700 C 311.600 126.000 311.700 126.100 311.700 126.000 V 118.200 C 311.700 118.100 311.600 118.200 311.700 118.200 H 315.600 C 315.655 118.200 315.700 118.155 315.700 118.100 V 110.100 C 315.700 110.045 315.655 110.000 315.600 110.000 H 311.700 C 311.600 110.000 311.700 110.100 311.700 110.000 V 102.200 C 311.700 102.100 311.600 102.200 311.700 102.200 H 315.600 C 315.655 102.200 315.700 102.155 315.700 102.100 V 94.100 C 315.700 94.045 315.655 94.000 315.600 94.000 H 311.700 C 311.600 94.000 311.700 94.100 311.700 94.000 V 86.200 C 311.700 86.100 311.600 86.200 311.700 86.200 H 315.600 C 315.655 86.200 315.700 86.155 315.700 86.100 V 78.100 C 315.700 78.045 315.655 78.000 315.600 78.000 H 311.700 C 311.600 78.000 311.700 78.100 311.700 78.000 V 70.200 C 311.700 70.100 311.600 70.200 311.700 70.200 H 315.600 C 315.655 70.200 315.700 70.155 315.700 70.100 V 62.100 C 315.700 62.045 315.655 62.000 315.600 62.000 H 311.700 C 311.600 62.000 311.700 62.100 311.700 62.000 V 54.200 C 311.700 54.100 311.600 54.200 311.700 54.200 H 315.600 C 315.655 54.200 315.700 54.155 315.700 54.100 V 46.100 C 315.700 46.045 315.655 46.000 315.600 46.000 H 311.700 C 311.600 46.000 311.700 46.100 311.700 46.000 V 38.200 C 311.700 38.100 311.600 38.200 311.700 38.200 H 315.600 C 315.655 38.200 315.700 38.155 315.700 38.100 V 30.100 C 315.700 30.045 315.655 30.000 315.600 30.000 H 311.700 C 311.600 30.000 311.700 30.100 311.700 30.000 V 22.200 C 311.700 22.100 311.600 22.200 311.700 22.200 H 315.600 C 315.655 22.200 315.700 22.155 315.700 22.100 V 14.100 V 10.100 C 315.700 10.045 315.655 10.000 315.600 10.000 H 311.600 H 309.600 C 309.545 10.000 309.500 10.045 309.500 10.100 V 14.000 C 309.500 14.100 309.600 14.000 309.500 14.000 H 301.700 C 301.600 14.000 301.700 14.100 301.700 14.000 V 10.100 C 301.700 10.045 301.655 10.000 301.600 10.000 H 293.600 C 293.545 10.000 293.500 10.045 293.500 10.100 V 14.000 C 293.500 14.100 293.600 14.000 293.500 14.000 H 285.700 C 285.600 14.000 285.700 14.100 285.700 14.000 V 10.100 C 285.700 10.045 285.655 10.000 285.600 10.000 H 277.600 C 277.545 10.000 277.500 10.045 277.500 10.100 V 14.000 C 277.500 14.100 277.600 14.000 277.500 14.000 H 269.700 C 269.600 14.000 269.700 14.100 269.700 14.000 V 10.100 C 269.700 10.045 269.655 10.000 269.600 10.000 H 261.600 C 261.545 10.000 261.500 10.045 261.500 10.100 V 14.000 C 261.500 14.100 261.600 14.000 261.500 14.000 H 253.700 C 253.600 14.000 253.700 14.100 253.700 14.000 V 10.100 C 253.700 10.045 253.655 10.000 253.600 10.000 H 245.600 C 245.545 10.000 245.500 10.045 245.500 10.100 V 14.000 C 245.500 14.100 245.600 14.000 245.500 14.000 H 237.700 C 237.600 14.000 237.700 14.100 237.700 14.000 V 10.100 C 237.700 10.045 237.655 10.000 237.600 10.000 H 229.600 C 229.545 10.000 229.500 10.045 229.500 10.100 V 14.000 C 229.500 14.100 229.600 14.000 229.500 14.000 H 221.700 C 221.600 14.000 221.700 14.100 221.700 14.000 V 10.100 C 221.700 10.045 221.655 10.000 221.600 10.000 H 219.600 H 215.600 C 215.545 10.000 215.500 10.045 215.500 10.100 V 14.100 V 22.100 C 215.500 22.155 215.545 22.200 215.600 22.200 H 219.500 C 219.600 22.200 219.500 22.100 219.500 22.200 V 30.000 C 219.500 30.100 219.600 30.000 219.500 30.000 H 215.600 C 215.545 30.000 215.500 30.045 215.500 30.100 V 38.100 C 215.500 38.155 215.545 38.200 215.600 38.200 H 219.500 C 219.600 38.200 219.500 38.100 219.500 38.200 V 46.000 C 219.500 46.100 219.600 46.000 219.500 46.000 H 215.600 C 215.545 46.000 215.500 46.045 215.500 46.100 V 54.100 C 215.500 54.155 215.545 54.200 215.600 54.200 H 219.500 C 219.600 54.200 219.500 54.100 219.500 54.200 V 62.000 C 219.500 62.100 219.600 62.000 219.500 62.000 H 215.600 C 215.545 62.000 215.500 62.045 215.500 62.100 V 70.100 C 215.500 70.155 215.545 70.200 215.600 70.200 H 219.500 C 219.600 70.200 219.500 70.100 219.500 70.200 V 78.000 C 219.500 78.100 219.600 78.000 219.500 78.000 H 215.600 C 215.545 78.000 215.500 78.045 215.500 78.100 V 86.100 C 215.500 86.155 215.545 86.200 215.600 86.200 H 219.500 C 219.600 86.200 219.500 86.100 219.500 86.200 V 94.000 C 219.500 94.100 219.600 94.000 219.500 94.000 H 215.600 C 215.545 94.000 215.500 94.045 215.500 94.100 V 102.100 C 215.500 102.155 215.545 102.200 215.600 102.200 H 219.500 C 219.600 102.200 219.500 102.100 219.500 102.200 V 110.000 C 219.500 110.100 219.600 110.000 219.500 110.000 H 215.600 C 215.545 110.000 215.500 110.045 215.500 110.100 V 118.100 C 215.500 118.155 215.545 118.200 215.600 118.200 H 219.500 C 219.600 118.200 219.500 118.100 219.500 118.200 V 126.000 C 219.500 126.100 219.600 126.000 219.500 126.000 H 215.600 C 215.545 126.000 215.500 126.045 215.500 126.100 V 134.100 C 215.500 134.155 215.545 134.200 215.600 134.200 H 219.500 C 219.600 134.200 219.500 134.100 219.500 134.200 V 142.000 C 219.500 142.100 219.600 142.000 219.500 142.000 H 215.600 C 215.545 142.000 215.500 142.045 215.500 142.100 V 150.100 C 215.500 150.155 215.545 150.200 215.600 150.200 H 219.500 C 219.600 150.200 219.500 150.100 219.500 150.200 V 158.000 C 219.500 158.100 219.600 158.000 219.500 158.000 H 215.600 C 215.545 158.000 215.500 158.045 215.500 158.100 V 166.100 V 170.100 C 215.500 170.155 215.545 170.200 215.600 170.200 H 219.600 Z" stroke="rgb(0,0,0)" stroke-width="0.20" />
  <path d="M 324.000 170.200 H 327.000 C 327.055 170.200 327.100 170.155 327.100 170.100 V 166.200 C 327.100 166.100 327.000 166.200 327.100 166.200 H 334.900 C 335.000 166.200 334.900 166.100 334.900 166.200 V 170.100 C 334.900 170.155 334.945 170.200 335.000 170.200 H 343.000 C 343.055 170.200 343.100 170.155 343.100 170.100 V 166.200 C 343.100 166.100 343.000 166.200 343.100 166.200 H 350.900 C 351.000 166.200 350.900 166.100 350.900 166.200 V 170.100 C 350.900 170.155 350.945 170.200 351.000 170.200 H 354.000 H 352.885 C 352.940 170.200 352.985 170.155 352.985 170.100 V 166.100 V 158.200 C 352.985 158.100 352.885 158.200 352.985 158.200 H 355.456 C 355.511 158.200 355.556 158.155 355.556 158.100 V 150.100 C 355.556 150.045 355.511 150.000 355.456 150.000 H 352.985 C 352.885 150.000 352.985 150.100 352.985 150.000 V 142.200 C 352.985 142.100 352.885 142.200 352.985 142.200 H 355.456 C 355.511 142.200 355.556 142.155 355.556 142.100 V 134.100 C 355.556 134.045 355.511 134.000 355.456 134.000 H 352.985 C 352.885 134.000 352.985 134.100 352.985 134.000 V 126.200 C 352.985 126.100 352.885 126.200 352.985 126.200 H 355.456 C 355.511 126.200 355.556 126.155 355.556 126.100 V 118.100 C 355.556 118.045 355.511 118.000 355.456 118.000 H 352.985 C 352.885 118.000 352.985 118.100 352.985 118.000 V 110.200 C 352.985 110.100 352.885 110.200 352.985 110.200 H 355.456 C 355.511 110.200 355.556 110.155 355.556 110.100 V 102.100 C 355.556 102.045 355.511 102.000 355.456 102.000 H 352.985 C 352.885 102.000 352.985 102.100 352.985 102.000 V 94.200 C 352.985 94.100 352.885 94.200 352.985 94.200 H 355.456 C 355.511 94.200 355.556 94.155 355.556 94.100 V 86.100 C 355.556 86.045 355.511 86.000 355.456 86.000 H 352.985 C 352.885 86.000 352.985 86.100 352.985 86.000 V 78.200 C 352.985 78.100 352.885 78.200 352.985 78.200 H 355.456 C 355.511 78.200 355.556 78.155 355.556 78.100 V 70.100 C 355.556 70.045 355.511 70.000 355.456 70.000 H 352.985 C 352.885 70.000 352.985 70.100 352.985 70.000 V 62.200 C 352.985 62.100 352.885 62.200 352.985 62.200 H 355.456 C 355.511 62.200 355.556 62.155 355.556 62.100 V 54.100 C 355.556 54.045 355.511 54.000 355.456 54.000 H 352.985 C 352.885 54.000 352.985 54.100 352.985 54.000 V 46.200 C 352.985 46.100 352.885 46.200 352.985 46.200 H 355.456 C 355.511 46.200 355.556 46.155 355.556 46.100 V 38.100 C 355.556 38.045 355.511 38.000 355.456 38.000 H 352.985 C 352.885 38.000 352.985 38.100 352.985 38.000 V 30.200 C 352.985 30.100 352.885 30.200 352.985 30.200 H 355.456 C 355.511 30.200 355.556 30.155 355.556 30.100 V 22.100 C 355.556 22.045 355.511 22.000 355.456 22.000 H 352.985 C 352.885 22.000 352.985 22.100 352.985 22.000 V 14.100 V 10.100 C 352.985 10.045 352.940 10.000 352.885 10.000 H 354.000 H 351.000 C 350.945 10.000 350.900 10.045 350.900 10.100 V 14.000 C 350.900 14.100 351.000 14.000 350.900 14.000 H 343.100 C 343.000 14.000 343.100 14.100 343.100 14.000 V 10.100 C 343.100 10.045 343.055 10.000 343.000 10.000 H 335.000 C 334.945 10.000 334.900 10.045 334.900 10.100 V 14.000 C 334.900 14.100 335.000 14.000 334.900 14.000 H 327.100 C 327.000 14.000 327.100 14.100 327.100 14.000 V 10.100 C 327.100 10.045 327.055 10.000 327.000 10.000 H 324.000 C 323.945 10.000 323.900 10.045 323.900 10.100 V 14.100 V 22.000 C 323.900 22.100 324.000 22.000 323.900 22.000 H 320.000 C 319.945 22.000 319.900 22.045 319.900 22.100 V 30.100 C 319.900 30.155 319.945 30.200 320.000 30.200 H 323.900 C 324.000 30.200 323.900 30.100 323.900 30.200 V 38.000 C 323.900 38.100 324.000 38.000 323.900 38.000 H 320.000 C 319.945 38.000 319.900 38.045 319.900 38.100 V 46.100 C 319.900 46.155 319.945 46.200 320.000 46.200 H 323.900 C 324.000 46.200 323.900 46.100 323.900 46.200 V 54.000 C 323.900 54.100 324.000 54.000 323.900 54.000 H 320.000 C 319.945 54.000 319.900 54.045 319.900 54.100 V 62.100 C 319.900 62.155 319.945 62.200 320.000 62.200 H 323.900 C 324.000 62.200 323.900 62.100 323.900 62.200 V 70.000 C 323.900 70.100 324.000 70.000 323.900 70.000 H 320.000 C 319.945 70.000 319.900 70.045 319.900 70.100 V 78.100 C 319.900 78.155 319.945 78.200 320.000 78.200 H 323.900 C 324.000 78.200 323.900 78.100 323.900 78.200 V 86.000 C 323.900 86.100 324.000 86.000 323.900 86.000 H 320.000 C 319.945 86.000 319.900 86.045 319.900 86.100 V 94.100 C 319.900 94.155 319.945 94.200 320.000 94.200 H 323.900 C 324.000 94.200 323.900 94.100 323.900 94.200 V 102.000 C 323.900 102.100 324.000 102.000 323.900 102.000 H 320.000 C 319.945 102.000 319.900 102.045 319.900 102.100 V 110.100 C 319.900 110.155 319.945 110.200 320.000 110.200 H 323.900 C 324.000 110.200 323.900 110.100 323.900 110.200 V 118.000 C 323.900 118.100 324.000 118.000 323.900 118.000 H 320.000 C 319.945 118.000 319.900 118.045 319.900 118.100 V 126.100 C 319.900 126.155 319.945 126.200 320.000 126.200 H 323.900 C 324.000 126.200 323.900 126.100 323.900 126.200 V 134.000 C 323.900 134.100 324.000 134.000 323.900 134.000 H 320.000 C 319.945 134.000 319.900 134.045 319.900 134.100 V 142.100 C 319.900 142.155 319.945 142.200 320.000 142.200 H 323.900 C 324.000 142.200 323.900 142.100 323.900 142.200 V 150.000 C 323.900 150.100 324.000 150.000 323.900 150.000 H 320.000 C 319.945 150.000 319.900 150.045 319.900 150.100 V 158.100 C 319.900 158.155 319.945 158.200 320.000 158.200 H 323.900 C 324.000 158.200 323.900 158.100 323.900 158.200 V 166.100 V 170.100 C 323.900 170.155 323.945 170.200 324.000 170.200 Z" stroke="rgb(0,0,0)" stroke-width="0.20" />
  <path d="M 363.856 170.200 H 373.545 C 373.600 170.200 373.645 170.155 373.645 170.100 V 166.200 C 373.645 166.100 373.545 166.200 373.645 166.200 H 381.445 C 381.545 166.200 381.445 166.100 381.445 166.200 V 170.100 C 381.445 170.155 381.490 170.200 381.545 170.200 H 389.545 C 389.600 170.200 389.645 170.155 389.645 170.100 V 166.200 C 389.645 166.100 389.545 166.200 389.645 166.200 H 397.445 C 397.545 166.200 397.445 166.100 397.445 166.200 V 170.100 C 397.445 170.155 397.490 170.200 397.545 170.200 H 405.545 C 405.600 170.200 405.645 170.155 405.645 170.100 V 166.200 C 405.645 166.100 405.545 166.200 405.645 166.200 H 413.445 C 413.545 166.200 413.445 166.100 413.445 166.200 V 170.100 C 413.445 170.155 413.490 170.200 413.545 170.200 H 421.545 C 421.600 170.200 421.645 170.155 421.645 170.100 V 166.200 C 421.645 166.100 421.545 166.200 421.645 166.200 H 429.445 C 429.545 166.200 429.445 166.100 429.445 166.200 V 170.100 C 429.445 170.155 429.490 170.200 429.545 170.200 H 437.545 C 437.600 170.200 437.645 170.155 437.645 170.100 V 166.200 C 437.645 166.100 437.545 166.200 437.645 166.200 H 445.445 C 445.545 166.200 445.445 166.100 445.445 166.200 V 170.100 C 445.445 170.155 445.490 170.200 445.545 170.200 H 455.234 H 457.100 C 457.155 170.200 457.200 170.155 457.200 170.100 V 166.100 V 158.100 C 457.200 158.045 457.155 158.000 457.100 158.000 H 454.135 C 454.035 158.000 454.135 158.100 454.135 158.000 V 150.200 C 454.135 150.100 454.035 150.200 454.135 150.200 H 457.100 C 457.155 150.200 457.200 150.155 457.200 150.100 V 142.100 C 457.200 142.045 457.155 142.000 457.100 142.000 H 454.135 C 454.035 142.000 454.135 142.100 454.135 142.000 V 134.200 C 454.135 134.100 454.035 134.200 454.135 134.200 H 457.100 C 457.155 134.200 457.200 134.155 457.200 134.100 V 126.100 C 457.200 126.045 457.155 126.000 457.100 126.000 H 454.135 C 454.035 126.000 454.135 126.100 454.135 126.000 V 118.200 C 454.135 118.100 454.035 118.200 454.135 118.200 H 457.100 C 457.155 118.200 457.200 118.155 457.200 118.100 V 110.100 C 457.200 110.045 457.155 110.000 457.100 110.000 H 454.135 C 454.035 110.000 454.135 110.100 454.135 110.000 V 102.200 C 454.135 102.100 454.035 102.200 454.135 102.200 H 457.100 C 457.155 102.200 457.200 102.155 457.200 102.100 V 94.100 C 457.200 94.045 457.155 94.000 457.100 94.000 H 454.135 C 454.035 94.000 454.135 94.100 454.135 94.000 V 86.200 C 454.135 86.100 454.035 86.200 454.135 86.200 H 457.100 C 457.155 86.200 457.200 86.155 457.200 86.100 V 78.100 C 457.200 78.045 457.155 78.000 457.100 78.000 H 454.135 C 454.035 78.000 454.135 78.100 454.135 78.000 V 70.200 C 454.135 70.100 454.035 70.200 454.135 70.200 H 457.100 C 457.155 70.200 457.200 70.155 457.200 70.100 V 62.100 C 457.200 62.045 457.155 62.000 457.100 62.000 H 454.135 C 454.035 62.000 454.135 62.100 454.135 62.000 V 54.200 C 454.135 54.100 454.035 54.200 454.135 54.200 H 457.100 C 457.155 54.200 457.200 54.155 457.200 54.100 V 46.100 C 457.200 46.045 457.155 46.000 457.100 46.000 H 454.135 C 454.035 46.000 454.135 46.100 454.135 46.000 V 38.200 C 454.135 38.100 454.035 38.200 454.135 38.200 H 457.100 C 457.155 38.200 457.200 38.155 457.200 38.100 V 30.100 C 457.200 30.045 457.155 30.000 457.100 30.000 H 454.135 C 454.035 30.000 454.135 30.100 454.135 30.000 V 22.200 C 454.135 22.100 454.035 22.200 454.135 22.200 H 457.100 C 457.155 22.200 457.200 22.155 457.200 22.100 V 14.100 V 10.100 C 457.200 10.045 457.155 10.000 457.100 10.000 H 455.234 H 445.545 C 445.490 10.000 445.445 10.045 445.445 10.100 V 14.000 C 445.445 14.100 445.545 14.000 445.445 14.000 H 437.645 C 437.545 14.000 437.645 14.100 437.645 14.000 V 10.100 C 437.645 10.045 437.600 10.000 437.545 10.000 H 429.545 C 429.490 10.000 429.445 10.045 429.445 10.100 V 14.000 C 429.445 14.100 429.545 14.000 429.445 14.000 H 421.645 C 421.545 14.000 421.645 14.100 421.645 14.000 V 10.100 C 421.645 10.045 421.600 10.000 421.545 10.000 H 413.545 C 413.490 10.000 413.445 10.045 413.445 10.100 V 14.000 C 413.445 14.100 413.545 14.000 413.445 14.000 H 405.645 C 405.545 14.000 405.645 14.100 405.645 14.000 V 10.100 C 405.645 10.045 405.600 10.000 405.545 10.000 H 397.545 C 397.490 10.000 397.445 10.045 397.445 10.100 V 14.000 C 397.445 14.100 397.545 14.000 397.445 14.000 H 389.645 C 389.545 14.000 389.645 14.100 389.645 14.000 V 10.100 C 389.645 10.045 389.600 10.000 389.545 10.000 H 381.545 C 381.490 10.000 381.445 10.045 381.445 10.100 V 14.000 C 381.445 14.100 381.545 14.000 381.445 14.000 H 373.645 C 373.545 14.000 373.645 14.100 373.645 14.000 V 10.100 C 373.645 10.045 373.600 10.000 373.545 10.000 H 363.856 H 362.400 C 362.345 10.000 362.300 10.045 362.300 10.100 V 14.100 V 22.100 C 362.300 22.155 362.345 22.200 362.400 22.200 H 364.871 C 364.971 22.200 364.871 22.100 364.871 22.200 V 30.000 C 364.871 30.100 364.971 30.000 364.871 30.000 H 362.400 C 362.345 30.000 362.300 30.045 362.300 30.100 V 38.100 C 362.300 38.155 362.345 38.200 362.400 38.200 H 364.871 C 364.971 38.200 364.871 38.100 364.871 38.200 V 46.000 C 364.871 46.100 364.971 46.000 364.871 46.000 H 362.400 C 362.345 46.000 362.300 46.045 362.300 46.100 V 54.100 C 362.300 54.155 362.345 54.200 362.400 54.200 H 364.871 C 364.971 54.200 364.871 54.100 364.871 54.200 V 62.000 C 364.871 62.100 364.971 62.000 364.871 62.000 H 362.400 C 362.345 62.000 362.300 62.045 362.300 62.100 V 70.100 C 362.300 70.155 362.345 70.200 362.400 70.200 H 364.871 C 364.971 70.200 364.871 70.100 364.871 70.200 V 78.000 C 364.871 78.100 364.971 78.000 364.871 78.000 H 362.400 C 362.345 78.000 362.300 78.045 362.300 78.100 V 86.100 C 362.300 86.155 362.345 86.200 362.400 86.200 H 364.871 C 364.971 86.200 364.871 86.100 364.871 86.200 V 94.000 C 364.871 94.100 364.971 94.000 364.871 94.000 H 362.400 C 362.345 94.000 362.300 94.045 362.300 94.100 V 102.100 C 362.300 102.155 362.345 102.200 362.400 102.200 H 364.871 C 364.971 102.200 364.871 102.100 364.871 102.200 V 110.000 C 364.871 110.100 364.971 110.000 364.871 110.000 H 362.400 C 362.345 110.000 362.300 110.045 362.300 110.100 V 118.100 C 362.300 118.155 362.345 118.200 362.400 118.200 H 364.871 C 364.971 118.200 364.871 118.100 364.871 118.200 V 126.000 C 364.871 126.100 364.971 126.000 364.871 126.000 H 362.400 C 362.345 126.000 362.300 126.045 362.300 126.100 V 134.100 C 362.300 134.155 362.345 134.200 362.400 134.200 H 364.871 C 364.971 134.200 364.871 134.100 364.871 134.200 V 142.000 C 364.871 142.100 364.971 142.000 364.871 142.000 H 362.400 C 362.345 142.000 362.300 142.045 362.300 142.100 V 150.100 C 362.300 150.155 362.345 150.200 362.400 150.200 H 364.871 C 364.971 150.200 364.871 150.100 364.871 150.200 V 158.000 C 364.871 158.100 364.971 158.000 364.871 158.000 H 362.400 C 362.345 158.000 362.300 158.045 362.300 158.100 V 166.100 V 170.100 C 362.300 170.155 362.345 170.200 362.400 170.200 H 363.856 Z" stroke="rgb(0,0,0)" stroke-width="0.20" />
  <path d="M 462.956 170.200 H 467.587 C 467.642 170.200 467.687 170.155 467.687 170.100 V 166.200 C 467.687 166.100 467.587 166.200 467.687 166.200 H 475.487 C 475.587 166.200 475.487 166.100 475.487 166.200 V 170.100 C 475.487 170.155 475.532 170.200 475.587 170.200 H 483.587 C 483.642 170.200 483.687 170.155 483.687 170.100 V 166.200 C 483.687 166.100 483.587 166.200 483.687 166.200 H 491.487 C 491.587 166.200 491.487 166.100 491.487 166.200 V 170.100 C 491.487 170.155 491.532 170.200 491.587 170.200 H 496.219 C 496.274 170.200 496.319 170.155 496.319 170.100 V 166.100 V 158.200 C 496.319 158.100 496.219 158.200 496.319 158.200 H 500.219 C 500.274 158.200 500.319 158.155 500.319 158.100 V 150.100 C 500.319 150.045 500.274 150.000 500.219 150.000 H 496.319 C 496.219 150.000 496.319 150.100 496.319 150.000 V 142.200 C 496.319 142.100 496.219 142.200 496.319 142.200 H 500.219 C 500.274 142.200 500.319 142.155 500.319 142.100 V 134.100 C 500.319 134.045 500.274 134.000 500.219 134.000 H 496.319 C 496.219 134.000 496.319 134.100 496.319 134.000 V 126.200 C 496.319 126.100 496.219 126.200 496.319 126.200 H 500.219 C 500.274 126.200 500.319 126.155 500.319 126.100 V 118.100 C 500.319 118.045 500.274 118.000 500.219 118.000 H 496.319 C 496.219 118.000 496.319 118.100 496.319 118.000 V 110.200 C 496.319 110.100 496.219 110.200 496.319 110.200 H 500.219 C 500.274 110.200 500.319 110.155 500.319 110.100 V 102.100 C 500.319 102.045 500.274 102.000 500.219 102.000 H 496.319 C 496.219 102.000 496.319 102.100 496.319 102.000 V 94.200 C 496.319 94.100 496.219 94.200 496.319 94.200 H 500.219 C 500.274 94.200 500.319 94.155 500.319 94.100 V 86.100 C 500.319 86.045 500.274 86.000 500.219 86.000 H 496.319 C 496.219 86.000 496.319 86.100 496.319 86.000 V 78.200 C 496.319 78.100 496.219 78.200 496.319 78.200 H 500.219 C 500.274 78.200 500.319 78.155 500.319 78.100 V 70.100 C 500.319 70.045 500.274 70.000 500.219 70.000 H 496.319 C 496.219 70.000 496.319 70.100 496.319 70.000 V 62.200 C 496.319 62.100 496.219 62.200 496.319 62.200 H 500.219 C 500.274 62.200 500.319 62.155 500.319 62.100 V 54.100 C 500.319 54.045 500.274 54.000 500.219 54.000 H 496.319 C 496.219 54.000 496.319 54.100 496.319 54.000 V 46.200 C 496.319 46.100 496.219 46.200 496.319 46.200 H 500.219 C 500.274 46.200 500.319 46.155 500.319 46.100 V 38.100 C 500.319 38.045 500.274 38.000 500.219 38.000 H 496.319 C 496.219 38.000 496.319 38.100 496.319 38.000 V 30.200 C 496.319 30.100 496.219 30.200 496.319 30.200 H 500.219 C 500.274 30.200 500.319 30.155 500.319 30.100 V 22.100 C 500.319 22.045 500.274 22.000 500.219 22.000 H 496.319 C 496.219 22.000 496.319 22.100 496.319 22.000 V 14.100 V 10.100 C 496.319 10.045 496.274 10.000 496.219 10.000 H 491.587 C 491.532 10.000 491.487 10.045 491.487 10.100 V 14.000 C 491.487 14.100 491.587 14.000 491.487 14.000 H 483.687 C 483.587 14.000 483.687 14.100 483.687 14.000 V 10.100 C 483.687 10.045 483.642 10.000 483.587 10.000 H 475.587 C 475.532 10.000 475.487 10.045 475.487 10.100 V 14.000 C 475.487 14.100 475.587 14.000 475.487 14.000 H 467.687 C 467.587 14.000 467.687 14.100 467.687 14.000 V 10.100 C 467.687 10.045 467.642 10.000 467.587 10.000 H 462.956 H 464.154 C 464.099 10.000 464.054 10.045 464.054 10.100 V 14.100 V 22.000 C 464.054 22.100 464.154 22.000 464.054 22.000 H 461.090 C 461.035 22.000 460.990 22.045 460.990 22.100 V 30.100 C 460.990 30.155 461.035 30.200 461.090 30.200 H 464.054 C 464.154 30.200 464.054 30.100 464.054 30.200 V 38.000 C 464.054 38.100 464.154 38.000 464.054 38.000 H 461.090 C 461.035 38.000 460.990 38.045 460.990 38.100 V 46.100 C 460.990 46.155 461.035 46.200 461.090 46.200 H 464.054 C 464.154 46.200 464.054 46.100 464.054 46.200 V 54.000 C 464.054 54.100 464.154 54.000 464.054 54.000 H 461.090 C 461.035 54.000 460.990 54.045 460.990 54.100 V 62.100 C 460.990 62.155 461.035 62.200 461.090 62.200 H 464.054 C 464.154 62.200 464.054 62.100 464.054 62.200 V 70.000 C 464.054 70.100 464.154 70.000 464.054 70.000 H 461.090 C 461.035 70.000 460.990 70.045 460.990 70.100 V 78.100 C 460.990 78.155 461.035 78.200 461.090 78.200 H 464.054 C 464.154 78.200 464.054 78.100 464.054 78.200 V 86.000 C 464.054 86.100 464.154 86.000 464.054 86.000 H 461.090 C 461.035 86.000 460.990 86.045 460.990 86.100 V 94.100 C 460.990 94.155 461.035 94.200 461.090 94.200 H 464.054 C 464.154 94.200 464.054 94.100 464.054 94.200 V 102.000 C 464.054 102.100 464.154 102.000 464.054 102.000 H 461.090 C 461.035 102.000 460.990 102.045 460.990 102.100 V 110.100 C 460.990 110.155 461.035 110.200 461.090 110.200 H 464.054 C 464.154 110.200 464.054 110.100 464.054 110.200 V 118.000 C 464.054 118.100 464.154 118.000 464.054 118.000 H 461.090 C 461.035 118.000 460.990 118.045 460.990 118.100 V 126.100 C 460.990 126.155 461.035 126.200 461.090 126.200 H 464.054 C 464.154 126.200 464.054 126.100 464.054 126.200 V 134.000 C 464.054 134.100 464.154 134.000 464.054 134.000 H 461.090 C 461.035 134.000 460.990 134.045 460.990 134.100 V 142.100 C 460.990 142.155 461.035 142.200 461.090 142.200 H 464.054 C 464.154 142.200 464.054 142.100 464.054 142.200 V 150.000 C 464.054 150.100 464.154 150.000 464.054 150.000 H 461.090 C 461.035 150.000 460.990 150.045 460.990 150.100 V 158.100 C 460.990 158.155 461.035 158.200 461.090 158.200 H 464.054 C 464.154 158.200 464.054 158.100 464.054 158.200 V 166.100 V 170.100 C 464.054 170.155 464.099 170.200 464.154 170.200 H 462.956 Z" stroke="rgb(0,0,0)" stroke-width="0.20" />
  <path d="M 506.484 170.200 H 512.484 C 512.539 170.200 512.584 170.155 512.584 170.100 V 166.200 C 512.584 166.100 512.484 166.200 512.584 166.200 H 520.384 C 520.484 166.200 520.384 166.100 520.384 166.200 V 170.100 C 520.384 170.155 520.429 170.200 520.484 170.200 H 528.484 C 528.539 170.200 528.584 170.155 528.584 170.100 V 166.200 C 528.584 166.100 528.484 166.200 528.584 166.200 H 536.384 C 536.484 166.200 536.384 166.100 536.384 166.200 V 170.100 C 536.384 170.155 536.429 170.200 536.484 170.200 H 544.484 C 544.539 170.200 544.584 170.155 544.584 170.100 V 166.200 C 544.584 166.100 544.484 166.200 544.584 166.200 H 552.384 C 552.484 166.200 552.384 166.100 552.384 166.200 V 170.100 C 552.384 170.155 552.429 170.200 552.484 170.200 H 560.484 C 560.539 170.200 560.584 170.155 560.584 170.100 V 166.200 C 560.584 166.100 560.484 166.200 560.584 166.200 H 568.384 C 568.484 166.200 568.384 166.100 568.384 166.200 V 170.100 C 568.384 170.155 568.429 170.200 568.484 170.200 H 576.484 C 576.539 170.200 576.584 170.155 576.584 170.100 V 166.200 C 576.584 166.100 576.484 166.200 576.584 166.200 H 584.384 C 584.484 166.200 584.384 166.100 584.384 166.200 V 170.100 C 584.384 170.155 584.429 170.200 584.484 170.200 H 592.484 C 592.539 170.200 592.584 170.155 592.584 170.100 V 166.200 C 592.584 166.100 592.484 166.200 592.584 166.200 H 600.384 C 600.484 166.200 600.384 166.100 600.384 166.200 V 170.100 C 600.384 170.155 600.429 170.200 600.484 170.200 H 606.484 C 606.539 170.200 606.584 170.155 606.584 170.100 V 166.100 V 158.200 C 606.584 158.100 606.484 158.200 606.584 158.200 H 610.484 C 610.539 158.200 610.584 158.155 610.584 158.100 V 150.100 C 610.584 150.045 610.539 150.000 610.484 150.000 H 606.584 C 606.484 150.000 606.584 150.100 606.584 150.000 V 142.200 C 606.584 142.100 606.484 142.200 606.584 142.200 H 610.484 C 610.539 142.200 610.584 142.155 610.584 142.100 V 134.100 C 610.584 134.045 610.539 134.000 610.484 134.000 H 606.584 C 606.484 134.000 606.584 134.100 606.584 134.000 V 126.200 C 606.584 126.100 606.484 126.200 606.584 126.200 H 610.484 C 610.539 126.200 610.584 126.155 610.584 126.100 V 118.100 C 610.584 118.045 610.539 118.000 610.484 118.000 H 606.584 C 606.484 118.000 606.584 118.100 606.584 118.000 V 110.200 C 606.584 110.100 606.484 110.200 606.584 110.200 H 610.484 C 610.539 110.200 610.584 110.155 610.584 110.100 V 102.100 C 610.584 102.045 610.539 102.000 610.484 102.000 H 606.584 C 606.484 102.000 606.584 102.100 606.584 102.000 V 94.200 C 606.584 94.100 606.484 94.200 606.584 94.200 H 610.484 C 610.539 94.200 610.584 94.155 610.584 94.100 V 86.100 C 610.584 86.045 610.539 86.000 610.484 86.000 H 606.584 C 606.484 86.000 606.584 86.100 606.584 86.000 V 78.200 C 606.584 78.100 606.484 78.200 606.584 78.200 H 610.484 C 610.539 78.200 610.584 78.155 610.584 78.100 V 70.100 C 610.584 70.045 610.539 70.000 610.484 70.000 H 606.584 C 606.484 70.000 606.584 70.100 606.584 70.000 V 62.200 C 606.584 62.100 606.484 62.200 606.584 62.200 H 610.484 C 610.539 62.200 610.584 62.155 610.584 62.100 V 54.100 C 610.584 54.045 610.539 54.000 610.484 54.000 H 606.584 C 606.484 54.000 606.584 54.100 606.584 54.000 V 46.200 C 606.584 46.100 606.484 46.200 606.584 46.200 H 610.484 C 610.539 46.200 610.584 46.155 610.584 46.100 V 38.100 C 610.584 38.045 610.539 38.000 610.484 38.000 H 606.584 C 606.484 38.000 606.584 38.100 606.584 38.000 V 30.200 C 606.584 30.100 606.484 30.200 606.584 30.200 H 610.484 C 610.539 30.200 610.584 30.155 610.584 30.100 V 22.100 C 610.584 22.045 610.539 22.000 610.484 22.000 H 606.584 C 606.484 22.000 606.584 22.100 606.584 22.000 V 14.100 V 10.100 C 606.584 10.045 606.539 10.000 606.484 10.000 H 600.484 C 600.429 10.000 600.384 10.045 600.384 10.100 V 14.000 C 600.384 14.100 600.484 14.000 600.384 14.000 H 592.584 C 592.484 14.000 592.584 14.100 592.584 14.000 V 10.100 C 592.584 10.045 592.539 10.000 592.484 10.000 H 584.484 C 584.429 10.000 584.384 10.045 584.384 10.100 V 14.000 C 584.384 14.100 584.484 14.000 584.384 14.000 H 576.584 C 576.484 14.000 576.584 14.100 576.584 14.000 V 10.100 C 576.584 10.045 576.539 10.000 576.484 10.000 H 568.484 C 568.429 10.000 568.384 10.045 568.384 10.100 V 14.000 C 568.384 14.100 568.484 14.000 568.384 14.000 H 560.584 C 560.484 14.000 560.584 14.100 560.584 14.000 V 10.100 C 560.584 10.045 560.539 10.000 560.484 10.000 H 552.484 C 552.429 10.000 552.384 10.045 552.384 10.100 V 14.000 C 552.384 14.100 552.484 14.000 552.384 14.000 H 544.584 C 544.484 14.000 544.584 14.100 544.584 14.000 V 10.100 C 544.584 10.045 544.539 10.000 544.484 10.000 H 536.484 C 536.429 10.000 536.384 10.045 536.384 10.100 V 14.000 C 536.384 14.100 536.484 14.000 536.384 14.000 H 528.584 C 528.484 14.000 528.584 14.100 528.584 14.000 V 10.100 C 528.584 10.045 528.539 10.000 528.484 10.000 H 520.484 C 520.429 10.000 520.384 10.045 520.384 10.100 V 14.000 C 520.384 14.100 520.484 14.000 520.384 14.000 H 512.584 C 512.484 14.000 512.584 14.100 512.584 14.000 V 10.100 C 512.584 10.045 512.539 10.000 512.484 10.000 H 506.484 H 502.484 C 502.429 10.000 502.384 10.045 502.384 10.100 V 14.100 V 22.100 C 502.384 22.155 502.429 22.200 502.484 22.200 H 506.384 C 506.484 22.200 506.384 22.100 506.384 22.200 V 30.000 C 506.384 30.100 506.484 30.000 506.384 30.000 H 502.484 C 502.429 30.000 502.384 30.045 502.384 30.100 V 38.100 C 502.384 38.155 502.429 38.200 502.484 38.200 H 506.384 C 506.484 38.200 506.384 38.100 506.384 38.200 V 46.000 C 506.384 46.100 506.484 46.000 506.384 46.000 H 502.484 C 502.429 46.000 502.384 46.045 502.384 46.100 V 54.100 C 502.384 54.155 502.429 54.200 502.484 54.200 H 506.384 C 506.484 54.200 506.384 54.100 506.384 54.200 V 62.000 C 506.384 62.100 506.484 62.000 506.384 62.000 H 502.484 C 502.429 62.000 502.384 62.045 502.384 62.100 V 70.100 C 502.384 70.155 502.429 70.200 502.484 70.200 H 506.384 C 506.484 70.200 506.384 70.100 506.384 70.200 V 78.000 C 506.384 78.100 506.484 78.000 506.384 78.000 H 502.484 C 502.429 78.000 502.384 78.045 502.384 78.100 V 86.100 C 502.384 86.155 502.429 86.200 502.484 86.200 H 506.384 C 506.484 86.200 506.384 86.100 506.384 86.200 V 94.000 C 506.384 94.100 506.484 94.000 506.384 94.000 H 502.484 C 502.429 94.000 502.384 94.045 502.384 94.100 V 102.100 C 502.384 102.155 502.429 102.200 502.484 102.200 H 506.384 C 506.484 102.200 506.384 102.100 506.384 102.200 V 110.000 C 506.384 110.100 506.484 110.000 506.384 110.000 H 502.484 C 502.429 110.000 502.384 110.045 502.384 110.100 V 118.100 C 502.384 118.155 502.429 118.200 502.484 118.200 H 506.384 C 506.484 118.200 506.384 118.100 506.384 118.200 V 126.000 C 506.384 126.100 506.484 126.000 506.384 126.000 H 502.484 C 502.429 126.000 502.384 126.045 502.384 126.100 V 134.100 C 502.384 134.155 502.429 134.200 502.484 134.200 H 506.384 C 506.484 134.200 506.384 134.100 506.384 134.200 V 142.000 C 506.384 142.100 506.484 142.000 506.384 142.000 H 502.484 C 502.429 142.000 502.384 142.045 502.384 142.100 V 150.100 C 502.384 150.155 502.429 150.200 502.484 150.200 H 506.384 C 506.484 150.200 506.384 150.100 506.384 150.200 V 158.000 C 506.384 158.100 506.484 158.000 506.384 158.000 H 502.484 C 502.429 158.000 502.384 158.045 502.384 158.100 V 166.100 V 170.100 C 502.384 170.155 502.429 170.200 502.484 170.200 H 506.484 Z" stroke="rgb(0,0,0)" stroke-width="0.20" />
</g>
</svg>