<?xml version="1.0" encoding="UTF-8" standalone="no"?>
<svg
   xmlns:dc="http://purl.org/dc/elements/1.1/"
   xmlns:cc="http://creativecommons.org/ns#"
   xmlns:rdf="http://www.w3.org/1999/02/22-rdf-syntax-ns#"
   xmlns:svg="http://www.w3.org/2000/svg"
   xmlns="http://www.w3.org/2000/svg"
   xmlns:sodipodi="http://sodipodi.sourceforge.net/DTD/sodipodi-0.dtd"
   xmlns:inkscape="http://www.inkscape.org/namespaces/inkscape"
   width="297mm"
   height="210mm"
   viewBox="0 0 297 210"
   version="1.1"
   id="svg8"
   inkscape:version="1.0.1 (3bc2e813f5, 2020-09-07)"
   sodipodi:docname="FrontplatteV2_140x60.svg">
  <defs
     id="defs2">
    <inkscape:path-effect
       effect="powerstroke"
       id="path-effect858"
       is_visible="true"
       lpeversion="1"
       offset_points="0,0.06013864"
       sort_points="true"
       interpolator_type="CubicBezierJohan"
       interpolator_beta="0.2"
       start_linecap_type="zerowidth"
       linejoin_type="extrp_arc"
       miter_limit="4"
       scale_width="1"
       end_linecap_type="zerowidth" />
    <inkscape:path-effect
       effect="simplify"
       id="path-effect856"
       is_visible="true"
       lpeversion="1"
       steps="1"
       threshold="0.000408163"
       smooth_angles="360"
       helper_size="0"
       simplify_individual_paths="false"
       simplify_just_coalesce="false" />
  </defs>
  <sodipodi:namedview
     id="base"
     pagecolor="#ffffff"
     bordercolor="#666666"
     borderopacity="1.0"
     inkscape:pageopacity="0.0"
     inkscape:pageshadow="2"
     inkscape:zoom="1.2319964"
     inkscape:cx="496.25144"
     inkscape:cy="291.93544"
     inkscape:document-units="mm"
     inkscape:current-layer="layer1"
     inkscape:document-rotation="0"
     showgrid="false"
     inkscape:snap-global="false"
     showguides="false"
     inkscape:guide-bbox="true"
     inkscape:window-width="1920"
     inkscape:window-height="1017"
     inkscape:window-x="-8"
     inkscape:window-y="-8"
     inkscape:window-maximized="1">
    <sodipodi:guide
       position="30.748354,160.08384"
       orientation="0,-1"
       id="guide852" />
  </sodipodi:namedview>
  <metadata
     id="metadata5">
    <rdf:RDF>
      <cc:Work
         rdf:about="">
        <dc:format>image/svg+xml</dc:format>
        <dc:type
           rdf:resource="http://purl.org/dc/dcmitype/StillImage" />
        <dc:title></dc:title>
      </cc:Work>
    </rdf:RDF>
  </metadata>
  <g
     inkscape:label="Ebene 1"
     inkscape:groupmode="layer"
     id="layer1">
    <path
       style="fill:none;stroke:#000000;stroke-width:0.117126;stroke-linecap:round;stroke-linejoin:round;stroke-miterlimit:4;stroke-dasharray:none;stroke-opacity:0.870588"
       d="m -68.606566,-24.131613 -4.7408,4.635474 -210.763514,5.29e-4 -4.70538,-4.681175 -1.32464,-35.593502 1.59772,-35.239002 4.36533,-4.369096 210.942664,2.23e-4 c 1.5322,1.519835 3.08303,3.032254 4.62436,4.581932 l 1.35279,35.02566 z"
       id="path862-8"
       sodipodi:nodetypes="ccccccccccc" />
    <path
       style="fill:none;stroke:#000000;stroke-width:0.117126;stroke-linecap:round;stroke-linejoin:round;stroke-miterlimit:4;stroke-dasharray:none;stroke-opacity:0.870588"
       d="m 232.24253,85.545795 -4.7408,4.635473 -210.763516,6.3e-4 -4.705377,-4.681274 -1.324645,-35.593502 1.59772,-35.239002 4.365332,-4.369096 210.942666,2.23e-4 c 1.5322,1.519835 3.08303,3.032254 4.62436,4.581932 l 1.35279,35.025661 z"
       id="path862"
       sodipodi:nodetypes="ccccccccccc" />
    <g
       id="g1124"
       transform="translate(-2.1543884,-0.98384267)">
      <g
         id="g1035"
         transform="translate(0.64427948,0.30119689)">
        <g
           id="g972"
           transform="translate(-3.8661527,14.951225)">
          <ellipse
             style="fill:none;stroke:#000000;stroke-width:0.0918464;stroke-linecap:round;stroke-linejoin:round;stroke-miterlimit:4;stroke-dasharray:none;stroke-opacity:0.870588"
             id="path909-4"
             cx="97.61911"
             cy="39.35001"
             rx="1.4540768"
             ry="1.4540769" />
          <ellipse
             style="fill:none;stroke:#000000;stroke-width:0.0918464;stroke-linecap:round;stroke-linejoin:round;stroke-miterlimit:4;stroke-dasharray:none;stroke-opacity:0.870588"
             id="path909-6-1"
             cx="182.06215"
             cy="39.35001"
             rx="1.4540768"
             ry="1.4540769" />
          <ellipse
             style="fill:none;stroke:#000000;stroke-width:0.0918464;stroke-linecap:round;stroke-linejoin:round;stroke-miterlimit:4;stroke-dasharray:none;stroke-opacity:0.870588"
             id="path909-9-6"
             cx="153.91447"
             cy="39.35001"
             rx="1.4540768"
             ry="1.4540769" />
          <ellipse
             style="fill:none;stroke:#000000;stroke-width:0.0918464;stroke-linecap:round;stroke-linejoin:round;stroke-miterlimit:4;stroke-dasharray:none;stroke-opacity:0.870588"
             id="path909-0-8"
             cx="125.7668"
             cy="39.35001"
             rx="1.4540768"
             ry="1.4540769" />
        </g>
        <g
           id="g1340"
           transform="translate(0.48822,4.2621979)">
          <g
             aria-label="a8"
             id="text1111"
             style="font-style:normal;font-variant:normal;font-weight:normal;font-stretch:normal;font-size:6px;line-height:1.25;font-family:Arial;-inkscape-font-specification:'Arial, Normal';font-variant-ligatures:normal;font-variant-caps:normal;font-variant-numeric:normal;font-variant-east-asian:normal;text-align:center;writing-mode:lr-tb;text-anchor:middle;fill:#000000;fill-opacity:1;stroke:#000000;stroke-width:0.1;stroke-linecap:round;stroke-linejoin:round;stroke-miterlimit:4;stroke-dasharray:none;stroke-opacity:0.870588">
            <path
               d="m 93.153679,44.501015 q -0.292969,0.249023 -0.56543,0.351562 -0.269531,0.102539 -0.580078,0.102539 -0.512695,0 -0.788086,-0.249023 -0.27539,-0.251953 -0.27539,-0.641602 0,-0.228515 0.102539,-0.416015 0.105468,-0.19043 0.272461,-0.304688 0.169921,-0.114258 0.380859,-0.172851 0.155273,-0.04102 0.46875,-0.0791 0.638672,-0.07617 0.94043,-0.181641 0.0029,-0.108398 0.0029,-0.137695 0,-0.322266 -0.149414,-0.454101 -0.202148,-0.178711 -0.600586,-0.178711 -0.37207,0 -0.550781,0.131836 -0.175781,0.128906 -0.260742,0.45996 l -0.515625,-0.07031 q 0.07031,-0.331055 0.231445,-0.533203 0.161133,-0.205078 0.46582,-0.313477 0.304688,-0.111328 0.706055,-0.111328 0.398438,0 0.647461,0.09375 0.249024,0.09375 0.366211,0.237305 0.117188,0.140625 0.164063,0.357422 0.02637,0.134765 0.02637,0.486328 v 0.703125 q 0,0.735351 0.03223,0.93164 0.03516,0.19336 0.134766,0.372071 h -0.550781 q -0.08203,-0.164063 -0.105469,-0.383789 z m -0.04394,-1.177735 q -0.28711,0.117188 -0.861329,0.199219 -0.325195,0.04687 -0.45996,0.105469 -0.134766,0.05859 -0.208008,0.172851 -0.07324,0.111329 -0.07324,0.249024 0,0.210937 0.158203,0.351562 0.161132,0.140625 0.46875,0.140625 0.304687,0 0.541992,-0.131836 0.237305,-0.134765 0.348633,-0.366211 0.08496,-0.17871 0.08496,-0.527343 z"
               style="font-style:normal;font-variant:normal;font-weight:normal;font-stretch:normal;font-size:6px;font-family:Arial;-inkscape-font-specification:'Arial, Normal';font-variant-ligatures:normal;font-variant-caps:normal;font-variant-numeric:normal;font-variant-east-asian:normal;fill:#000000;fill-opacity:1;stroke-width:0.1;stroke-miterlimit:4;stroke-dasharray:none"
               id="path1308" />
            <path
               d="m 95.125359,42.555702 q -0.328125,-0.120117 -0.486329,-0.342773 -0.158203,-0.222656 -0.158203,-0.533203 0,-0.46875 0.336914,-0.788086 0.336914,-0.319336 0.896485,-0.319336 0.5625,0 0.905273,0.328125 0.342774,0.325195 0.342774,0.793945 0,0.298828 -0.158203,0.521484 -0.155274,0.219727 -0.47461,0.339844 0.395508,0.128906 0.600586,0.416016 0.208008,0.287109 0.208008,0.685547 0,0.550781 -0.389649,0.925781 -0.389648,0.375 -1.02539,0.375 -0.635742,0 -1.025391,-0.375 -0.389648,-0.37793 -0.389648,-0.94043 0,-0.418945 0.210937,-0.700195 0.213867,-0.28418 0.606446,-0.386719 z M 95.01989,41.662148 q 0,0.304687 0.196289,0.498046 0.196289,0.19336 0.509766,0.19336 0.304687,0 0.498046,-0.19043 0.196289,-0.193359 0.196289,-0.47168 0,-0.290039 -0.202148,-0.486328 -0.199219,-0.199218 -0.498047,-0.199218 -0.301758,0 -0.500976,0.193359 -0.199219,0.193359 -0.199219,0.462891 z m -0.169922,1.983398 q 0,0.225586 0.105469,0.436523 0.108398,0.210938 0.319336,0.328125 0.210937,0.114258 0.454101,0.114258 0.37793,0 0.624024,-0.243164 0.246093,-0.243164 0.246093,-0.618164 0,-0.380859 -0.254882,-0.629883 -0.251954,-0.249023 -0.632813,-0.249023 -0.37207,0 -0.618164,0.246094 -0.243164,0.246093 -0.243164,0.615234 z"
               style="font-style:normal;font-variant:normal;font-weight:normal;font-stretch:normal;font-size:6px;font-family:Arial;-inkscape-font-specification:'Arial, Normal';font-variant-ligatures:normal;font-variant-caps:normal;font-variant-numeric:normal;font-variant-east-asian:normal;fill:#000000;fill-opacity:1;stroke-width:0.1;stroke-miterlimit:4;stroke-dasharray:none"
               id="path1310" />
          </g>
          <g
             aria-label="a4"
             id="text1111-9"
             style="font-style:normal;font-variant:normal;font-weight:normal;font-stretch:normal;font-size:6.00001px;line-height:1.25;font-family:Arial;-inkscape-font-specification:'Arial, Normal';font-variant-ligatures:normal;font-variant-caps:normal;font-variant-numeric:normal;font-variant-east-asian:normal;text-align:center;writing-mode:lr-tb;text-anchor:middle;fill:#000000;fill-opacity:1;stroke:#000000;stroke-width:0.1;stroke-linecap:round;stroke-linejoin:round;stroke-miterlimit:4;stroke-dasharray:none;stroke-opacity:0.870588">
            <path
               d="m 121.34495,44.503944 q -0.29297,0.249024 -0.56543,0.351563 -0.26954,0.102539 -0.58008,0.102539 -0.5127,0 -0.78809,-0.249024 -0.27539,-0.251953 -0.27539,-0.641602 0,-0.228516 0.10254,-0.416017 0.10547,-0.19043 0.27246,-0.304688 0.16992,-0.114258 0.38086,-0.172852 0.15527,-0.04101 0.46875,-0.0791 0.63867,-0.07617 0.94043,-0.181641 0.003,-0.108399 0.003,-0.137696 0,-0.322266 -0.14941,-0.454102 -0.20215,-0.178711 -0.60059,-0.178711 -0.37207,0 -0.55078,0.131836 -0.17578,0.128906 -0.26075,0.459962 l -0.51562,-0.07031 q 0.0703,-0.331055 0.23144,-0.533204 0.16114,-0.205079 0.46583,-0.313477 0.30468,-0.111328 0.70605,-0.111328 0.39844,0 0.64746,0.09375 0.24903,0.09375 0.36621,0.237305 0.11719,0.140625 0.16407,0.357422 0.0264,0.134766 0.0264,0.486329 v 0.703126 q 0,0.735353 0.0322,0.931643 0.0352,0.193359 0.13477,0.37207 h -0.55078 q -0.082,-0.164062 -0.10547,-0.383789 z m -0.0439,-1.177737 q -0.28711,0.117188 -0.86133,0.199219 -0.32519,0.04688 -0.45996,0.105469 -0.13477,0.05859 -0.20801,0.172852 -0.0732,0.111329 -0.0732,0.249024 0,0.210938 0.1582,0.351563 0.16114,0.140625 0.46875,0.140625 0.30469,0 0.542,-0.131836 0.2373,-0.134766 0.34863,-0.366211 0.085,-0.178711 0.085,-0.527345 z"
               id="path1313" />
            <path
               d="m 124.19554,44.887733 v -1.028322 h -1.86329 v -0.483399 l 1.95997,-2.783208 h 0.43066 v 2.783208 h 0.58008 v 0.483399 h -0.58008 v 1.028322 z m 0,-1.511721 v -1.936526 l -1.34473,1.936526 z"
               id="path1315" />
          </g>
          <g
             aria-label="a2"
             id="text1111-5"
             style="font-style:normal;font-variant:normal;font-weight:normal;font-stretch:normal;font-size:6.00001px;line-height:1.25;font-family:Arial;-inkscape-font-specification:'Arial, Normal';font-variant-ligatures:normal;font-variant-caps:normal;font-variant-numeric:normal;font-variant-east-asian:normal;text-align:center;writing-mode:lr-tb;text-anchor:middle;fill:#000000;fill-opacity:1;stroke:#000000;stroke-width:0.1;stroke-linecap:round;stroke-linejoin:round;stroke-miterlimit:4;stroke-dasharray:none;stroke-opacity:0.870588">
            <path
               d="m 149.53621,44.503944 q -0.29297,0.249024 -0.56543,0.351563 -0.26953,0.102539 -0.58008,0.102539 -0.5127,0 -0.78809,-0.249024 -0.27539,-0.251953 -0.27539,-0.641602 0,-0.228516 0.10254,-0.416017 0.10547,-0.19043 0.27246,-0.304688 0.16992,-0.114258 0.38086,-0.172852 0.15527,-0.04101 0.46875,-0.0791 0.63867,-0.07617 0.94043,-0.181641 0.003,-0.108399 0.003,-0.137696 0,-0.322266 -0.14941,-0.454102 -0.20215,-0.178711 -0.60059,-0.178711 -0.37207,0 -0.55078,0.131836 -0.17578,0.128906 -0.26074,0.459962 l -0.51563,-0.07031 q 0.0703,-0.331055 0.23145,-0.533204 0.16113,-0.205079 0.46582,-0.313477 0.30468,-0.111328 0.70605,-0.111328 0.39844,0 0.64746,0.09375 0.24903,0.09375 0.36622,0.237305 0.11718,0.140625 0.16406,0.357422 0.0264,0.134766 0.0264,0.486329 v 0.703126 q 0,0.735353 0.0322,0.931643 0.0352,0.193359 0.13477,0.37207 h -0.55078 q -0.082,-0.164062 -0.10547,-0.383789 z m -0.044,-1.177737 q -0.28711,0.117188 -0.86133,0.199219 -0.32519,0.04688 -0.45996,0.105469 -0.13476,0.05859 -0.20801,0.172852 -0.0732,0.111329 -0.0732,0.249024 0,0.210938 0.1582,0.351563 0.16114,0.140625 0.46875,0.140625 0.30469,0 0.542,-0.131836 0.2373,-0.134766 0.34863,-0.366211 0.085,-0.178711 0.085,-0.527345 z"
               id="path1318" />
            <path
               d="m 153.46785,44.380897 v 0.506836 h -2.83887 q -0.006,-0.19043 0.0615,-0.366211 0.10839,-0.29004 0.3457,-0.57129 0.24023,-0.281251 0.69141,-0.650392 0.70019,-0.57422 0.94629,-0.908204 0.24609,-0.336915 0.24609,-0.635744 0,-0.313477 -0.22558,-0.527344 -0.22266,-0.216798 -0.58301,-0.216798 -0.38086,0 -0.60938,0.228516 -0.22851,0.228516 -0.23144,0.632814 l -0.542,-0.05566 q 0.0557,-0.606446 0.41895,-0.922853 0.36328,-0.319337 0.97559,-0.319337 0.61816,0 0.97851,0.342774 0.36036,0.342774 0.36036,0.849611 0,0.257813 -0.10547,0.506837 -0.10547,0.249024 -0.35157,0.524415 -0.24316,0.275391 -0.81152,0.75586 -0.47461,0.398439 -0.60938,0.541994 -0.13476,0.140625 -0.22265,0.28418 z"
               id="path1320" />
          </g>
          <g
             aria-label="a1"
             id="text1111-4"
             style="font-style:normal;font-variant:normal;font-weight:normal;font-stretch:normal;font-size:6.00001px;line-height:1.25;font-family:Arial;-inkscape-font-specification:'Arial, Normal';font-variant-ligatures:normal;font-variant-caps:normal;font-variant-numeric:normal;font-variant-east-asian:normal;text-align:center;writing-mode:lr-tb;text-anchor:middle;fill:#000000;fill-opacity:1;stroke:#000000;stroke-width:0.1;stroke-linecap:round;stroke-linejoin:round;stroke-miterlimit:4;stroke-dasharray:none;stroke-opacity:0.870588">
            <path
               d="m 178.10689,44.503944 q -0.29297,0.249024 -0.56543,0.351563 -0.26954,0.102539 -0.58008,0.102539 -0.5127,0 -0.78809,-0.249024 -0.27539,-0.251953 -0.27539,-0.641602 0,-0.228516 0.10254,-0.416017 0.10547,-0.19043 0.27246,-0.304688 0.16992,-0.114258 0.38086,-0.172852 0.15527,-0.04101 0.46875,-0.0791 0.63867,-0.07617 0.94043,-0.181641 0.003,-0.108399 0.003,-0.137696 0,-0.322266 -0.14941,-0.454102 -0.20215,-0.178711 -0.60059,-0.178711 -0.37207,0 -0.55078,0.131836 -0.17578,0.128906 -0.26075,0.459962 l -0.51562,-0.07031 q 0.0703,-0.331055 0.23144,-0.533204 0.16114,-0.205079 0.46583,-0.313477 0.30468,-0.111328 0.70605,-0.111328 0.39844,0 0.64746,0.09375 0.24903,0.09375 0.36621,0.237305 0.11719,0.140625 0.16407,0.357422 0.0264,0.134766 0.0264,0.486329 v 0.703126 q 0,0.735353 0.0322,0.931643 0.0352,0.193359 0.13477,0.37207 h -0.55078 q -0.082,-0.164062 -0.10547,-0.383789 z m -0.0439,-1.177737 q -0.28711,0.117188 -0.86133,0.199219 -0.32519,0.04688 -0.45996,0.105469 -0.13477,0.05859 -0.20801,0.172852 -0.0732,0.111329 -0.0732,0.249024 0,0.210938 0.1582,0.351563 0.16114,0.140625 0.46875,0.140625 0.30469,0 0.542,-0.131836 0.2373,-0.134766 0.34863,-0.366211 0.085,-0.178711 0.085,-0.527345 z"
               id="path1323" />
            <path
               d="m 181.25338,44.887733 h -0.52735 v -3.360357 q -0.19043,0.181641 -0.50098,0.363282 -0.30761,0.181641 -0.55371,0.272462 v -0.509767 q 0.44239,-0.208008 0.77344,-0.503907 0.33106,-0.295899 0.46875,-0.57422 h 0.33985 z"
               id="path1325" />
          </g>
        </g>
      </g>
      <g
         id="g1015"
         transform="translate(0.64427948,-3.8656769)">
        <g
           id="g1009"
           transform="translate(-3.3217954,21.290646)">
          <ellipse
             style="fill:none;stroke:#000000;stroke-width:0.0918463;stroke-linecap:round;stroke-linejoin:round;stroke-miterlimit:4;stroke-dasharray:none;stroke-opacity:0.870588"
             id="path909"
             cx="97.074753"
             cy="54.249474"
             rx="1.4540768"
             ry="1.4540769" />
          <ellipse
             style="fill:none;stroke:#000000;stroke-width:0.0918464;stroke-linecap:round;stroke-linejoin:round;stroke-miterlimit:4;stroke-dasharray:none;stroke-opacity:0.870588"
             id="path909-6"
             cx="181.51779"
             cy="54.249474"
             rx="1.4540768"
             ry="1.4540769" />
          <ellipse
             style="fill:none;stroke:#000000;stroke-width:0.0918464;stroke-linecap:round;stroke-linejoin:round;stroke-miterlimit:4;stroke-dasharray:none;stroke-opacity:0.870588"
             id="path909-9"
             cx="153.37012"
             cy="54.249474"
             rx="1.4540768"
             ry="1.4540769" />
          <ellipse
             style="fill:none;stroke:#000000;stroke-width:0.0918464;stroke-linecap:round;stroke-linejoin:round;stroke-miterlimit:4;stroke-dasharray:none;stroke-opacity:0.870588"
             id="path909-0"
             cx="125.22244"
             cy="54.249474"
             rx="1.4540768"
             ry="1.4540769" />
        </g>
        <g
           id="g1374"
           transform="translate(0,4.2621979)">
          <g
             aria-label="b8"
             id="text1111-8"
             style="font-style:normal;font-variant:normal;font-weight:normal;font-stretch:normal;font-size:6.00001px;line-height:1.25;font-family:Arial;-inkscape-font-specification:'Arial, Normal';font-variant-ligatures:normal;font-variant-caps:normal;font-variant-numeric:normal;font-variant-east-asian:normal;text-align:center;writing-mode:lr-tb;text-anchor:middle;fill:#000000;fill-opacity:1;stroke:#000000;stroke-width:0.1;stroke-linecap:round;stroke-linejoin:round;stroke-miterlimit:4;stroke-dasharray:none;stroke-opacity:0.870588">
            <path
               d="m 92.097957,65.259026 h -0.489258 v -4.294929 h 0.527344 v 1.532229 q 0.333985,-0.418946 0.852541,-0.418946 0.28711,0 0.541993,0.117187 0.257813,0.114258 0.421876,0.325196 0.166992,0.208008 0.260742,0.503907 0.09375,0.295899 0.09375,0.632814 0,0.799806 -0.395508,1.23633 -0.395509,0.436524 -0.94922,0.436524 -0.550783,0 -0.86426,-0.459962 z m -0.0059,-1.579105 q 0,0.559572 0.152344,0.808595 0.249024,0.407228 0.673829,0.407228 0.345704,0 0.597657,-0.298829 0.251954,-0.301758 0.251954,-0.896486 0,-0.609376 -0.243164,-0.899415 -0.240235,-0.29004 -0.583009,-0.29004 -0.345704,0 -0.597658,0.301758 -0.251953,0.298829 -0.251953,0.867189 z"
               id="path1342" />
            <path
               d="m 95.613588,62.92992 q -0.328125,-0.120117 -0.486329,-0.342774 -0.158203,-0.222657 -0.158203,-0.533204 0,-0.468751 0.336914,-0.788087 0.336915,-0.319337 0.896486,-0.319337 0.562501,0 0.905275,0.328126 0.342774,0.325196 0.342774,0.793947 0,0.298828 -0.158203,0.521485 -0.155274,0.219727 -0.47461,0.339844 0.395508,0.128907 0.600587,0.416016 0.208008,0.28711 0.208008,0.685548 0,0.550783 -0.389649,0.925783 -0.389649,0.375001 -1.025393,0.375001 -0.635743,0 -1.025392,-0.375001 -0.389649,-0.37793 -0.389649,-0.940431 0,-0.418946 0.210938,-0.700196 0.213867,-0.284181 0.606446,-0.38672 z m -0.105469,-0.893556 q 0,0.304688 0.19629,0.498048 0.196289,0.193359 0.509766,0.193359 0.304688,0 0.498048,-0.19043 0.196289,-0.193359 0.196289,-0.47168 0,-0.29004 -0.202149,-0.486329 -0.199219,-0.199219 -0.498047,-0.199219 -0.301759,0 -0.500978,0.19336 -0.199219,0.193359 -0.199219,0.462891 z m -0.169922,1.983402 q 0,0.225586 0.105469,0.436524 0.108399,0.210938 0.319336,0.328125 0.210938,0.114258 0.454103,0.114258 0.37793,0 0.624024,-0.243164 0.246094,-0.243165 0.246094,-0.618165 0,-0.38086 -0.254883,-0.629884 -0.251953,-0.249024 -0.632813,-0.249024 -0.372071,0 -0.618166,0.246094 -0.243164,0.246094 -0.243164,0.615236 z"
               id="path1344" />
          </g>
          <g
             aria-label="b4"
             id="text1111-9-1"
             style="font-style:normal;font-variant:normal;font-weight:normal;font-stretch:normal;font-size:6.00001px;line-height:1.25;font-family:Arial;-inkscape-font-specification:'Arial, Normal';font-variant-ligatures:normal;font-variant-caps:normal;font-variant-numeric:normal;font-variant-east-asian:normal;text-align:center;writing-mode:lr-tb;text-anchor:middle;fill:#000000;fill-opacity:1;stroke:#000000;stroke-width:0.1;stroke-linecap:round;stroke-linejoin:round;stroke-miterlimit:4;stroke-dasharray:none;stroke-opacity:0.870588">
            <path
               d="m 120.28923,65.261955 h -0.48926 v -4.294929 h 0.52734 v 1.532229 q 0.33399,-0.418946 0.85254,-0.418946 0.28711,0 0.542,0.117188 0.25781,0.114258 0.42187,0.325196 0.16699,0.208008 0.26074,0.503907 0.0937,0.295899 0.0937,0.632814 0,0.799806 -0.3955,1.23633 -0.39551,0.436524 -0.94922,0.436524 -0.55079,0 -0.86426,-0.459962 z m -0.006,-1.579104 q 0,0.559571 0.15234,0.808595 0.24902,0.407227 0.67383,0.407227 0.3457,0 0.59766,-0.298828 0.25195,-0.301759 0.25195,-0.896486 0,-0.609376 -0.24316,-0.899416 -0.24024,-0.290039 -0.58301,-0.290039 -0.34571,0 -0.59766,0.301758 -0.25195,0.298829 -0.25195,0.867189 z"
               id="path1347" />
            <path
               d="m 124.68376,65.261955 v -1.028322 h -1.86328 v -0.483399 l 1.95996,-2.783208 h 0.43067 v 2.783208 h 0.58008 v 0.483399 h -0.58008 v 1.028322 z m 0,-1.511721 v -1.936527 l -1.34472,1.936527 z"
               id="path1349" />
          </g>
          <g
             aria-label="b2"
             id="text1111-5-9"
             style="font-style:normal;font-variant:normal;font-weight:normal;font-stretch:normal;font-size:6.00001px;line-height:1.25;font-family:Arial;-inkscape-font-specification:'Arial, Normal';font-variant-ligatures:normal;font-variant-caps:normal;font-variant-numeric:normal;font-variant-east-asian:normal;text-align:center;writing-mode:lr-tb;text-anchor:middle;fill:#000000;fill-opacity:1;stroke:#000000;stroke-width:0.1;stroke-linecap:round;stroke-linejoin:round;stroke-miterlimit:4;stroke-dasharray:none;stroke-opacity:0.870588">
            <path
               d="m 148.48048,65.261955 h -0.48926 v -4.294929 h 0.52735 v 1.532229 q 0.33398,-0.418946 0.85254,-0.418946 0.28711,0 0.54199,0.117188 0.25781,0.114258 0.42188,0.325196 0.16699,0.208008 0.26074,0.503907 0.0937,0.295899 0.0937,0.632814 0,0.799806 -0.39551,1.23633 -0.39551,0.436524 -0.94922,0.436524 -0.55078,0 -0.86426,-0.459962 z m -0.006,-1.579104 q 0,0.559571 0.15234,0.808595 0.24903,0.407227 0.67383,0.407227 0.34571,0 0.59766,-0.298828 0.25195,-0.301759 0.25195,-0.896486 0,-0.609376 -0.24316,-0.899416 -0.24023,-0.290039 -0.58301,-0.290039 -0.3457,0 -0.59766,0.301758 -0.25195,0.298829 -0.25195,0.867189 z"
               id="path1352" />
            <path
               d="m 153.95607,64.755118 v 0.506837 h -2.83887 q -0.006,-0.19043 0.0615,-0.366211 0.1084,-0.29004 0.3457,-0.57129 0.24023,-0.281251 0.69141,-0.650392 0.70019,-0.57422 0.94629,-0.908205 0.24609,-0.336914 0.24609,-0.635743 0,-0.313477 -0.22558,-0.527345 -0.22266,-0.216797 -0.58301,-0.216797 -0.38086,0 -0.60938,0.228516 -0.22851,0.228516 -0.23144,0.632814 l -0.542,-0.05566 q 0.0557,-0.606447 0.41895,-0.922853 0.36328,-0.319337 0.97559,-0.319337 0.61816,0 0.97851,0.342774 0.36036,0.342774 0.36036,0.849611 0,0.257813 -0.10547,0.506837 -0.10547,0.249024 -0.35157,0.524415 -0.24316,0.275391 -0.81152,0.75586 -0.47461,0.398438 -0.60938,0.541993 -0.13476,0.140626 -0.22265,0.28418 z"
               id="path1354" />
          </g>
          <g
             aria-label="b1"
             id="text1111-4-3"
             style="font-style:normal;font-variant:normal;font-weight:normal;font-stretch:normal;font-size:6.00001px;line-height:1.25;font-family:Arial;-inkscape-font-specification:'Arial, Normal';font-variant-ligatures:normal;font-variant-caps:normal;font-variant-numeric:normal;font-variant-east-asian:normal;text-align:center;writing-mode:lr-tb;text-anchor:middle;fill:#000000;fill-opacity:1;stroke:#000000;stroke-width:0.1;stroke-linecap:round;stroke-linejoin:round;stroke-miterlimit:4;stroke-dasharray:none;stroke-opacity:0.870588">
            <path
               d="m 177.05116,65.261955 h -0.48926 v -4.294929 h 0.52734 v 1.532229 q 0.33399,-0.418946 0.85255,-0.418946 0.2871,0 0.54199,0.117188 0.25781,0.114258 0.42187,0.325196 0.167,0.208008 0.26075,0.503907 0.0937,0.295899 0.0937,0.632814 0,0.799806 -0.39551,1.23633 -0.39551,0.436524 -0.94922,0.436524 -0.55078,0 -0.86426,-0.459962 z m -0.006,-1.579104 q 0,0.559571 0.15234,0.808595 0.24903,0.407227 0.67383,0.407227 0.34571,0 0.59766,-0.298828 0.25195,-0.301759 0.25195,-0.896486 0,-0.609376 -0.24316,-0.899416 -0.24024,-0.290039 -0.58301,-0.290039 -0.3457,0 -0.59766,0.301758 -0.25195,0.298829 -0.25195,0.867189 z"
               id="path1357" />
            <path
               d="m 181.7416,65.261955 h -0.52735 v -3.360357 q -0.19043,0.181641 -0.50098,0.363282 -0.30761,0.181641 -0.55371,0.272461 v -0.509766 q 0.44239,-0.208008 0.77344,-0.503907 0.33106,-0.295899 0.46875,-0.57422 h 0.33985 z"
               id="path1359" />
          </g>
        </g>
      </g>
      <g
         id="g1060"
         transform="translate(0.64427948,4.939476)">
        <g
           id="g1003"
           transform="translate(-32.003528,-2.3566246)">
          <ellipse
             style="fill:none;stroke:#000000;stroke-width:0.0918464;stroke-linecap:round;stroke-linejoin:round;stroke-miterlimit:4;stroke-dasharray:none;stroke-opacity:0.870588"
             id="path909-1"
             cx="97.774696"
             cy="35.41898"
             rx="1.4540768"
             ry="1.4540769" />
          <ellipse
             style="fill:none;stroke:#000000;stroke-width:0.0918464;stroke-linecap:round;stroke-linejoin:round;stroke-miterlimit:4;stroke-dasharray:none;stroke-opacity:0.870588"
             id="path909-2"
             cx="125.8809"
             cy="35.41898"
             rx="1.4540768"
             ry="1.4540769" />
          <ellipse
             style="fill:none;stroke:#000000;stroke-width:0.0918464;stroke-linecap:round;stroke-linejoin:round;stroke-miterlimit:4;stroke-dasharray:none;stroke-opacity:0.870588"
             id="path909-6-2"
             cx="210.19952"
             cy="35.41898"
             rx="1.4540768"
             ry="1.4540769" />
          <ellipse
             style="fill:none;stroke:#000000;stroke-width:0.0918464;stroke-linecap:round;stroke-linejoin:round;stroke-miterlimit:4;stroke-dasharray:none;stroke-opacity:0.870588"
             id="path909-9-7"
             cx="182.09331"
             cy="35.41898"
             rx="1.4540768"
             ry="1.4540769" />
          <ellipse
             style="fill:none;stroke:#000000;stroke-width:0.0918464;stroke-linecap:round;stroke-linejoin:round;stroke-miterlimit:4;stroke-dasharray:none;stroke-opacity:0.870588"
             id="path909-0-4"
             cx="153.98712"
             cy="35.41898"
             rx="1.4540768"
             ry="1.4540769" />
        </g>
        <g
           id="g1306"
           transform="translate(0.74128,4.2621979)">
          <g
             aria-label="S8"
             id="text1111-0"
             style="font-style:normal;font-variant:normal;font-weight:normal;font-stretch:normal;font-size:6.00001px;line-height:1.25;font-family:Arial;-inkscape-font-specification:'Arial, Normal';font-variant-ligatures:normal;font-variant-caps:normal;font-variant-numeric:normal;font-variant-east-asian:normal;text-align:center;writing-mode:lr-tb;text-anchor:middle;fill:#000000;fill-opacity:1;stroke:#000000;stroke-width:0.1;stroke-linecap:round;stroke-linejoin:round;stroke-miterlimit:4;stroke-dasharray:none;stroke-opacity:0.870588">
            <path
               d="m 90.079332,22.243562 0.536134,-0.04687 q 0.03809,0.322266 0.175782,0.530275 0.140625,0.205078 0.433594,0.333984 0.292969,0.125977 0.659181,0.125977 0.325196,0 0.57422,-0.09668 0.249023,-0.09668 0.369141,-0.263672 0.123047,-0.169922 0.123047,-0.369141 0,-0.202149 -0.117188,-0.351563 -0.117187,-0.152344 -0.386719,-0.254883 -0.172852,-0.06738 -0.76465,-0.208009 -0.591798,-0.143555 -0.829103,-0.269531 -0.307618,-0.161133 -0.459962,-0.398439 -0.149414,-0.240234 -0.149414,-0.536133 0,-0.325196 0.184571,-0.606447 0.18457,-0.28418 0.539063,-0.430664 0.354493,-0.146485 0.788087,-0.146485 0.47754,0 0.840822,0.155274 0.366212,0.152344 0.562501,0.451172 0.196289,0.298829 0.210938,0.676759 l -0.544923,0.04102 q -0.04395,-0.407227 -0.298828,-0.615235 -0.251954,-0.208009 -0.747072,-0.208009 -0.515626,0 -0.752931,0.19043 -0.234375,0.187501 -0.234375,0.454103 0,0.231445 0.166992,0.38086 0.164063,0.149414 0.85547,0.307618 0.694337,0.155273 0.95215,0.272461 0.375001,0.172852 0.553712,0.439454 0.178711,0.263672 0.178711,0.609376 0,0.342774 -0.196289,0.647462 -0.196289,0.301758 -0.565431,0.47168 -0.366211,0.166993 -0.826173,0.166993 -0.583009,0 -0.978517,-0.169922 -0.392579,-0.169923 -0.618165,-0.509767 -0.222657,-0.342774 -0.234376,-0.773439 z"
               id="path1263" />
            <path
               d="m 94.872309,21.294342 q -0.328125,-0.120117 -0.486329,-0.342774 -0.158203,-0.222657 -0.158203,-0.533204 0,-0.468751 0.336914,-0.788087 0.336915,-0.319337 0.896486,-0.319337 0.562501,0 0.905275,0.328126 0.342774,0.325196 0.342774,0.793946 0,0.298829 -0.158203,0.521486 -0.155274,0.219727 -0.47461,0.339844 0.395508,0.128906 0.600587,0.416016 0.208008,0.28711 0.208008,0.685548 0,0.550782 -0.389649,0.925783 -0.389649,0.375001 -1.025393,0.375001 -0.635743,0 -1.025392,-0.375001 -0.389649,-0.37793 -0.389649,-0.940431 0,-0.418946 0.210938,-0.700197 0.213867,-0.28418 0.606446,-0.386719 z M 94.76684,20.400786 q 0,0.304688 0.19629,0.498047 0.196289,0.19336 0.509766,0.19336 0.304688,0 0.498048,-0.19043 0.196289,-0.19336 0.196289,-0.47168 0,-0.29004 -0.202149,-0.486329 -0.199219,-0.199219 -0.498047,-0.199219 -0.301759,0 -0.500978,0.193359 -0.199219,0.19336 -0.199219,0.462892 z m -0.169922,1.983402 q 0,0.225586 0.105469,0.436524 0.108399,0.210938 0.319336,0.328125 0.210938,0.114258 0.454103,0.114258 0.37793,0 0.624024,-0.243164 0.246094,-0.243165 0.246094,-0.618165 0,-0.38086 -0.254883,-0.629884 -0.251953,-0.249024 -0.632813,-0.249024 -0.372071,0 -0.618165,0.246094 -0.243165,0.246094 -0.243165,0.615236 z"
               id="path1265" />
          </g>
          <g
             aria-label="S4"
             id="text1111-9-4"
             style="font-style:normal;font-variant:normal;font-weight:normal;font-stretch:normal;font-size:6.00001px;line-height:1.25;font-family:Arial;-inkscape-font-specification:'Arial, Normal';font-variant-ligatures:normal;font-variant-caps:normal;font-variant-numeric:normal;font-variant-east-asian:normal;text-align:center;writing-mode:lr-tb;text-anchor:middle;fill:#000000;fill-opacity:1;stroke:#000000;stroke-width:0.1;stroke-linecap:round;stroke-linejoin:round;stroke-miterlimit:4;stroke-dasharray:none;stroke-opacity:0.870588">
            <path
               d="m 118.2706,22.243562 0.53614,-0.04687 q 0.0381,0.322266 0.17578,0.530275 0.14062,0.205078 0.43359,0.333984 0.29297,0.125977 0.65918,0.125977 0.3252,0 0.57422,-0.09668 0.24903,-0.09668 0.36914,-0.263672 0.12305,-0.169922 0.12305,-0.369141 0,-0.202149 -0.11719,-0.351563 -0.11719,-0.152344 -0.38672,-0.254883 -0.17285,-0.06738 -0.76465,-0.208009 -0.59179,-0.143555 -0.8291,-0.269531 -0.30762,-0.161133 -0.45996,-0.398439 -0.14942,-0.240234 -0.14942,-0.536133 0,-0.325196 0.18457,-0.606447 0.18458,-0.28418 0.53907,-0.430664 0.35449,-0.146485 0.78809,-0.146485 0.47754,0 0.84082,0.155274 0.36621,0.152344 0.5625,0.451172 0.19629,0.298829 0.21094,0.676759 l -0.54493,0.04102 q -0.0439,-0.407227 -0.29883,-0.615235 -0.25195,-0.208009 -0.74707,-0.208009 -0.51562,0 -0.75293,0.19043 -0.23437,0.187501 -0.23437,0.454103 0,0.231445 0.16699,0.38086 0.16406,0.149414 0.85547,0.307618 0.69434,0.155273 0.95215,0.272461 0.375,0.172852 0.55371,0.439454 0.17871,0.263672 0.17871,0.609376 0,0.342774 -0.19629,0.647462 -0.19629,0.301758 -0.56543,0.47168 -0.36621,0.166993 -0.82617,0.166993 -0.58301,0 -0.97852,-0.169922 -0.39258,-0.169923 -0.61816,-0.509767 -0.22266,-0.342774 -0.23438,-0.773439 z"
               id="path1268" />
            <path
               d="m 123.94249,23.623447 v -1.028322 h -1.86329 v -0.483399 l 1.95997,-2.783208 h 0.43066 v 2.783208 h 0.58008 v 0.483399 h -0.58008 v 1.028322 z m 0,-1.511721 v -1.936527 l -1.34473,1.936527 z"
               id="path1270" />
          </g>
          <g
             aria-label="S2"
             id="text1111-5-8"
             style="font-style:normal;font-variant:normal;font-weight:normal;font-stretch:normal;font-size:6.00001px;line-height:1.25;font-family:Arial;-inkscape-font-specification:'Arial, Normal';font-variant-ligatures:normal;font-variant-caps:normal;font-variant-numeric:normal;font-variant-east-asian:normal;text-align:center;writing-mode:lr-tb;text-anchor:middle;fill:#000000;fill-opacity:1;stroke:#000000;stroke-width:0.1;stroke-linecap:round;stroke-linejoin:round;stroke-miterlimit:4;stroke-dasharray:none;stroke-opacity:0.870588">
            <path
               d="m 146.46185,22.243562 0.53613,-0.04687 q 0.0381,0.322266 0.17578,0.530275 0.14063,0.205078 0.4336,0.333984 0.29297,0.125977 0.65918,0.125977 0.32519,0 0.57422,-0.09668 0.24902,-0.09668 0.36914,-0.263672 0.12305,-0.169922 0.12305,-0.369141 0,-0.202149 -0.11719,-0.351563 -0.11719,-0.152344 -0.38672,-0.254883 -0.17285,-0.06738 -0.76465,-0.208009 -0.5918,-0.143555 -0.8291,-0.269531 -0.30762,-0.161133 -0.45997,-0.398439 -0.14941,-0.240234 -0.14941,-0.536133 0,-0.325196 0.18457,-0.606447 0.18457,-0.28418 0.53906,-0.430664 0.3545,-0.146485 0.78809,-0.146485 0.47754,0 0.84082,0.155274 0.36621,0.152344 0.5625,0.451172 0.19629,0.298829 0.21094,0.676759 l -0.54492,0.04102 q -0.044,-0.407227 -0.29883,-0.615235 -0.25195,-0.208009 -0.74707,-0.208009 -0.51563,0 -0.75293,0.19043 -0.23438,0.187501 -0.23438,0.454103 0,0.231445 0.167,0.38086 0.16406,0.149414 0.85547,0.307618 0.69433,0.155273 0.95215,0.272461 0.375,0.172852 0.55371,0.439454 0.17871,0.263672 0.17871,0.609376 0,0.342774 -0.19629,0.647462 -0.19629,0.301758 -0.56543,0.47168 -0.36621,0.166993 -0.82617,0.166993 -0.58301,0 -0.97852,-0.169922 -0.39258,-0.169923 -0.61817,-0.509767 -0.22265,-0.342774 -0.23437,-0.773439 z"
               id="path1273" />
            <path
               d="m 153.21479,23.116611 v 0.506836 h -2.83887 q -0.006,-0.19043 0.0615,-0.366211 0.1084,-0.29004 0.3457,-0.57129 0.24024,-0.281251 0.69141,-0.650392 0.7002,-0.57422 0.94629,-0.908204 0.2461,-0.336915 0.2461,-0.635744 0,-0.313477 -0.22559,-0.527344 -0.22266,-0.216798 -0.58301,-0.216798 -0.38086,0 -0.60938,0.228516 -0.22851,0.228516 -0.23144,0.632814 l -0.54199,-0.05566 q 0.0557,-0.606447 0.41894,-0.922853 0.36328,-0.319337 0.97559,-0.319337 0.61816,0 0.97852,0.342774 0.36035,0.342774 0.36035,0.849611 0,0.257813 -0.10547,0.506837 -0.10547,0.249024 -0.35156,0.524415 -0.24317,0.275391 -0.81153,0.75586 -0.47461,0.398439 -0.60937,0.541993 -0.13477,0.140626 -0.22266,0.284181 z"
               id="path1275" />
          </g>
          <g
             aria-label="S1"
             id="text1111-4-7"
             style="font-style:normal;font-variant:normal;font-weight:normal;font-stretch:normal;font-size:6.00001px;line-height:1.25;font-family:Arial;-inkscape-font-specification:'Arial, Normal';font-variant-ligatures:normal;font-variant-caps:normal;font-variant-numeric:normal;font-variant-east-asian:normal;text-align:center;writing-mode:lr-tb;text-anchor:middle;fill:#000000;fill-opacity:1;stroke:#000000;stroke-width:0.1;stroke-linecap:round;stroke-linejoin:round;stroke-miterlimit:4;stroke-dasharray:none;stroke-opacity:0.870588">
            <path
               d="m 175.03254,22.243562 0.53614,-0.04687 q 0.0381,0.322266 0.17578,0.530275 0.14062,0.205078 0.43359,0.333984 0.29297,0.125977 0.65918,0.125977 0.3252,0 0.57422,-0.09668 0.24903,-0.09668 0.36914,-0.263672 0.12305,-0.169922 0.12305,-0.369141 0,-0.202149 -0.11719,-0.351563 -0.11719,-0.152344 -0.38672,-0.254883 -0.17285,-0.06738 -0.76465,-0.208009 -0.59179,-0.143555 -0.8291,-0.269531 -0.30762,-0.161133 -0.45996,-0.398439 -0.14942,-0.240234 -0.14942,-0.536133 0,-0.325196 0.18457,-0.606447 0.18458,-0.28418 0.53907,-0.430664 0.35449,-0.146485 0.78809,-0.146485 0.47754,0 0.84082,0.155274 0.36621,0.152344 0.5625,0.451172 0.19629,0.298829 0.21094,0.676759 l -0.54493,0.04102 q -0.0439,-0.407227 -0.29883,-0.615235 -0.25195,-0.208009 -0.74707,-0.208009 -0.51562,0 -0.75293,0.19043 -0.23437,0.187501 -0.23437,0.454103 0,0.231445 0.16699,0.38086 0.16406,0.149414 0.85547,0.307618 0.69434,0.155273 0.95215,0.272461 0.375,0.172852 0.55371,0.439454 0.17871,0.263672 0.17871,0.609376 0,0.342774 -0.19629,0.647462 -0.19629,0.301758 -0.56543,0.47168 -0.36621,0.166993 -0.82617,0.166993 -0.58301,0 -0.97852,-0.169922 -0.39258,-0.169923 -0.61816,-0.509767 -0.22266,-0.342774 -0.23438,-0.773439 z"
               id="path1278" />
            <path
               d="m 181.00032,23.623447 h -0.52734 V 20.26309 q -0.19043,0.181641 -0.50098,0.363282 -0.30762,0.181641 -0.55371,0.272461 v -0.509766 q 0.44238,-0.208008 0.77344,-0.503907 0.33105,-0.295899 0.46875,-0.57422 h 0.33984 z"
               id="path1280" />
          </g>
          <g
             aria-label="S16"
             id="text1111-0-4"
             style="font-style:normal;font-variant:normal;font-weight:normal;font-stretch:normal;font-size:6.00001px;line-height:1.25;font-family:Arial;-inkscape-font-specification:'Arial, Normal';font-variant-ligatures:normal;font-variant-caps:normal;font-variant-numeric:normal;font-variant-east-asian:normal;text-align:center;writing-mode:lr-tb;text-anchor:middle;fill:#000000;fill-opacity:1;stroke:#000000;stroke-width:0.1;stroke-linecap:round;stroke-linejoin:round;stroke-miterlimit:4;stroke-dasharray:none;stroke-opacity:0.870588">
            <path
               d="m 59.985473,22.243562 0.536134,-0.04687 q 0.03809,0.322266 0.175781,0.530275 0.140625,0.205078 0.433595,0.333984 0.292969,0.125977 0.65918,0.125977 0.325196,0 0.57422,-0.09668 0.249024,-0.09668 0.369141,-0.263672 0.123047,-0.169922 0.123047,-0.369141 0,-0.202149 -0.117187,-0.351563 -0.117188,-0.152344 -0.38672,-0.254883 -0.172852,-0.06738 -0.764649,-0.208009 -0.591798,-0.143555 -0.829103,-0.269531 -0.307618,-0.161133 -0.459962,-0.398439 -0.149414,-0.240234 -0.149414,-0.536133 0,-0.325196 0.18457,-0.606447 0.184571,-0.28418 0.539064,-0.430664 0.354492,-0.146485 0.788087,-0.146485 0.47754,0 0.840822,0.155274 0.366211,0.152344 0.562501,0.451172 0.196289,0.298829 0.210937,0.676759 l -0.544922,0.04102 q -0.04395,-0.407227 -0.298829,-0.615235 -0.251954,-0.208009 -0.747072,-0.208009 -0.515625,0 -0.752931,0.19043 -0.234375,0.187501 -0.234375,0.454103 0,0.231445 0.166993,0.38086 0.164062,0.149414 0.85547,0.307618 0.694337,0.155273 0.95215,0.272461 0.375,0.172852 0.553712,0.439454 0.178711,0.263672 0.178711,0.609376 0,0.342774 -0.19629,0.647462 -0.196289,0.301758 -0.56543,0.47168 -0.366212,0.166993 -0.826173,0.166993 -0.583009,0 -0.978518,-0.169922 -0.392578,-0.169923 -0.618165,-0.509767 -0.222656,-0.342774 -0.234375,-0.773439 z"
               id="path1283" />
            <path
               d="M 65.953256,23.623447 H 65.425912 V 20.26309 q -0.19043,0.181641 -0.500978,0.363282 -0.307618,0.181641 -0.553712,0.272461 v -0.509766 q 0.442384,-0.208008 0.773439,-0.503907 0.331055,-0.295899 0.468751,-0.57422 h 0.339844 z"
               id="path1285" />
            <path
               d="m 70.040177,20.380278 -0.524415,0.04102 q -0.07031,-0.310548 -0.199219,-0.451173 -0.213867,-0.225586 -0.527344,-0.225586 -0.251954,0 -0.442384,0.140625 -0.249024,0.181641 -0.392579,0.530274 -0.143555,0.348634 -0.149414,0.993166 0.19043,-0.29004 0.465821,-0.430665 0.275391,-0.140625 0.577149,-0.140625 0.527345,0 0.896486,0.389649 0.372071,0.386719 0.372071,1.001955 0,0.404297 -0.175781,0.752931 -0.172852,0.345703 -0.47754,0.530274 -0.304688,0.184571 -0.691408,0.184571 -0.65918,0 -1.075197,-0.4834 -0.416016,-0.486328 -0.416016,-1.599612 0,-1.245119 0.459962,-1.810549 0.401368,-0.492189 1.081056,-0.492189 0.506837,0 0.829103,0.28418 0.325196,0.284181 0.389649,0.785158 z m -2.153324,1.851566 q 0,0.272461 0.114258,0.521485 0.117188,0.249024 0.325196,0.38086 0.208008,0.128906 0.436524,0.128906 0.333985,0 0.57422,-0.269531 0.240235,-0.269532 0.240235,-0.732424 0,-0.445313 -0.237305,-0.700196 -0.237305,-0.257813 -0.597657,-0.257813 -0.357423,0 -0.606447,0.257813 -0.249024,0.254883 -0.249024,0.6709 z"
               id="path1287" />
          </g>
        </g>
      </g>
    </g>
    <rect
       style="fill:none;stroke:#000000;stroke-width:0.376402;stroke-linecap:round;stroke-linejoin:round;stroke-miterlimit:4;stroke-dasharray:none;stroke-opacity:0.983914"
       id="rect904-3"
       width="139.6236"
       height="59.6236"
       x="49.91227"
       y="19.995056"
       rx="9.6060495e-14"
       ry="7.9478816e-14" />
    <text
       xml:space="preserve"
       style="font-size:3px;line-height:1.25;font-family:Arial;-inkscape-font-specification:'Arial, Normal';text-align:center;writing-mode:lr-tb;text-anchor:middle;fill:#000000;fill-opacity:1;stroke:none;stroke-width:0.499999;stroke-linecap:round;stroke-linejoin:round;stroke-miterlimit:4;stroke-dasharray:none;stroke-opacity:0.983914"
       x="129.50018"
       y="105.23232"
       id="text1128"><tspan
         sodipodi:role="line"
         id="tspan1126"
         x="129.50018"
         y="105.23232"
         style="fill:#000000;fill-opacity:1;stroke:none;stroke-width:0.5;stroke-opacity:0.983914">Gehäuse: https://www.ebay.de/itm/Elektrische-Gehause-Kunststoffgehause-Weis-Schwarz-Leergehause-ABS-Box-Bahar-IP/323935298652?hash=item4b6c0c645c:g:2q4AAOSwENZdlILw</tspan></text>
    <text
       xml:space="preserve"
       style="font-style:normal;font-variant:normal;font-weight:normal;font-stretch:normal;font-size:3px;line-height:1.25;font-family:Arial;-inkscape-font-specification:'Arial, Normal';font-variant-ligatures:normal;font-variant-caps:normal;font-variant-numeric:normal;font-variant-east-asian:normal;text-align:center;writing-mode:lr-tb;text-anchor:middle;fill:#000000;fill-opacity:1;stroke:none;stroke-width:0.499999;stroke-linecap:round;stroke-linejoin:round;stroke-miterlimit:4;stroke-dasharray:none;stroke-opacity:0.983914"
       x="118.54742"
       y="96.64193"
       id="text1132"><tspan
         sodipodi:role="line"
         id="tspan1136"
         x="118.54742"
         y="96.64193">Abmessung: 140 x 170 x 60</tspan></text>
  </g>
</svg>
