<?xml version='1.0' encoding='us-ascii'?>
<svg height="146.05mm" viewBox="0.0 0.0 882.88 146.05" width="882.88mm" xmlns="http://www.w3.org/2000/svg" xmlns:cc="http://creativecommons.org/ns#" xmlns:dc="http://purl.org/dc/elements/1.1/" xmlns:inkscape="http://www.inkscape.org/namespaces/inkscape" xmlns:rdf="http://www.w3.org/1999/02/22-rdf-syntax-ns#" xmlns:svg="http://www.w3.org/2000/svg" xmlns:xlink="http://www.w3.org/1999/xlink">
<!--
Console - Console with slanted panel

Created with Boxes.py (https://festi.info/boxes.py)
Creation date: 2021-02-21 17:49:56
Command line (remove spaces between dashes): boxes Console - -FingerJoint_angle=90.0 - -FingerJoint_style=rectangular - -FingerJoint_surroundingspaces=0.5 - -FingerJoint_edge_width=1.0 - -FingerJoint_finger=2.0 - -FingerJoint_play=0.0 - -FingerJoint_space=2.0 - -FingerJoint_width=1.0 - -Stackable_angle=60 - -Stackable_height=2.0 - -Stackable_holedistance=1.0 - -Stackable_width=4.0 - -x=115 - -y=170 - -h=100 - -outside=0 - -outside=1 - -front_height=30 - -angle=50 - -thickness=3.0 - -format=svg - -tabs=0.0 - -debug=0 - -reference=100 - -burn=0.1
Url: http://www.festi.info/Console?FingerJoint_angle=90.0&FingerJoint_style=rectangular&FingerJoint_surroundingspaces=0.5&FingerJoint_edge_width=1.0&FingerJoint_finger=2.0&FingerJoint_play=0.0&FingerJoint_space=2.0&FingerJoint_width=1.0&Stackable_angle=60&Stackable_height=2.0&Stackable_holedistance=1.0&Stackable_width=4.0&x=115&y=170&h=100&outside=0&outside=1&front_height=30&angle=50&thickness=3.0&format=svg&tabs=0.0&debug=0&reference=100&burn=0.1&render=1
SettingsUrl: http://www.festi.info/Console?FingerJoint_angle=90.0&FingerJoint_style=rectangular&FingerJoint_surroundingspaces=0.5&FingerJoint_edge_width=1.0&FingerJoint_finger=2.0&FingerJoint_play=0.0&FingerJoint_space=2.0&FingerJoint_width=1.0&Stackable_angle=60&Stackable_height=2.0&Stackable_holedistance=1.0&Stackable_width=4.0&x=115&y=170&h=100&outside=0&outside=1&front_height=30&angle=50&thickness=3.0&format=svg&tabs=0.0&debug=0&reference=100&burn=0.1
-->
<title>Console</title>
<metadata>
<rdf:RDF><cc:Work>
<dc:title>Box - Console</dc:title>
<dc:date>2021-02-21 17:49:56</dc:date>
<dc:source>http://www.festi.info/Console?FingerJoint_angle=90.0&amp;FingerJoint_style=rectangular&amp;FingerJoint_surroundingspaces=0.5&amp;FingerJoint_edge_width=1.0&amp;FingerJoint_finger=2.0&amp;FingerJoint_play=0.0&amp;FingerJoint_space=2.0&amp;FingerJoint_width=1.0&amp;Stackable_angle=60&amp;Stackable_height=2.0&amp;Stackable_holedistance=1.0&amp;Stackable_width=4.0&amp;x=115&amp;y=170&amp;h=100&amp;outside=0&amp;outside=1&amp;front_height=30&amp;angle=50&amp;thickness=3.0&amp;format=svg&amp;tabs=0.0&amp;debug=0&amp;reference=100&amp;burn=0.1&amp;render=1</dc:source>
<dc:description>Console with slanted panel

Created with Boxes.py (https://festi.info/boxes.py)
Command line: boxes Console --FingerJoint_angle=90.0 --FingerJoint_style=rectangular --FingerJoint_surroundingspaces=0.5 --FingerJoint_edge_width=1.0 --FingerJoint_finger=2.0 --FingerJoint_play=0.0 --FingerJoint_space=2.0 --FingerJoint_width=1.0 --Stackable_angle=60 --Stackable_height=2.0 --Stackable_holedistance=1.0 --Stackable_width=4.0 --x=115 --y=170 --h=100 --outside=0 --outside=1 --front_height=30 --angle=50 --thickness=3.0 --format=svg --tabs=0.0 --debug=0 --reference=100 --burn=0.1
Url: http://www.festi.info/Console?FingerJoint_angle=90.0&amp;FingerJoint_style=rectangular&amp;FingerJoint_surroundingspaces=0.5&amp;FingerJoint_edge_width=1.0&amp;FingerJoint_finger=2.0&amp;FingerJoint_play=0.0&amp;FingerJoint_space=2.0&amp;FingerJoint_width=1.0&amp;Stackable_angle=60&amp;Stackable_height=2.0&amp;Stackable_holedistance=1.0&amp;Stackable_width=4.0&amp;x=115&amp;y=170&amp;h=100&amp;outside=0&amp;outside=1&amp;front_height=30&amp;angle=50&amp;thickness=3.0&amp;format=svg&amp;tabs=0.0&amp;debug=0&amp;reference=100&amp;burn=0.1&amp;render=1
SettingsUrl: http://www.festi.info/Console?FingerJoint_angle=90.0&amp;FingerJoint_style=rectangular&amp;FingerJoint_surroundingspaces=0.5&amp;FingerJoint_edge_width=1.0&amp;FingerJoint_finger=2.0&amp;FingerJoint_play=0.0&amp;FingerJoint_space=2.0&amp;FingerJoint_width=1.0&amp;Stackable_angle=60&amp;Stackable_height=2.0&amp;Stackable_holedistance=1.0&amp;Stackable_width=4.0&amp;x=115&amp;y=170&amp;h=100&amp;outside=0&amp;outside=1&amp;front_height=30&amp;angle=50&amp;thickness=3.0&amp;format=svg&amp;tabs=0.0&amp;debug=0&amp;reference=100&amp;burn=0.1
</dc:description>
</cc:Work></rdf:RDF></metadata>
<g id="p-0" style="fill:none;stroke-linecap:round;stroke-linejoin:round;">
  <path d="M 10.100 136.050 H 110.100 V 126.050 H 10.100 V 136.050 Z" stroke="rgb(0,0,0)" stroke-width="0.20" />
  <text alignment-baseline="hanging" font-size="10px" style="font-family: sans-serif ; font-weight: normal; font-style: normal; fill: rgb(0,0,0)" text-anchor="middle" transform="matrix( 1.000 0.000 0.000 1.000 60.100 126.050 )">100mm</text>
</g>
<g id="p-1" style="fill:none;stroke-linecap:round;stroke-linejoin:round;">
  <path d="M 13.100 121.350 H 20.000 C 20.100 121.350 20.000 121.250 20.000 121.350 V 124.250 C 20.000 124.305 20.045 124.350 20.100 124.350 H 26.100 C 26.155 124.350 26.200 124.305 26.200 124.250 V 121.350 C 26.200 121.250 26.100 121.350 26.200 121.350 H 32.000 C 32.100 121.350 32.000 121.250 32.000 121.350 V 124.250 C 32.000 124.305 32.045 124.350 32.100 124.350 H 38.100 C 38.155 124.350 38.200 124.305 38.200 124.250 V 121.350 C 38.200 121.250 38.100 121.350 38.200 121.350 H 44.000 C 44.100 121.350 44.000 121.250 44.000 121.350 V 124.250 C 44.000 124.305 44.045 124.350 44.100 124.350 H 50.100 C 50.155 124.350 50.200 124.305 50.200 124.250 V 121.350 C 50.200 121.250 50.100 121.350 50.200 121.350 H 56.000 C 56.100 121.350 56.000 121.250 56.000 121.350 V 124.250 C 56.000 124.305 56.045 124.350 56.100 124.350 H 62.100 C 62.155 124.350 62.200 124.305 62.200 124.250 V 121.350 C 62.200 121.250 62.100 121.350 62.200 121.350 H 68.000 C 68.100 121.350 68.000 121.250 68.000 121.350 V 124.250 C 68.000 124.305 68.045 124.350 68.100 124.350 H 74.100 C 74.155 124.350 74.200 124.305 74.200 124.250 V 121.350 C 74.200 121.250 74.100 121.350 74.200 121.350 H 80.000 C 80.100 121.350 80.000 121.250 80.000 121.350 V 124.250 C 80.000 124.305 80.045 124.350 80.100 124.350 H 86.100 C 86.155 124.350 86.200 124.305 86.200 124.250 V 121.350 C 86.200 121.250 86.100 121.350 86.200 121.350 H 92.000 C 92.100 121.350 92.000 121.250 92.000 121.350 V 124.250 C 92.000 124.305 92.045 124.350 92.100 124.350 H 98.100 C 98.155 124.350 98.200 124.305 98.200 124.250 V 121.350 C 98.200 121.250 98.100 121.350 98.200 121.350 H 104.000 C 104.100 121.350 104.000 121.250 104.000 121.350 V 124.250 C 104.000 124.305 104.045 124.350 104.100 124.350 H 110.100 C 110.155 124.350 110.200 124.305 110.200 124.250 V 121.350 C 110.200 121.250 110.100 121.350 110.200 121.350 H 116.000 C 116.100 121.350 116.000 121.250 116.000 121.350 V 124.250 C 116.000 124.305 116.045 124.350 116.100 124.350 H 122.100 C 122.155 124.350 122.200 124.305 122.200 124.250 V 121.350 C 122.200 121.250 122.100 121.350 122.200 121.350 H 128.000 C 128.100 121.350 128.000 121.250 128.000 121.350 V 124.250 C 128.000 124.305 128.045 124.350 128.100 124.350 H 134.100 C 134.155 124.350 134.200 124.305 134.200 124.250 V 121.350 C 134.200 121.250 134.100 121.350 134.200 121.350 H 140.000 C 140.100 121.350 140.000 121.250 140.000 121.350 V 124.250 C 140.000 124.305 140.045 124.350 140.100 124.350 H 146.100 C 146.155 124.350 146.200 124.305 146.200 124.250 V 121.350 C 146.200 121.250 146.100 121.350 146.200 121.350 H 152.000 C 152.100 121.350 152.000 121.250 152.000 121.350 V 124.250 C 152.000 124.305 152.045 124.350 152.100 124.350 H 158.100 C 158.155 124.350 158.200 124.305 158.200 124.250 V 121.350 C 158.200 121.250 158.100 121.350 158.200 121.350 H 164.000 C 164.100 121.350 164.000 121.250 164.000 121.350 V 124.250 C 164.000 124.305 164.045 124.350 164.100 124.350 H 170.100 C 170.155 124.350 170.200 124.305 170.200 124.250 V 121.350 C 170.200 121.250 170.100 121.350 170.200 121.350 H 177.100 C 177.155 121.350 177.200 121.305 177.200 121.250 V 115.350 C 177.200 115.250 177.100 115.350 177.200 115.350 H 180.100 C 180.155 115.350 180.200 115.305 180.200 115.250 V 109.250 C 180.200 109.195 180.155 109.150 180.100 109.150 H 177.200 C 177.100 109.150 177.200 109.250 177.200 109.150 V 103.350 C 177.200 103.250 177.100 103.350 177.200 103.350 H 180.100 C 180.155 103.350 180.200 103.305 180.200 103.250 V 97.250 C 180.200 97.195 180.155 97.150 180.100 97.150 H 177.200 C 177.100 97.150 177.200 97.250 177.200 97.150 V 91.250 C 177.200 91.226 177.192 91.204 177.177 91.186 L 175.458 89.138 C 175.394 89.061 175.382 89.202 175.458 89.138 L 177.680 87.274 C 177.722 87.238 177.728 87.175 177.692 87.133 L 173.836 82.537 C 173.800 82.495 173.737 82.489 173.695 82.524 L 171.473 84.389 C 171.397 84.453 171.537 84.465 171.473 84.389 L 167.745 79.946 C 167.681 79.869 167.668 80.010 167.745 79.946 L 169.966 78.081 C 170.009 78.046 170.014 77.983 169.979 77.941 L 166.122 73.344 C 166.087 73.302 166.024 73.296 165.981 73.332 L 163.760 75.196 C 163.683 75.260 163.824 75.273 163.760 75.196 L 160.032 70.753 C 159.967 70.676 159.955 70.817 160.032 70.753 L 162.253 68.889 C 162.295 68.853 162.301 68.790 162.265 68.748 L 158.409 64.152 C 158.373 64.109 158.310 64.104 158.268 64.139 L 156.046 66.004 C 155.970 66.068 156.111 66.080 156.046 66.004 L 152.318 61.560 C 152.254 61.484 152.241 61.625 152.318 61.560 L 154.540 59.696 C 154.582 59.661 154.587 59.598 154.552 59.555 L 150.695 54.959 C 150.660 54.917 150.597 54.911 150.554 54.947 L 148.333 56.811 C 148.256 56.875 148.397 56.888 148.333 56.811 L 144.605 52.368 C 144.540 52.291 144.528 52.432 144.605 52.368 L 146.826 50.504 C 146.868 50.468 146.874 50.405 146.838 50.363 L 142.982 45.767 C 142.946 45.724 142.883 45.719 142.841 45.754 L 140.619 47.618 C 140.543 47.683 140.684 47.695 140.619 47.618 L 136.891 43.175 C 136.827 43.099 136.815 43.240 136.891 43.175 L 139.113 41.311 C 139.155 41.276 139.161 41.213 139.125 41.170 L 135.268 36.574 C 135.233 36.532 135.170 36.526 135.127 36.562 L 132.906 38.426 C 132.829 38.490 132.970 38.503 132.906 38.426 L 129.178 33.983 C 129.113 33.906 129.101 34.047 129.178 33.983 L 131.399 32.119 C 131.442 32.083 131.447 32.020 131.412 31.978 L 127.555 27.382 C 127.519 27.339 127.456 27.334 127.414 27.369 L 125.192 29.233 C 125.116 29.298 125.257 29.310 125.192 29.233 L 123.474 27.186 C 123.455 27.163 123.427 27.150 123.398 27.150 H 119.349 C 119.249 27.150 119.349 27.250 119.349 27.150 V 24.250 C 119.349 24.195 119.304 24.150 119.249 24.150 H 113.249 C 113.194 24.150 113.149 24.195 113.149 24.250 V 27.150 C 113.149 27.250 113.249 27.150 113.149 27.150 H 107.349 C 107.249 27.150 107.349 27.250 107.349 27.150 V 24.250 C 107.349 24.195 107.304 24.150 107.249 24.150 H 101.249 C 101.194 24.150 101.149 24.195 101.149 24.250 V 27.150 C 101.149 27.250 101.249 27.150 101.149 27.150 H 95.349 C 95.249 27.150 95.349 27.250 95.349 27.150 V 24.250 C 95.349 24.195 95.304 24.150 95.249 24.150 H 89.249 C 89.194 24.150 89.149 24.195 89.149 24.250 V 27.150 C 89.149 27.250 89.249 27.150 89.149 27.150 H 83.349 C 83.249 27.150 83.349 27.250 83.349 27.150 V 24.250 C 83.349 24.195 83.304 24.150 83.249 24.150 H 77.249 C 77.194 24.150 77.149 24.195 77.149 24.250 V 27.150 C 77.149 27.250 77.249 27.150 77.149 27.150 H 71.349 C 71.249 27.150 71.349 27.250 71.349 27.150 V 24.250 C 71.349 24.195 71.304 24.150 71.249 24.150 H 65.249 C 65.194 24.150 65.149 24.195 65.149 24.250 V 27.150 C 65.149 27.250 65.249 27.150 65.149 27.150 H 59.349 C 59.249 27.150 59.349 27.250 59.349 27.150 V 24.250 C 59.349 24.195 59.304 24.150 59.249 24.150 H 53.249 C 53.194 24.150 53.149 24.195 53.149 24.250 V 27.150 C 53.149 27.250 53.249 27.150 53.149 27.150 H 47.349 C 47.249 27.150 47.349 27.250 47.349 27.150 V 24.250 C 47.349 24.195 47.304 24.150 47.249 24.150 H 41.249 C 41.194 24.150 41.149 24.195 41.149 24.250 V 27.150 C 41.149 27.250 41.249 27.150 41.149 27.150 H 35.349 C 35.249 27.150 35.349 27.250 35.349 27.150 V 24.250 C 35.349 24.195 35.304 24.150 35.249 24.150 H 29.249 C 29.194 24.150 29.149 24.195 29.149 24.250 V 27.150 C 29.149 27.250 29.249 27.150 29.149 27.150 H 23.349 C 23.249 27.150 23.349 27.250 23.349 27.150 V 24.250 C 23.349 24.195 23.304 24.150 23.249 24.150 H 17.249 C 17.194 24.150 17.149 24.195 17.149 24.250 V 27.150 C 17.149 27.250 17.249 27.150 17.149 27.150 H 13.100 C 13.045 27.150 13.000 27.195 13.000 27.250 V 29.150 C 13.000 29.250 13.100 29.150 13.000 29.150 H 10.100 C 10.045 29.150 10.000 29.195 10.000 29.250 V 35.250 C 10.000 35.305 10.045 35.350 10.100 35.350 H 13.000 C 13.100 35.350 13.000 35.250 13.000 35.350 V 41.150 C 13.000 41.250 13.100 41.150 13.000 41.150 H 10.100 C 10.045 41.150 10.000 41.195 10.000 41.250 V 47.250 C 10.000 47.305 10.045 47.350 10.100 47.350 H 13.000 C 13.100 47.350 13.000 47.250 13.000 47.350 V 53.150 C 13.000 53.250 13.100 53.150 13.000 53.150 H 10.100 C 10.045 53.150 10.000 53.195 10.000 53.250 V 59.250 C 10.000 59.305 10.045 59.350 10.100 59.350 H 13.000 C 13.100 59.350 13.000 59.250 13.000 59.350 V 65.150 C 13.000 65.250 13.100 65.150 13.000 65.150 H 10.100 C 10.045 65.150 10.000 65.195 10.000 65.250 V 71.250 C 10.000 71.305 10.045 71.350 10.100 71.350 H 13.000 C 13.100 71.350 13.000 71.250 13.000 71.350 V 77.150 C 13.000 77.250 13.100 77.150 13.000 77.150 H 10.100 C 10.045 77.150 10.000 77.195 10.000 77.250 V 83.250 C 10.000 83.305 10.045 83.350 10.100 83.350 H 13.000 C 13.100 83.350 13.000 83.250 13.000 83.350 V 89.150 C 13.000 89.250 13.100 89.150 13.000 89.150 H 10.100 C 10.045 89.150 10.000 89.195 10.000 89.250 V 95.250 C 10.000 95.305 10.045 95.350 10.100 95.350 H 13.000 C 13.100 95.350 13.000 95.250 13.000 95.350 V 101.150 C 13.000 101.250 13.100 101.150 13.000 101.150 H 10.100 C 10.045 101.150 10.000 101.195 10.000 101.250 V 107.250 C 10.000 107.305 10.045 107.350 10.100 107.350 H 13.000 C 13.100 107.350 13.000 107.250 13.000 107.350 V 113.150 C 13.000 113.250 13.100 113.150 13.000 113.150 H 10.100 C 10.045 113.150 10.000 113.195 10.000 113.250 V 119.250 C 10.000 119.305 10.045 119.350 10.100 119.350 H 13.000 C 13.100 119.350 13.000 119.250 13.000 119.350 V 121.250 C 13.000 121.305 13.045 121.350 13.100 121.350 Z" stroke="rgb(0,0,0)" stroke-width="0.20" />
</g>
<g id="p-2" style="fill:none;stroke-linecap:round;stroke-linejoin:round;">
  <path d="M 184.800 121.350 H 191.700 C 191.800 121.350 191.700 121.250 191.700 121.350 V 124.250 C 191.700 124.305 191.745 124.350 191.800 124.350 H 197.800 C 197.855 124.350 197.900 124.305 197.900 124.250 V 121.350 C 197.900 121.250 197.800 121.350 197.900 121.350 H 203.700 C 203.800 121.350 203.700 121.250 203.700 121.350 V 124.250 C 203.700 124.305 203.745 124.350 203.800 124.350 H 209.800 C 209.855 124.350 209.900 124.305 209.900 124.250 V 121.350 C 209.900 121.250 209.800 121.350 209.900 121.350 H 215.700 C 215.800 121.350 215.700 121.250 215.700 121.350 V 124.250 C 215.700 124.305 215.745 124.350 215.800 124.350 H 221.800 C 221.855 124.350 221.900 124.305 221.900 124.250 V 121.350 C 221.900 121.250 221.800 121.350 221.900 121.350 H 227.700 C 227.800 121.350 227.700 121.250 227.700 121.350 V 124.250 C 227.700 124.305 227.745 124.350 227.800 124.350 H 233.800 C 233.855 124.350 233.900 124.305 233.900 124.250 V 121.350 C 233.900 121.250 233.800 121.350 233.900 121.350 H 239.700 C 239.800 121.350 239.700 121.250 239.700 121.350 V 124.250 C 239.700 124.305 239.745 124.350 239.800 124.350 H 245.800 C 245.855 124.350 245.900 124.305 245.900 124.250 V 121.350 C 245.900 121.250 245.800 121.350 245.900 121.350 H 251.700 C 251.800 121.350 251.700 121.250 251.700 121.350 V 124.250 C 251.700 124.305 251.745 124.350 251.800 124.350 H 257.800 C 257.855 124.350 257.900 124.305 257.900 124.250 V 121.350 C 257.900 121.250 257.800 121.350 257.900 121.350 H 263.700 C 263.800 121.350 263.700 121.250 263.700 121.350 V 124.250 C 263.700 124.305 263.745 124.350 263.800 124.350 H 269.800 C 269.855 124.350 269.900 124.305 269.900 124.250 V 121.350 C 269.900 121.250 269.800 121.350 269.900 121.350 H 275.700 C 275.800 121.350 275.700 121.250 275.700 121.350 V 124.250 C 275.700 124.305 275.745 124.350 275.800 124.350 H 281.800 C 281.855 124.350 281.900 124.305 281.900 124.250 V 121.350 C 281.900 121.250 281.800 121.350 281.900 121.350 H 287.700 C 287.800 121.350 287.700 121.250 287.700 121.350 V 124.250 C 287.700 124.305 287.745 124.350 287.800 124.350 H 293.800 C 293.855 124.350 293.900 124.305 293.900 124.250 V 121.350 C 293.900 121.250 293.800 121.350 293.900 121.350 H 299.700 C 299.800 121.350 299.700 121.250 299.700 121.350 V 124.250 C 299.700 124.305 299.745 124.350 299.800 124.350 H 305.800 C 305.855 124.350 305.900 124.305 305.900 124.250 V 121.350 C 305.900 121.250 305.800 121.350 305.900 121.350 H 311.700 C 311.800 121.350 311.700 121.250 311.700 121.350 V 124.250 C 311.700 124.305 311.745 124.350 311.800 124.350 H 317.800 C 317.855 124.350 317.900 124.305 317.900 124.250 V 121.350 C 317.900 121.250 317.800 121.350 317.900 121.350 H 323.700 C 323.800 121.350 323.700 121.250 323.700 121.350 V 124.250 C 323.700 124.305 323.745 124.350 323.800 124.350 H 329.800 C 329.855 124.350 329.900 124.305 329.900 124.250 V 121.350 C 329.900 121.250 329.800 121.350 329.900 121.350 H 335.700 C 335.800 121.350 335.700 121.250 335.700 121.350 V 124.250 C 335.700 124.305 335.745 124.350 335.800 124.350 H 341.800 C 341.855 124.350 341.900 124.305 341.900 124.250 V 121.350 C 341.900 121.250 341.800 121.350 341.900 121.350 H 348.800 C 348.855 121.350 348.900 121.305 348.900 121.250 V 115.350 C 348.900 115.250 348.800 115.350 348.900 115.350 H 351.800 C 351.855 115.350 351.900 115.305 351.900 115.250 V 109.250 C 351.900 109.195 351.855 109.150 351.800 109.150 H 348.900 C 348.800 109.150 348.900 109.250 348.900 109.150 V 103.350 C 348.900 103.250 348.800 103.350 348.900 103.350 H 351.800 C 351.855 103.350 351.900 103.305 351.900 103.250 V 97.250 C 351.900 97.195 351.855 97.150 351.800 97.150 H 348.900 C 348.800 97.150 348.900 97.250 348.900 97.150 V 91.250 C 348.900 91.226 348.892 91.204 348.877 91.186 L 347.158 89.138 C 347.094 89.061 347.082 89.202 347.158 89.138 L 349.380 87.274 C 349.422 87.238 349.428 87.175 349.392 87.133 L 345.536 82.537 C 345.500 82.495 345.437 82.489 345.395 82.524 L 343.173 84.389 C 343.097 84.453 343.237 84.465 343.173 84.389 L 339.445 79.946 C 339.381 79.869 339.368 80.010 339.445 79.946 L 341.666 78.081 C 341.709 78.046 341.714 77.983 341.679 77.941 L 337.822 73.344 C 337.787 73.302 337.724 73.296 337.681 73.332 L 335.460 75.196 C 335.383 75.260 335.524 75.273 335.460 75.196 L 331.732 70.753 C 331.667 70.676 331.655 70.817 331.732 70.753 L 333.953 68.889 C 333.995 68.853 334.001 68.790 333.965 68.748 L 330.109 64.152 C 330.073 64.109 330.010 64.104 329.968 64.139 L 327.746 66.004 C 327.670 66.068 327.811 66.080 327.746 66.004 L 324.018 61.560 C 323.954 61.484 323.941 61.625 324.018 61.560 L 326.240 59.696 C 326.282 59.661 326.287 59.598 326.252 59.555 L 322.395 54.959 C 322.360 54.917 322.297 54.911 322.254 54.947 L 320.033 56.811 C 319.956 56.875 320.097 56.888 320.033 56.811 L 316.305 52.368 C 316.240 52.291 316.228 52.432 316.305 52.368 L 318.526 50.504 C 318.568 50.468 318.574 50.405 318.538 50.363 L 314.682 45.767 C 314.646 45.724 314.583 45.719 314.541 45.754 L 312.319 47.618 C 312.243 47.683 312.384 47.695 312.319 47.618 L 308.591 43.175 C 308.527 43.099 308.515 43.240 308.591 43.175 L 310.813 41.311 C 310.855 41.276 310.861 41.213 310.825 41.170 L 306.968 36.574 C 306.933 36.532 306.870 36.526 306.827 36.562 L 304.606 38.426 C 304.529 38.490 304.670 38.503 304.606 38.426 L 300.878 33.983 C 300.813 33.906 300.801 34.047 300.878 33.983 L 303.099 32.119 C 303.142 32.083 303.147 32.020 303.112 31.978 L 299.255 27.382 C 299.219 27.339 299.156 27.334 299.114 27.369 L 296.892 29.233 C 296.816 29.298 296.957 29.310 296.892 29.233 L 295.174 27.186 C 295.155 27.163 295.127 27.150 295.098 27.150 H 291.049 C 290.949 27.150 291.049 27.250 291.049 27.150 V 24.250 C 291.049 24.195 291.004 24.150 290.949 24.150 H 284.949 C 284.894 24.150 284.849 24.195 284.849 24.250 V 27.150 C 284.849 27.250 284.949 27.150 284.849 27.150 H 279.049 C 278.949 27.150 279.049 27.250 279.049 27.150 V 24.250 C 279.049 24.195 279.004 24.150 278.949 24.150 H 272.949 C 272.894 24.150 272.849 24.195 272.849 24.250 V 27.150 C 272.849 27.250 272.949 27.150 272.849 27.150 H 267.049 C 266.949 27.150 267.049 27.250 267.049 27.150 V 24.250 C 267.049 24.195 267.004 24.150 266.949 24.150 H 260.949 C 260.894 24.150 260.849 24.195 260.849 24.250 V 27.150 C 260.849 27.250 260.949 27.150 260.849 27.150 H 255.049 C 254.949 27.150 255.049 27.250 255.049 27.150 V 24.250 C 255.049 24.195 255.004 24.150 254.949 24.150 H 248.949 C 248.894 24.150 248.849 24.195 248.849 24.250 V 27.150 C 248.849 27.250 248.949 27.150 248.849 27.150 H 243.049 C 242.949 27.150 243.049 27.250 243.049 27.150 V 24.250 C 243.049 24.195 243.004 24.150 242.949 24.150 H 236.949 C 236.894 24.150 236.849 24.195 236.849 24.250 V 27.150 C 236.849 27.250 236.949 27.150 236.849 27.150 H 231.049 C 230.949 27.150 231.049 27.250 231.049 27.150 V 24.250 C 231.049 24.195 231.004 24.150 230.949 24.150 H 224.949 C 224.894 24.150 224.849 24.195 224.849 24.250 V 27.150 C 224.849 27.250 224.949 27.150 224.849 27.150 H 219.049 C 218.949 27.150 219.049 27.250 219.049 27.150 V 24.250 C 219.049 24.195 219.004 24.150 218.949 24.150 H 212.949 C 212.894 24.150 212.849 24.195 212.849 24.250 V 27.150 C 212.849 27.250 212.949 27.150 212.849 27.150 H 207.049 C 206.949 27.150 207.049 27.250 207.049 27.150 V 24.250 C 207.049 24.195 207.004 24.150 206.949 24.150 H 200.949 C 200.894 24.150 200.849 24.195 200.849 24.250 V 27.150 C 200.849 27.250 200.949 27.150 200.849 27.150 H 195.049 C 194.949 27.150 195.049 27.250 195.049 27.150 V 24.250 C 195.049 24.195 195.004 24.150 194.949 24.150 H 188.949 C 188.894 24.150 188.849 24.195 188.849 24.250 V 27.150 C 188.849 27.250 188.949 27.150 188.849 27.150 H 184.800 C 184.745 27.150 184.700 27.195 184.700 27.250 V 29.150 C 184.700 29.250 184.800 29.150 184.700 29.150 H 181.800 C 181.745 29.150 181.700 29.195 181.700 29.250 V 35.250 C 181.700 35.305 181.745 35.350 181.800 35.350 H 184.700 C 184.800 35.350 184.700 35.250 184.700 35.350 V 41.150 C 184.700 41.250 184.800 41.150 184.700 41.150 H 181.800 C 181.745 41.150 181.700 41.195 181.700 41.250 V 47.250 C 181.700 47.305 181.745 47.350 181.800 47.350 H 184.700 C 184.800 47.350 184.700 47.250 184.700 47.350 V 53.150 C 184.700 53.250 184.800 53.150 184.700 53.150 H 181.800 C 181.745 53.150 181.700 53.195 181.700 53.250 V 59.250 C 181.700 59.305 181.745 59.350 181.800 59.350 H 184.700 C 184.800 59.350 184.700 59.250 184.700 59.350 V 65.150 C 184.700 65.250 184.800 65.150 184.700 65.150 H 181.800 C 181.745 65.150 181.700 65.195 181.700 65.250 V 71.250 C 181.700 71.305 181.745 71.350 181.800 71.350 H 184.700 C 184.800 71.350 184.700 71.250 184.700 71.350 V 77.150 C 184.700 77.250 184.800 77.150 184.700 77.150 H 181.800 C 181.745 77.150 181.700 77.195 181.700 77.250 V 83.250 C 181.700 83.305 181.745 83.350 181.800 83.350 H 184.700 C 184.800 83.350 184.700 83.250 184.700 83.350 V 89.150 C 184.700 89.250 184.800 89.150 184.700 89.150 H 181.800 C 181.745 89.150 181.700 89.195 181.700 89.250 V 95.250 C 181.700 95.305 181.745 95.350 181.800 95.350 H 184.700 C 184.800 95.350 184.700 95.250 184.700 95.350 V 101.150 C 184.700 101.250 184.800 101.150 184.700 101.150 H 181.800 C 181.745 101.150 181.700 101.195 181.700 101.250 V 107.250 C 181.700 107.305 181.745 107.350 181.800 107.350 H 184.700 C 184.800 107.350 184.700 107.250 184.700 107.350 V 113.150 C 184.700 113.250 184.800 113.150 184.700 113.150 H 181.800 C 181.745 113.150 181.700 113.195 181.700 113.250 V 119.250 C 181.700 119.305 181.745 119.350 181.800 119.350 H 184.700 C 184.800 119.350 184.700 119.250 184.700 119.350 V 121.250 C 184.700 121.305 184.745 121.350 184.800 121.350 Z" stroke="rgb(0,0,0)" stroke-width="0.20" />
</g>
<g id="p-3" style="fill:none;stroke-linecap:round;stroke-linejoin:round;">
  <path d="M 357.350 125.200 H 364.350 C 364.405 125.200 364.450 125.155 364.450 125.100 V 122.200 C 364.450 122.100 364.350 122.200 364.450 122.200 H 370.250 C 370.350 122.200 370.250 122.100 370.250 122.200 V 125.100 C 370.250 125.155 370.295 125.200 370.350 125.200 H 376.350 C 376.405 125.200 376.450 125.155 376.450 125.100 V 122.200 C 376.450 122.100 376.350 122.200 376.450 122.200 H 382.250 C 382.350 122.200 382.250 122.100 382.250 122.200 V 125.100 C 382.250 125.155 382.295 125.200 382.350 125.200 H 388.350 C 388.405 125.200 388.450 125.155 388.450 125.100 V 122.200 C 388.450 122.100 388.350 122.200 388.450 122.200 H 394.250 C 394.350 122.200 394.250 122.100 394.250 122.200 V 125.100 C 394.250 125.155 394.295 125.200 394.350 125.200 H 400.350 C 400.405 125.200 400.450 125.155 400.450 125.100 V 122.200 C 400.450 122.100 400.350 122.200 400.450 122.200 H 406.250 C 406.350 122.200 406.250 122.100 406.250 122.200 V 125.100 C 406.250 125.155 406.295 125.200 406.350 125.200 H 412.350 C 412.405 125.200 412.450 125.155 412.450 125.100 V 122.200 C 412.450 122.100 412.350 122.200 412.450 122.200 H 418.250 C 418.350 122.200 418.250 122.100 418.250 122.200 V 125.100 C 418.250 125.155 418.295 125.200 418.350 125.200 H 424.350 C 424.405 125.200 424.450 125.155 424.450 125.100 V 122.200 C 424.450 122.100 424.350 122.200 424.450 122.200 H 430.250 C 430.350 122.200 430.250 122.100 430.250 122.200 V 125.100 C 430.250 125.155 430.295 125.200 430.350 125.200 H 436.350 C 436.405 125.200 436.450 125.155 436.450 125.100 V 122.200 C 436.450 122.100 436.350 122.200 436.450 122.200 H 442.250 C 442.350 122.200 442.250 122.100 442.250 122.200 V 125.100 C 442.250 125.155 442.295 125.200 442.350 125.200 H 448.350 C 448.405 125.200 448.450 125.155 448.450 125.100 V 122.200 C 448.450 122.100 448.350 122.200 448.450 122.200 H 454.250 C 454.350 122.200 454.250 122.100 454.250 122.200 V 125.100 C 454.250 125.155 454.295 125.200 454.350 125.200 H 460.350 C 460.405 125.200 460.450 125.155 460.450 125.100 V 122.200 C 460.450 122.100 460.350 122.200 460.450 122.200 H 466.250 C 466.350 122.200 466.250 122.100 466.250 122.200 V 125.100 C 466.250 125.155 466.295 125.200 466.350 125.200 H 472.350 C 472.405 125.200 472.450 125.155 472.450 125.100 V 122.200 C 472.450 122.100 472.350 122.200 472.450 122.200 H 478.250 C 478.350 122.200 478.250 122.100 478.250 122.200 V 125.100 C 478.250 125.155 478.295 125.200 478.350 125.200 H 484.350 C 484.405 125.200 484.450 125.155 484.450 125.100 V 122.200 C 484.450 122.100 484.350 122.200 484.450 122.200 H 490.250 C 490.350 122.200 490.250 122.100 490.250 122.200 V 125.100 C 490.250 125.155 490.295 125.200 490.350 125.200 H 496.350 C 496.405 125.200 496.450 125.155 496.450 125.100 V 122.200 C 496.450 122.100 496.350 122.200 496.450 122.200 H 502.250 C 502.350 122.200 502.250 122.100 502.250 122.200 V 125.100 C 502.250 125.155 502.295 125.200 502.350 125.200 H 508.350 C 508.405 125.200 508.450 125.155 508.450 125.100 V 122.200 C 508.450 122.100 508.350 122.200 508.450 122.200 H 514.250 C 514.350 122.200 514.250 122.100 514.250 122.200 V 125.100 C 514.250 125.155 514.295 125.200 514.350 125.200 H 521.350 H 524.350 C 524.405 125.200 524.450 125.155 524.450 125.100 V 122.100 V 118.600 C 524.450 118.545 524.405 118.500 524.350 118.500 H 521.450 C 521.350 118.500 521.450 118.600 521.450 118.500 V 112.700 C 521.450 112.600 521.350 112.700 521.450 112.700 H 524.350 C 524.405 112.700 524.450 112.655 524.450 112.600 V 106.600 C 524.450 106.545 524.405 106.500 524.350 106.500 H 521.450 C 521.350 106.500 521.450 106.600 521.450 106.500 V 100.700 C 521.450 100.600 521.350 100.700 521.450 100.700 H 524.350 C 524.405 100.700 524.450 100.655 524.450 100.600 V 94.600 C 524.450 94.545 524.405 94.500 524.350 94.500 H 521.450 C 521.350 94.500 521.450 94.600 521.450 94.500 V 88.700 C 521.450 88.600 521.350 88.700 521.450 88.700 H 524.350 C 524.405 88.700 524.450 88.655 524.450 88.600 V 82.600 C 524.450 82.545 524.405 82.500 524.350 82.500 H 521.450 C 521.350 82.500 521.450 82.600 521.450 82.500 V 76.700 C 521.450 76.600 521.350 76.700 521.450 76.700 H 524.350 C 524.405 76.700 524.450 76.655 524.450 76.600 V 70.600 C 524.450 70.545 524.405 70.500 524.350 70.500 H 521.450 C 521.350 70.500 521.450 70.600 521.450 70.500 V 64.700 C 521.450 64.600 521.350 64.700 521.450 64.700 H 524.350 C 524.405 64.700 524.450 64.655 524.450 64.600 V 58.600 C 524.450 58.545 524.405 58.500 524.350 58.500 H 521.450 C 521.350 58.500 521.450 58.600 521.450 58.500 V 52.700 C 521.450 52.600 521.350 52.700 521.450 52.700 H 524.350 C 524.405 52.700 524.450 52.655 524.450 52.600 V 46.600 C 524.450 46.545 524.405 46.500 524.350 46.500 H 521.450 C 521.350 46.500 521.450 46.600 521.450 46.500 V 40.700 C 521.450 40.600 521.350 40.700 521.450 40.700 H 524.350 C 524.405 40.700 524.450 40.655 524.450 40.600 V 34.600 C 524.450 34.545 524.405 34.500 524.350 34.500 H 521.450 C 521.350 34.500 521.450 34.600 521.450 34.500 V 28.700 C 521.450 28.600 521.350 28.700 521.450 28.700 H 524.350 C 524.405 28.700 524.450 28.655 524.450 28.600 V 22.600 C 524.450 22.545 524.405 22.500 524.350 22.500 H 521.450 C 521.350 22.500 521.450 22.600 521.450 22.500 V 16.700 C 521.450 16.600 521.350 16.700 521.450 16.700 H 524.350 C 524.405 16.700 524.450 16.655 524.450 16.600 V 13.100 V 10.100 C 524.450 10.045 524.405 10.000 524.350 10.000 H 521.350 H 514.350 C 514.295 10.000 514.250 10.045 514.250 10.100 V 13.000 C 514.250 13.100 514.350 13.000 514.250 13.000 H 508.450 C 508.350 13.000 508.450 13.100 508.450 13.000 V 10.100 C 508.450 10.045 508.405 10.000 508.350 10.000 H 502.350 C 502.295 10.000 502.250 10.045 502.250 10.100 V 13.000 C 502.250 13.100 502.350 13.000 502.250 13.000 H 496.450 C 496.350 13.000 496.450 13.100 496.450 13.000 V 10.100 C 496.450 10.045 496.405 10.000 496.350 10.000 H 490.350 C 490.295 10.000 490.250 10.045 490.250 10.100 V 13.000 C 490.250 13.100 490.350 13.000 490.250 13.000 H 484.450 C 484.350 13.000 484.450 13.100 484.450 13.000 V 10.100 C 484.450 10.045 484.405 10.000 484.350 10.000 H 478.350 C 478.295 10.000 478.250 10.045 478.250 10.100 V 13.000 C 478.250 13.100 478.350 13.000 478.250 13.000 H 472.450 C 472.350 13.000 472.450 13.100 472.450 13.000 V 10.100 C 472.450 10.045 472.405 10.000 472.350 10.000 H 466.350 C 466.295 10.000 466.250 10.045 466.250 10.100 V 13.000 C 466.250 13.100 466.350 13.000 466.250 13.000 H 460.450 C 460.350 13.000 460.450 13.100 460.450 13.000 V 10.100 C 460.450 10.045 460.405 10.000 460.350 10.000 H 454.350 C 454.295 10.000 454.250 10.045 454.250 10.100 V 13.000 C 454.250 13.100 454.350 13.000 454.250 13.000 H 448.450 C 448.350 13.000 448.450 13.100 448.450 13.000 V 10.100 C 448.450 10.045 448.405 10.000 448.350 10.000 H 442.350 C 442.295 10.000 442.250 10.045 442.250 10.100 V 13.000 C 442.250 13.100 442.350 13.000 442.250 13.000 H 436.450 C 436.350 13.000 436.450 13.100 436.450 13.000 V 10.100 C 436.450 10.045 436.405 10.000 436.350 10.000 H 430.350 C 430.295 10.000 430.250 10.045 430.250 10.100 V 13.000 C 430.250 13.100 430.350 13.000 430.250 13.000 H 424.450 C 424.350 13.000 424.450 13.100 424.450 13.000 V 10.100 C 424.450 10.045 424.405 10.000 424.350 10.000 H 418.350 C 418.295 10.000 418.250 10.045 418.250 10.100 V 13.000 C 418.250 13.100 418.350 13.000 418.250 13.000 H 412.450 C 412.350 13.000 412.450 13.100 412.450 13.000 V 10.100 C 412.450 10.045 412.405 10.000 412.350 10.000 H 406.350 C 406.295 10.000 406.250 10.045 406.250 10.100 V 13.000 C 406.250 13.100 406.350 13.000 406.250 13.000 H 400.450 C 400.350 13.000 400.450 13.100 400.450 13.000 V 10.100 C 400.450 10.045 400.405 10.000 400.350 10.000 H 394.350 C 394.295 10.000 394.250 10.045 394.250 10.100 V 13.000 C 394.250 13.100 394.350 13.000 394.250 13.000 H 388.450 C 388.350 13.000 388.450 13.100 388.450 13.000 V 10.100 C 388.450 10.045 388.405 10.000 388.350 10.000 H 382.350 C 382.295 10.000 382.250 10.045 382.250 10.100 V 13.000 C 382.250 13.100 382.350 13.000 382.250 13.000 H 376.450 C 376.350 13.000 376.450 13.100 376.450 13.000 V 10.100 C 376.450 10.045 376.405 10.000 376.350 10.000 H 370.350 C 370.295 10.000 370.250 10.045 370.250 10.100 V 13.000 C 370.250 13.100 370.350 13.000 370.250 13.000 H 364.450 C 364.350 13.000 364.450 13.100 364.450 13.000 V 10.100 C 364.450 10.045 364.405 10.000 364.350 10.000 H 357.350 H 354.350 C 354.295 10.000 354.250 10.045 354.250 10.100 V 13.100 V 16.600 C 354.250 16.655 354.295 16.700 354.350 16.700 H 357.250 C 357.350 16.700 357.250 16.600 357.250 16.700 V 22.500 C 357.250 22.600 357.350 22.500 357.250 22.500 H 354.350 C 354.295 22.500 354.250 22.545 354.250 22.600 V 28.600 C 354.250 28.655 354.295 28.700 354.350 28.700 H 357.250 C 357.350 28.700 357.250 28.600 357.250 28.700 V 34.500 C 357.250 34.600 357.350 34.500 357.250 34.500 H 354.350 C 354.295 34.500 354.250 34.545 354.250 34.600 V 40.600 C 354.250 40.655 354.295 40.700 354.350 40.700 H 357.250 C 357.350 40.700 357.250 40.600 357.250 40.700 V 46.500 C 357.250 46.600 357.350 46.500 357.250 46.500 H 354.350 C 354.295 46.500 354.250 46.545 354.250 46.600 V 52.600 C 354.250 52.655 354.295 52.700 354.350 52.700 H 357.250 C 357.350 52.700 357.250 52.600 357.250 52.700 V 58.500 C 357.250 58.600 357.350 58.500 357.250 58.500 H 354.350 C 354.295 58.500 354.250 58.545 354.250 58.600 V 64.600 C 354.250 64.655 354.295 64.700 354.350 64.700 H 357.250 C 357.350 64.700 357.250 64.600 357.250 64.700 V 70.500 C 357.250 70.600 357.350 70.500 357.250 70.500 H 354.350 C 354.295 70.500 354.250 70.545 354.250 70.600 V 76.600 C 354.250 76.655 354.295 76.700 354.350 76.700 H 357.250 C 357.350 76.700 357.250 76.600 357.250 76.700 V 82.500 C 357.250 82.600 357.350 82.500 357.250 82.500 H 354.350 C 354.295 82.500 354.250 82.545 354.250 82.600 V 88.600 C 354.250 88.655 354.295 88.700 354.350 88.700 H 357.250 C 357.350 88.700 357.250 88.600 357.250 88.700 V 94.500 C 357.250 94.600 357.350 94.500 357.250 94.500 H 354.350 C 354.295 94.500 354.250 94.545 354.250 94.600 V 100.600 C 354.250 100.655 354.295 100.700 354.350 100.700 H 357.250 C 357.350 100.700 357.250 100.600 357.250 100.700 V 106.500 C 357.250 106.600 357.350 106.500 357.250 106.500 H 354.350 C 354.295 106.500 354.250 106.545 354.250 106.600 V 112.600 C 354.250 112.655 354.295 112.700 354.350 112.700 H 357.250 C 357.350 112.700 357.250 112.600 357.250 112.700 V 118.500 C 357.250 118.600 357.350 118.500 357.250 118.500 H 354.350 C 354.295 118.500 354.250 118.545 354.250 118.600 V 122.100 V 125.100 C 354.250 125.155 354.295 125.200 354.350 125.200 H 357.350 Z" stroke="rgb(0,0,0)" stroke-width="0.20" />
  <path d="M 530.750 125.200 H 536.750 C 536.805 125.200 536.850 125.155 536.850 125.100 V 122.200 C 536.850 122.100 536.750 122.200 536.850 122.200 H 542.650 C 542.750 122.200 542.650 122.100 542.650 122.200 V 125.100 C 542.650 125.155 542.695 125.200 542.750 125.200 H 548.750 C 548.805 125.200 548.850 125.155 548.850 125.100 V 122.200 C 548.850 122.100 548.750 122.200 548.850 122.200 H 554.650 C 554.750 122.200 554.650 122.100 554.650 122.200 V 125.100 C 554.650 125.155 554.695 125.200 554.750 125.200 H 560.750 H 559.914 C 559.969 125.200 560.014 125.155 560.014 125.100 V 122.100 V 118.700 C 560.014 118.600 559.914 118.700 560.014 118.700 H 561.842 C 561.897 118.700 561.942 118.655 561.942 118.600 V 112.600 C 561.942 112.545 561.897 112.500 561.842 112.500 H 560.014 C 559.914 112.500 560.014 112.600 560.014 112.500 V 106.700 C 560.014 106.600 559.914 106.700 560.014 106.700 H 561.842 C 561.897 106.700 561.942 106.655 561.942 106.600 V 100.600 C 561.942 100.545 561.897 100.500 561.842 100.500 H 560.014 C 559.914 100.500 560.014 100.600 560.014 100.500 V 94.700 C 560.014 94.600 559.914 94.700 560.014 94.700 H 561.842 C 561.897 94.700 561.942 94.655 561.942 94.600 V 88.600 C 561.942 88.545 561.897 88.500 561.842 88.500 H 560.014 C 559.914 88.500 560.014 88.600 560.014 88.500 V 82.700 C 560.014 82.600 559.914 82.700 560.014 82.700 H 561.842 C 561.897 82.700 561.942 82.655 561.942 82.600 V 76.600 C 561.942 76.545 561.897 76.500 561.842 76.500 H 560.014 C 559.914 76.500 560.014 76.600 560.014 76.500 V 70.700 C 560.014 70.600 559.914 70.700 560.014 70.700 H 561.842 C 561.897 70.700 561.942 70.655 561.942 70.600 V 64.600 C 561.942 64.545 561.897 64.500 561.842 64.500 H 560.014 C 559.914 64.500 560.014 64.600 560.014 64.500 V 58.700 C 560.014 58.600 559.914 58.700 560.014 58.700 H 561.842 C 561.897 58.700 561.942 58.655 561.942 58.600 V 52.600 C 561.942 52.545 561.897 52.500 561.842 52.500 H 560.014 C 559.914 52.500 560.014 52.600 560.014 52.500 V 46.700 C 560.014 46.600 559.914 46.700 560.014 46.700 H 561.842 C 561.897 46.700 561.942 46.655 561.942 46.600 V 40.600 C 561.942 40.545 561.897 40.500 561.842 40.500 H 560.014 C 559.914 40.500 560.014 40.600 560.014 40.500 V 34.700 C 560.014 34.600 559.914 34.700 560.014 34.700 H 561.842 C 561.897 34.700 561.942 34.655 561.942 34.600 V 28.600 C 561.942 28.545 561.897 28.500 561.842 28.500 H 560.014 C 559.914 28.500 560.014 28.600 560.014 28.500 V 22.700 C 560.014 22.600 559.914 22.700 560.014 22.700 H 561.842 C 561.897 22.700 561.942 22.655 561.942 22.600 V 16.600 C 561.942 16.545 561.897 16.500 561.842 16.500 H 560.014 C 559.914 16.500 560.014 16.600 560.014 16.500 V 13.100 V 10.100 C 560.014 10.045 559.969 10.000 559.914 10.000 H 560.750 H 554.750 C 554.695 10.000 554.650 10.045 554.650 10.100 V 13.000 C 554.650 13.100 554.750 13.000 554.650 13.000 H 548.850 C 548.750 13.000 548.850 13.100 548.850 13.000 V 10.100 C 548.850 10.045 548.805 10.000 548.750 10.000 H 542.750 C 542.695 10.000 542.650 10.045 542.650 10.100 V 13.000 C 542.650 13.100 542.750 13.000 542.650 13.000 H 536.850 C 536.750 13.000 536.850 13.100 536.850 13.000 V 10.100 C 536.850 10.045 536.805 10.000 536.750 10.000 H 530.750 C 530.695 10.000 530.650 10.045 530.650 10.100 V 13.100 V 16.500 C 530.650 16.600 530.750 16.500 530.650 16.500 H 527.750 C 527.695 16.500 527.650 16.545 527.650 16.600 V 22.600 C 527.650 22.655 527.695 22.700 527.750 22.700 H 530.650 C 530.750 22.700 530.650 22.600 530.650 22.700 V 28.500 C 530.650 28.600 530.750 28.500 530.650 28.500 H 527.750 C 527.695 28.500 527.650 28.545 527.650 28.600 V 34.600 C 527.650 34.655 527.695 34.700 527.750 34.700 H 530.650 C 530.750 34.700 530.650 34.600 530.650 34.700 V 40.500 C 530.650 40.600 530.750 40.500 530.650 40.500 H 527.750 C 527.695 40.500 527.650 40.545 527.650 40.600 V 46.600 C 527.650 46.655 527.695 46.700 527.750 46.700 H 530.650 C 530.750 46.700 530.650 46.600 530.650 46.700 V 52.500 C 530.650 52.600 530.750 52.500 530.650 52.500 H 527.750 C 527.695 52.500 527.650 52.545 527.650 52.600 V 58.600 C 527.650 58.655 527.695 58.700 527.750 58.700 H 530.650 C 530.750 58.700 530.650 58.600 530.650 58.700 V 64.500 C 530.650 64.600 530.750 64.500 530.650 64.500 H 527.750 C 527.695 64.500 527.650 64.545 527.650 64.600 V 70.600 C 527.650 70.655 527.695 70.700 527.750 70.700 H 530.650 C 530.750 70.700 530.650 70.600 530.650 70.700 V 76.500 C 530.650 76.600 530.750 76.500 530.650 76.500 H 527.750 C 527.695 76.500 527.650 76.545 527.650 76.600 V 82.600 C 527.650 82.655 527.695 82.700 527.750 82.700 H 530.650 C 530.750 82.700 530.650 82.600 530.650 82.700 V 88.500 C 530.650 88.600 530.750 88.500 530.650 88.500 H 527.750 C 527.695 88.500 527.650 88.545 527.650 88.600 V 94.600 C 527.650 94.655 527.695 94.700 527.750 94.700 H 530.650 C 530.750 94.700 530.650 94.600 530.650 94.700 V 100.500 C 530.650 100.600 530.750 100.500 530.650 100.500 H 527.750 C 527.695 100.500 527.650 100.545 527.650 100.600 V 106.600 C 527.650 106.655 527.695 106.700 527.750 106.700 H 530.650 C 530.750 106.700 530.650 106.600 530.650 106.700 V 112.500 C 530.650 112.600 530.750 112.500 530.650 112.500 H 527.750 C 527.695 112.500 527.650 112.545 527.650 112.600 V 118.600 C 527.650 118.655 527.695 118.700 527.750 118.700 H 530.650 C 530.750 118.700 530.650 118.600 530.650 118.700 V 122.100 V 125.100 C 530.650 125.155 530.695 125.200 530.750 125.200 Z" stroke="rgb(0,0,0)" stroke-width="0.20" />
  <path d="M 568.242 125.200 H 571.015 C 571.070 125.200 571.115 125.155 571.115 125.100 V 122.200 C 571.115 122.100 571.015 122.200 571.115 122.200 H 576.915 C 577.015 122.200 576.915 122.100 576.915 122.200 V 125.100 C 576.915 125.155 576.960 125.200 577.015 125.200 H 583.015 C 583.070 125.200 583.115 125.155 583.115 125.100 V 122.200 C 583.115 122.100 583.015 122.200 583.115 122.200 H 588.915 C 589.015 122.200 588.915 122.100 588.915 122.200 V 125.100 C 588.915 125.155 588.960 125.200 589.015 125.200 H 595.015 C 595.070 125.200 595.115 125.155 595.115 125.100 V 122.200 C 595.115 122.100 595.015 122.200 595.115 122.200 H 600.915 C 601.015 122.200 600.915 122.100 600.915 122.200 V 125.100 C 600.915 125.155 600.960 125.200 601.015 125.200 H 607.015 C 607.070 125.200 607.115 125.155 607.115 125.100 V 122.200 C 607.115 122.100 607.015 122.200 607.115 122.200 H 612.915 C 613.015 122.200 612.915 122.100 612.915 122.200 V 125.100 C 612.915 125.155 612.960 125.200 613.015 125.200 H 619.015 C 619.070 125.200 619.115 125.155 619.115 125.100 V 122.200 C 619.115 122.100 619.015 122.200 619.115 122.200 H 624.915 C 625.015 122.200 624.915 122.100 624.915 122.200 V 125.100 C 624.915 125.155 624.960 125.200 625.015 125.200 H 631.015 C 631.070 125.200 631.115 125.155 631.115 125.100 V 122.200 C 631.115 122.100 631.015 122.200 631.115 122.200 H 636.915 C 637.015 122.200 636.915 122.100 636.915 122.200 V 125.100 C 636.915 125.155 636.960 125.200 637.015 125.200 H 643.015 C 643.070 125.200 643.115 125.155 643.115 125.100 V 122.200 C 643.115 122.100 643.015 122.200 643.115 122.200 H 648.915 C 649.015 122.200 648.915 122.100 648.915 122.200 V 125.100 C 648.915 125.155 648.960 125.200 649.015 125.200 H 651.788 H 653.187 C 653.242 125.200 653.287 125.155 653.287 125.100 V 122.100 V 118.600 C 653.287 118.545 653.242 118.500 653.187 118.500 H 650.989 C 650.889 118.500 650.989 118.600 650.989 118.500 V 112.700 C 650.989 112.600 650.889 112.700 650.989 112.700 H 653.187 C 653.242 112.700 653.287 112.655 653.287 112.600 V 106.600 C 653.287 106.545 653.242 106.500 653.187 106.500 H 650.989 C 650.889 106.500 650.989 106.600 650.989 106.500 V 100.700 C 650.989 100.600 650.889 100.700 650.989 100.700 H 653.187 C 653.242 100.700 653.287 100.655 653.287 100.600 V 94.600 C 653.287 94.545 653.242 94.500 653.187 94.500 H 650.989 C 650.889 94.500 650.989 94.600 650.989 94.500 V 88.700 C 650.989 88.600 650.889 88.700 650.989 88.700 H 653.187 C 653.242 88.700 653.287 88.655 653.287 88.600 V 82.600 C 653.287 82.545 653.242 82.500 653.187 82.500 H 650.989 C 650.889 82.500 650.989 82.600 650.989 82.500 V 76.700 C 650.989 76.600 650.889 76.700 650.989 76.700 H 653.187 C 653.242 76.700 653.287 76.655 653.287 76.600 V 70.600 C 653.287 70.545 653.242 70.500 653.187 70.500 H 650.989 C 650.889 70.500 650.989 70.600 650.989 70.500 V 64.700 C 650.989 64.600 650.889 64.700 650.989 64.700 H 653.187 C 653.242 64.700 653.287 64.655 653.287 64.600 V 58.600 C 653.287 58.545 653.242 58.500 653.187 58.500 H 650.989 C 650.889 58.500 650.989 58.600 650.989 58.500 V 52.700 C 650.989 52.600 650.889 52.700 650.989 52.700 H 653.187 C 653.242 52.700 653.287 52.655 653.287 52.600 V 46.600 C 653.287 46.545 653.242 46.500 653.187 46.500 H 650.989 C 650.889 46.500 650.989 46.600 650.989 46.500 V 40.700 C 650.989 40.600 650.889 40.700 650.989 40.700 H 653.187 C 653.242 40.700 653.287 40.655 653.287 40.600 V 34.600 C 653.287 34.545 653.242 34.500 653.187 34.500 H 650.989 C 650.889 34.500 650.989 34.600 650.989 34.500 V 28.700 C 650.989 28.600 650.889 28.700 650.989 28.700 H 653.187 C 653.242 28.700 653.287 28.655 653.287 28.600 V 22.600 C 653.287 22.545 653.242 22.500 653.187 22.500 H 650.989 C 650.889 22.500 650.989 22.600 650.989 22.500 V 16.700 C 650.989 16.600 650.889 16.700 650.989 16.700 H 653.187 C 653.242 16.700 653.287 16.655 653.287 16.600 V 13.100 V 10.100 C 653.287 10.045 653.242 10.000 653.187 10.000 H 651.788 H 649.015 C 648.960 10.000 648.915 10.045 648.915 10.100 V 13.000 C 648.915 13.100 649.015 13.000 648.915 13.000 H 643.115 C 643.015 13.000 643.115 13.100 643.115 13.000 V 10.100 C 643.115 10.045 643.070 10.000 643.015 10.000 H 637.015 C 636.960 10.000 636.915 10.045 636.915 10.100 V 13.000 C 636.915 13.100 637.015 13.000 636.915 13.000 H 631.115 C 631.015 13.000 631.115 13.100 631.115 13.000 V 10.100 C 631.115 10.045 631.070 10.000 631.015 10.000 H 625.015 C 624.960 10.000 624.915 10.045 624.915 10.100 V 13.000 C 624.915 13.100 625.015 13.000 624.915 13.000 H 619.115 C 619.015 13.000 619.115 13.100 619.115 13.000 V 10.100 C 619.115 10.045 619.070 10.000 619.015 10.000 H 613.015 C 612.960 10.000 612.915 10.045 612.915 10.100 V 13.000 C 612.915 13.100 613.015 13.000 612.915 13.000 H 607.115 C 607.015 13.000 607.115 13.100 607.115 13.000 V 10.100 C 607.115 10.045 607.070 10.000 607.015 10.000 H 601.015 C 600.960 10.000 600.915 10.045 600.915 10.100 V 13.000 C 600.915 13.100 601.015 13.000 600.915 13.000 H 595.115 C 595.015 13.000 595.115 13.100 595.115 13.000 V 10.100 C 595.115 10.045 595.070 10.000 595.015 10.000 H 589.015 C 588.960 10.000 588.915 10.045 588.915 10.100 V 13.000 C 588.915 13.100 589.015 13.000 588.915 13.000 H 583.115 C 583.015 13.000 583.115 13.100 583.115 13.000 V 10.100 C 583.115 10.045 583.070 10.000 583.015 10.000 H 577.015 C 576.960 10.000 576.915 10.045 576.915 10.100 V 13.000 C 576.915 13.100 577.015 13.000 576.915 13.000 H 571.115 C 571.015 13.000 571.115 13.100 571.115 13.000 V 10.100 C 571.115 10.045 571.070 10.000 571.015 10.000 H 568.242 H 567.150 C 567.095 10.000 567.050 10.045 567.050 10.100 V 13.100 V 16.600 C 567.050 16.655 567.095 16.700 567.150 16.700 H 568.978 C 569.078 16.700 568.978 16.600 568.978 16.700 V 22.500 C 568.978 22.600 569.078 22.500 568.978 22.500 H 567.150 C 567.095 22.500 567.050 22.545 567.050 22.600 V 28.600 C 567.050 28.655 567.095 28.700 567.150 28.700 H 568.978 C 569.078 28.700 568.978 28.600 568.978 28.700 V 34.500 C 568.978 34.600 569.078 34.500 568.978 34.500 H 567.150 C 567.095 34.500 567.050 34.545 567.050 34.600 V 40.600 C 567.050 40.655 567.095 40.700 567.150 40.700 H 568.978 C 569.078 40.700 568.978 40.600 568.978 40.700 V 46.500 C 568.978 46.600 569.078 46.500 568.978 46.500 H 567.150 C 567.095 46.500 567.050 46.545 567.050 46.600 V 52.600 C 567.050 52.655 567.095 52.700 567.150 52.700 H 568.978 C 569.078 52.700 568.978 52.600 568.978 52.700 V 58.500 C 568.978 58.600 569.078 58.500 568.978 58.500 H 567.150 C 567.095 58.500 567.050 58.545 567.050 58.600 V 64.600 C 567.050 64.655 567.095 64.700 567.150 64.700 H 568.978 C 569.078 64.700 568.978 64.600 568.978 64.700 V 70.500 C 568.978 70.600 569.078 70.500 568.978 70.500 H 567.150 C 567.095 70.500 567.050 70.545 567.050 70.600 V 76.600 C 567.050 76.655 567.095 76.700 567.150 76.700 H 568.978 C 569.078 76.700 568.978 76.600 568.978 76.700 V 82.500 C 568.978 82.600 569.078 82.500 568.978 82.500 H 567.150 C 567.095 82.500 567.050 82.545 567.050 82.600 V 88.600 C 567.050 88.655 567.095 88.700 567.150 88.700 H 568.978 C 569.078 88.700 568.978 88.600 568.978 88.700 V 94.500 C 568.978 94.600 569.078 94.500 568.978 94.500 H 567.150 C 567.095 94.500 567.050 94.545 567.050 94.600 V 100.600 C 567.050 100.655 567.095 100.700 567.150 100.700 H 568.978 C 569.078 100.700 568.978 100.600 568.978 100.700 V 106.500 C 568.978 106.600 569.078 106.500 568.978 106.500 H 567.150 C 567.095 106.500 567.050 106.545 567.050 106.600 V 112.600 C 567.050 112.655 567.095 112.700 567.150 112.700 H 568.978 C 569.078 112.700 568.978 112.600 568.978 112.700 V 118.500 C 568.978 118.600 569.078 118.500 568.978 118.500 H 567.150 C 567.095 118.500 567.050 118.545 567.050 118.600 V 122.100 V 125.100 C 567.050 125.155 567.095 125.200 567.150 125.200 H 568.242 Z" stroke="rgb(0,0,0)" stroke-width="0.20" />
  <path d="M 657.679 125.200 H 661.828 C 661.883 125.200 661.928 125.155 661.928 125.100 V 122.200 C 661.928 122.100 661.828 122.200 661.928 122.200 H 667.728 C 667.828 122.200 667.728 122.100 667.728 122.200 V 125.100 C 667.728 125.155 667.772 125.200 667.828 125.200 H 673.828 C 673.883 125.200 673.928 125.155 673.928 125.100 V 122.200 C 673.928 122.100 673.828 122.200 673.928 122.200 H 679.728 C 679.828 122.200 679.728 122.100 679.728 122.200 V 125.100 C 679.728 125.155 679.772 125.200 679.828 125.200 H 685.828 C 685.883 125.200 685.928 125.155 685.928 125.100 V 122.200 C 685.928 122.100 685.828 122.200 685.928 122.200 H 691.728 C 691.828 122.200 691.728 122.100 691.728 122.200 V 125.100 C 691.728 125.155 691.772 125.200 691.828 125.200 H 697.828 C 697.883 125.200 697.928 125.155 697.928 125.100 V 122.200 C 697.928 122.100 697.828 122.200 697.928 122.200 H 703.728 C 703.828 122.200 703.728 122.100 703.728 122.200 V 125.100 C 703.728 125.155 703.772 125.200 703.828 125.200 H 709.828 C 709.883 125.200 709.928 125.155 709.928 125.100 V 122.200 C 709.928 122.100 709.828 122.200 709.928 122.200 H 715.728 C 715.828 122.200 715.728 122.100 715.728 122.200 V 125.100 C 715.728 125.155 715.772 125.200 715.828 125.200 H 721.828 C 721.883 125.200 721.928 125.155 721.928 125.100 V 122.200 C 721.928 122.100 721.828 122.200 721.928 122.200 H 727.728 C 727.828 122.200 727.728 122.100 727.728 122.200 V 125.100 C 727.728 125.155 727.772 125.200 727.828 125.200 H 733.828 C 733.883 125.200 733.928 125.155 733.928 125.100 V 122.200 C 733.928 122.100 733.828 122.200 733.928 122.200 H 739.728 C 739.828 122.200 739.728 122.100 739.728 122.200 V 125.100 C 739.728 125.155 739.772 125.200 739.828 125.200 H 745.828 C 745.883 125.200 745.928 125.155 745.928 125.100 V 122.200 C 745.928 122.100 745.828 122.200 745.928 122.200 H 751.728 C 751.828 122.200 751.728 122.100 751.728 122.200 V 125.100 C 751.728 125.155 751.772 125.200 751.828 125.200 H 757.828 C 757.883 125.200 757.928 125.155 757.928 125.100 V 122.200 C 757.928 122.100 757.828 122.200 757.928 122.200 H 763.728 C 763.828 122.200 763.728 122.100 763.728 122.200 V 125.100 C 763.728 125.155 763.772 125.200 763.828 125.200 H 767.976 C 768.032 125.200 768.076 125.155 768.076 125.100 V 122.100 V 118.700 C 768.076 118.600 767.976 118.700 768.076 118.700 H 770.976 C 771.032 118.700 771.076 118.655 771.076 118.600 V 112.600 C 771.076 112.545 771.032 112.500 770.976 112.500 H 768.076 C 767.976 112.500 768.076 112.600 768.076 112.500 V 106.700 C 768.076 106.600 767.976 106.700 768.076 106.700 H 770.976 C 771.032 106.700 771.076 106.655 771.076 106.600 V 100.600 C 771.076 100.545 771.032 100.500 770.976 100.500 H 768.076 C 767.976 100.500 768.076 100.600 768.076 100.500 V 94.700 C 768.076 94.600 767.976 94.700 768.076 94.700 H 770.976 C 771.032 94.700 771.076 94.655 771.076 94.600 V 88.600 C 771.076 88.545 771.032 88.500 770.976 88.500 H 768.076 C 767.976 88.500 768.076 88.600 768.076 88.500 V 82.700 C 768.076 82.600 767.976 82.700 768.076 82.700 H 770.976 C 771.032 82.700 771.076 82.655 771.076 82.600 V 76.600 C 771.076 76.545 771.032 76.500 770.976 76.500 H 768.076 C 767.976 76.500 768.076 76.600 768.076 76.500 V 70.700 C 768.076 70.600 767.976 70.700 768.076 70.700 H 770.976 C 771.032 70.700 771.076 70.655 771.076 70.600 V 64.600 C 771.076 64.545 771.032 64.500 770.976 64.500 H 768.076 C 767.976 64.500 768.076 64.600 768.076 64.500 V 58.700 C 768.076 58.600 767.976 58.700 768.076 58.700 H 770.976 C 771.032 58.700 771.076 58.655 771.076 58.600 V 52.600 C 771.076 52.545 771.032 52.500 770.976 52.500 H 768.076 C 767.976 52.500 768.076 52.600 768.076 52.500 V 46.700 C 768.076 46.600 767.976 46.700 768.076 46.700 H 770.976 C 771.032 46.700 771.076 46.655 771.076 46.600 V 40.600 C 771.076 40.545 771.032 40.500 770.976 40.500 H 768.076 C 767.976 40.500 768.076 40.600 768.076 40.500 V 34.700 C 768.076 34.600 767.976 34.700 768.076 34.700 H 770.976 C 771.032 34.700 771.076 34.655 771.076 34.600 V 28.600 C 771.076 28.545 771.032 28.500 770.976 28.500 H 768.076 C 767.976 28.500 768.076 28.600 768.076 28.500 V 22.700 C 768.076 22.600 767.976 22.700 768.076 22.700 H 770.976 C 771.032 22.700 771.076 22.655 771.076 22.600 V 16.600 C 771.076 16.545 771.032 16.500 770.976 16.500 H 768.076 C 767.976 16.500 768.076 16.600 768.076 16.500 V 13.100 V 10.100 C 768.076 10.045 768.032 10.000 767.976 10.000 H 763.828 C 763.772 10.000 763.728 10.045 763.728 10.100 V 13.000 C 763.728 13.100 763.828 13.000 763.728 13.000 H 757.928 C 757.828 13.000 757.928 13.100 757.928 13.000 V 10.100 C 757.928 10.045 757.883 10.000 757.828 10.000 H 751.828 C 751.772 10.000 751.728 10.045 751.728 10.100 V 13.000 C 751.728 13.100 751.828 13.000 751.728 13.000 H 745.928 C 745.828 13.000 745.928 13.100 745.928 13.000 V 10.100 C 745.928 10.045 745.883 10.000 745.828 10.000 H 739.828 C 739.772 10.000 739.728 10.045 739.728 10.100 V 13.000 C 739.728 13.100 739.828 13.000 739.728 13.000 H 733.928 C 733.828 13.000 733.928 13.100 733.928 13.000 V 10.100 C 733.928 10.045 733.883 10.000 733.828 10.000 H 727.828 C 727.772 10.000 727.728 10.045 727.728 10.100 V 13.000 C 727.728 13.100 727.828 13.000 727.728 13.000 H 721.928 C 721.828 13.000 721.928 13.100 721.928 13.000 V 10.100 C 721.928 10.045 721.883 10.000 721.828 10.000 H 715.828 C 715.772 10.000 715.728 10.045 715.728 10.100 V 13.000 C 715.728 13.100 715.828 13.000 715.728 13.000 H 709.928 C 709.828 13.000 709.928 13.100 709.928 13.000 V 10.100 C 709.928 10.045 709.883 10.000 709.828 10.000 H 703.828 C 703.772 10.000 703.728 10.045 703.728 10.100 V 13.000 C 703.728 13.100 703.828 13.000 703.728 13.000 H 697.928 C 697.828 13.000 697.928 13.100 697.928 13.000 V 10.100 C 697.928 10.045 697.883 10.000 697.828 10.000 H 691.828 C 691.772 10.000 691.728 10.045 691.728 10.100 V 13.000 C 691.728 13.100 691.828 13.000 691.728 13.000 H 685.928 C 685.828 13.000 685.928 13.100 685.928 13.000 V 10.100 C 685.928 10.045 685.883 10.000 685.828 10.000 H 679.828 C 679.772 10.000 679.728 10.045 679.728 10.100 V 13.000 C 679.728 13.100 679.828 13.000 679.728 13.000 H 673.928 C 673.828 13.000 673.928 13.100 673.928 13.000 V 10.100 C 673.928 10.045 673.883 10.000 673.828 10.000 H 667.828 C 667.772 10.000 667.728 10.045 667.728 10.100 V 13.000 C 667.728 13.100 667.828 13.000 667.728 13.000 H 661.928 C 661.828 13.000 661.928 13.100 661.928 13.000 V 10.100 C 661.928 10.045 661.883 10.000 661.828 10.000 H 657.679 H 658.578 C 658.523 10.000 658.478 10.045 658.478 10.100 V 13.100 V 16.500 C 658.478 16.600 658.578 16.500 658.478 16.500 H 656.280 C 656.225 16.500 656.180 16.545 656.180 16.600 V 22.600 C 656.180 22.655 656.225 22.700 656.280 22.700 H 658.478 C 658.578 22.700 658.478 22.600 658.478 22.700 V 28.500 C 658.478 28.600 658.578 28.500 658.478 28.500 H 656.280 C 656.225 28.500 656.180 28.545 656.180 28.600 V 34.600 C 656.180 34.655 656.225 34.700 656.280 34.700 H 658.478 C 658.578 34.700 658.478 34.600 658.478 34.700 V 40.500 C 658.478 40.600 658.578 40.500 658.478 40.500 H 656.280 C 656.225 40.500 656.180 40.545 656.180 40.600 V 46.600 C 656.180 46.655 656.225 46.700 656.280 46.700 H 658.478 C 658.578 46.700 658.478 46.600 658.478 46.700 V 52.500 C 658.478 52.600 658.578 52.500 658.478 52.500 H 656.280 C 656.225 52.500 656.180 52.545 656.180 52.600 V 58.600 C 656.180 58.655 656.225 58.700 656.280 58.700 H 658.478 C 658.578 58.700 658.478 58.600 658.478 58.700 V 64.500 C 658.478 64.600 658.578 64.500 658.478 64.500 H 656.280 C 656.225 64.500 656.180 64.545 656.180 64.600 V 70.600 C 656.180 70.655 656.225 70.700 656.280 70.700 H 658.478 C 658.578 70.700 658.478 70.600 658.478 70.700 V 76.500 C 658.478 76.600 658.578 76.500 658.478 76.500 H 656.280 C 656.225 76.500 656.180 76.545 656.180 76.600 V 82.600 C 656.180 82.655 656.225 82.700 656.280 82.700 H 658.478 C 658.578 82.700 658.478 82.600 658.478 82.700 V 88.500 C 658.478 88.600 658.578 88.500 658.478 88.500 H 656.280 C 656.225 88.500 656.180 88.545 656.180 88.600 V 94.600 C 656.180 94.655 656.225 94.700 656.280 94.700 H 658.478 C 658.578 94.700 658.478 94.600 658.478 94.700 V 100.500 C 658.478 100.600 658.578 100.500 658.478 100.500 H 656.280 C 656.225 100.500 656.180 100.545 656.180 100.600 V 106.600 C 656.180 106.655 656.225 106.700 656.280 106.700 H 658.478 C 658.578 106.700 658.478 106.600 658.478 106.700 V 112.500 C 658.478 112.600 658.578 112.500 658.478 112.500 H 656.280 C 656.225 112.500 656.180 112.545 656.180 112.600 V 118.600 C 656.180 118.655 656.225 118.700 656.280 118.700 H 658.478 C 658.578 118.700 658.478 118.600 658.478 118.700 V 122.100 V 125.100 C 658.478 125.155 658.523 125.200 658.578 125.200 H 657.679 Z" stroke="rgb(0,0,0)" stroke-width="0.20" />
  <path d="M 775.775 125.200 H 777.775 C 777.831 125.200 777.875 125.155 777.875 125.100 V 122.200 C 777.875 122.100 777.775 122.200 777.875 122.200 H 783.675 C 783.775 122.200 783.675 122.100 783.675 122.200 V 125.100 C 783.675 125.155 783.720 125.200 783.775 125.200 H 789.775 C 789.831 125.200 789.875 125.155 789.875 125.100 V 122.200 C 789.875 122.100 789.775 122.200 789.875 122.200 H 795.675 C 795.775 122.200 795.675 122.100 795.675 122.200 V 125.100 C 795.675 125.155 795.720 125.200 795.775 125.200 H 801.775 C 801.831 125.200 801.875 125.155 801.875 125.100 V 122.200 C 801.875 122.100 801.775 122.200 801.875 122.200 H 807.675 C 807.775 122.200 807.675 122.100 807.675 122.200 V 125.100 C 807.675 125.155 807.720 125.200 807.775 125.200 H 813.775 C 813.831 125.200 813.875 125.155 813.875 125.100 V 122.200 C 813.875 122.100 813.775 122.200 813.875 122.200 H 819.675 C 819.775 122.200 819.675 122.100 819.675 122.200 V 125.100 C 819.675 125.155 819.720 125.200 819.775 125.200 H 825.775 C 825.831 125.200 825.875 125.155 825.875 125.100 V 122.200 C 825.875 122.100 825.775 122.200 825.875 122.200 H 831.675 C 831.775 122.200 831.675 122.100 831.675 122.200 V 125.100 C 831.675 125.155 831.720 125.200 831.775 125.200 H 837.775 C 837.831 125.200 837.875 125.155 837.875 125.100 V 122.200 C 837.875 122.100 837.775 122.200 837.875 122.200 H 843.675 C 843.775 122.200 843.675 122.100 843.675 122.200 V 125.100 C 843.675 125.155 843.720 125.200 843.775 125.200 H 849.775 C 849.831 125.200 849.875 125.155 849.875 125.100 V 122.200 C 849.875 122.100 849.775 122.200 849.875 122.200 H 855.675 C 855.775 122.200 855.675 122.100 855.675 122.200 V 125.100 C 855.675 125.155 855.720 125.200 855.775 125.200 H 861.775 C 861.831 125.200 861.875 125.155 861.875 125.100 V 122.200 C 861.875 122.100 861.775 122.200 861.875 122.200 H 867.675 C 867.775 122.200 867.675 122.100 867.675 122.200 V 125.100 C 867.675 125.155 867.720 125.200 867.775 125.200 H 869.775 C 869.831 125.200 869.875 125.155 869.875 125.100 V 122.100 V 118.700 C 869.875 118.600 869.775 118.700 869.875 118.700 H 872.775 C 872.831 118.700 872.875 118.655 872.875 118.600 V 112.600 C 872.875 112.545 872.831 112.500 872.775 112.500 H 869.875 C 869.775 112.500 869.875 112.600 869.875 112.500 V 106.700 C 869.875 106.600 869.775 106.700 869.875 106.700 H 872.775 C 872.831 106.700 872.875 106.655 872.875 106.600 V 100.600 C 872.875 100.545 872.831 100.500 872.775 100.500 H 869.875 C 869.775 100.500 869.875 100.600 869.875 100.500 V 94.700 C 869.875 94.600 869.775 94.700 869.875 94.700 H 872.775 C 872.831 94.700 872.875 94.655 872.875 94.600 V 88.600 C 872.875 88.545 872.831 88.500 872.775 88.500 H 869.875 C 869.775 88.500 869.875 88.600 869.875 88.500 V 82.700 C 869.875 82.600 869.775 82.700 869.875 82.700 H 872.775 C 872.831 82.700 872.875 82.655 872.875 82.600 V 76.600 C 872.875 76.545 872.831 76.500 872.775 76.500 H 869.875 C 869.775 76.500 869.875 76.600 869.875 76.500 V 70.700 C 869.875 70.600 869.775 70.700 869.875 70.700 H 872.775 C 872.831 70.700 872.875 70.655 872.875 70.600 V 64.600 C 872.875 64.545 872.831 64.500 872.775 64.500 H 869.875 C 869.775 64.500 869.875 64.600 869.875 64.500 V 58.700 C 869.875 58.600 869.775 58.700 869.875 58.700 H 872.775 C 872.831 58.700 872.875 58.655 872.875 58.600 V 52.600 C 872.875 52.545 872.831 52.500 872.775 52.500 H 869.875 C 869.775 52.500 869.875 52.600 869.875 52.500 V 46.700 C 869.875 46.600 869.775 46.700 869.875 46.700 H 872.775 C 872.831 46.700 872.875 46.655 872.875 46.600 V 40.600 C 872.875 40.545 872.831 40.500 872.775 40.500 H 869.875 C 869.775 40.500 869.875 40.600 869.875 40.500 V 34.700 C 869.875 34.600 869.775 34.700 869.875 34.700 H 872.775 C 872.831 34.700 872.875 34.655 872.875 34.600 V 28.600 C 872.875 28.545 872.831 28.500 872.775 28.500 H 869.875 C 869.775 28.500 869.875 28.600 869.875 28.500 V 22.700 C 869.875 22.600 869.775 22.700 869.875 22.700 H 872.775 C 872.831 22.700 872.875 22.655 872.875 22.600 V 16.600 C 872.875 16.545 872.831 16.500 872.775 16.500 H 869.875 C 869.775 16.500 869.875 16.600 869.875 16.500 V 13.100 V 10.100 C 869.875 10.045 869.831 10.000 869.775 10.000 H 867.775 C 867.720 10.000 867.675 10.045 867.675 10.100 V 13.000 C 867.675 13.100 867.775 13.000 867.675 13.000 H 861.875 C 861.775 13.000 861.875 13.100 861.875 13.000 V 10.100 C 861.875 10.045 861.831 10.000 861.775 10.000 H 855.775 C 855.720 10.000 855.675 10.045 855.675 10.100 V 13.000 C 855.675 13.100 855.775 13.000 855.675 13.000 H 849.875 C 849.775 13.000 849.875 13.100 849.875 13.000 V 10.100 C 849.875 10.045 849.831 10.000 849.775 10.000 H 843.775 C 843.720 10.000 843.675 10.045 843.675 10.100 V 13.000 C 843.675 13.100 843.775 13.000 843.675 13.000 H 837.875 C 837.775 13.000 837.875 13.100 837.875 13.000 V 10.100 C 837.875 10.045 837.831 10.000 837.775 10.000 H 831.775 C 831.720 10.000 831.675 10.045 831.675 10.100 V 13.000 C 831.675 13.100 831.775 13.000 831.675 13.000 H 825.875 C 825.775 13.000 825.875 13.100 825.875 13.000 V 10.100 C 825.875 10.045 825.831 10.000 825.775 10.000 H 819.775 C 819.720 10.000 819.675 10.045 819.675 10.100 V 13.000 C 819.675 13.100 819.775 13.000 819.675 13.000 H 813.875 C 813.775 13.000 813.875 13.100 813.875 13.000 V 10.100 C 813.875 10.045 813.831 10.000 813.775 10.000 H 807.775 C 807.720 10.000 807.675 10.045 807.675 10.100 V 13.000 C 807.675 13.100 807.775 13.000 807.675 13.000 H 801.875 C 801.775 13.000 801.875 13.100 801.875 13.000 V 10.100 C 801.875 10.045 801.831 10.000 801.775 10.000 H 795.775 C 795.720 10.000 795.675 10.045 795.675 10.100 V 13.000 C 795.675 13.100 795.775 13.000 795.675 13.000 H 789.875 C 789.775 13.000 789.875 13.100 789.875 13.000 V 10.100 C 789.875 10.045 789.831 10.000 789.775 10.000 H 783.775 C 783.720 10.000 783.675 10.045 783.675 10.100 V 13.000 C 783.675 13.100 783.775 13.000 783.675 13.000 H 777.875 C 777.775 13.000 777.875 13.100 777.875 13.000 V 10.100 C 777.875 10.045 777.831 10.000 777.775 10.000 H 775.775 H 772.775 C 772.720 10.000 772.675 10.045 772.675 10.100 V 13.100 V 16.600 C 772.675 16.655 772.720 16.700 772.775 16.700 H 775.675 C 775.775 16.700 775.675 16.600 775.675 16.700 V 22.500 C 775.675 22.600 775.775 22.500 775.675 22.500 H 772.775 C 772.720 22.500 772.675 22.545 772.675 22.600 V 28.600 C 772.675 28.655 772.720 28.700 772.775 28.700 H 775.675 C 775.775 28.700 775.675 28.600 775.675 28.700 V 34.500 C 775.675 34.600 775.775 34.500 775.675 34.500 H 772.775 C 772.720 34.500 772.675 34.545 772.675 34.600 V 40.600 C 772.675 40.655 772.720 40.700 772.775 40.700 H 775.675 C 775.775 40.700 775.675 40.600 775.675 40.700 V 46.500 C 775.675 46.600 775.775 46.500 775.675 46.500 H 772.775 C 772.720 46.500 772.675 46.545 772.675 46.600 V 52.600 C 772.675 52.655 772.720 52.700 772.775 52.700 H 775.675 C 775.775 52.700 775.675 52.600 775.675 52.700 V 58.500 C 775.675 58.600 775.775 58.500 775.675 58.500 H 772.775 C 772.720 58.500 772.675 58.545 772.675 58.600 V 64.600 C 772.675 64.655 772.720 64.700 772.775 64.700 H 775.675 C 775.775 64.700 775.675 64.600 775.675 64.700 V 70.500 C 775.675 70.600 775.775 70.500 775.675 70.500 H 772.775 C 772.720 70.500 772.675 70.545 772.675 70.600 V 76.600 C 772.675 76.655 772.720 76.700 772.775 76.700 H 775.675 C 775.775 76.700 775.675 76.600 775.675 76.700 V 82.500 C 775.675 82.600 775.775 82.500 775.675 82.500 H 772.775 C 772.720 82.500 772.675 82.545 772.675 82.600 V 88.600 C 772.675 88.655 772.720 88.700 772.775 88.700 H 775.675 C 775.775 88.700 775.675 88.600 775.675 88.700 V 94.500 C 775.675 94.600 775.775 94.500 775.675 94.500 H 772.775 C 772.720 94.500 772.675 94.545 772.675 94.600 V 100.600 C 772.675 100.655 772.720 100.700 772.775 100.700 H 775.675 C 775.775 100.700 775.675 100.600 775.675 100.700 V 106.500 C 775.675 106.600 775.775 106.500 775.675 106.500 H 772.775 C 772.720 106.500 772.675 106.545 772.675 106.600 V 112.600 C 772.675 112.655 772.720 112.700 772.775 112.700 H 775.675 C 775.775 112.700 775.675 112.600 775.675 112.700 V 118.500 C 775.675 118.600 775.775 118.500 775.675 118.500 H 772.775 C 772.720 118.500 772.675 118.545 772.675 118.600 V 122.100 V 125.100 C 772.675 125.155 772.720 125.200 772.775 125.200 H 775.775 Z" stroke="rgb(0,0,0)" stroke-width="0.20" />
</g>
</svg>