<?xml version="1.0" encoding="UTF-8" standalone="no"?>
<svg
   xmlns:dc="http://purl.org/dc/elements/1.1/"
   xmlns:cc="http://creativecommons.org/ns#"
   xmlns:rdf="http://www.w3.org/1999/02/22-rdf-syntax-ns#"
   xmlns:svg="http://www.w3.org/2000/svg"
   xmlns="http://www.w3.org/2000/svg"
   xmlns:sodipodi="http://sodipodi.sourceforge.net/DTD/sodipodi-0.dtd"
   xmlns:inkscape="http://www.inkscape.org/namespaces/inkscape"
   width="210mm"
   height="297mm"
   viewBox="0 0 210 297"
   version="1.1"
   id="svg8"
   inkscape:version="1.0.1 (3bc2e813f5, 2020-09-07)"
   sodipodi:docname="Hirsch_Blumen.svg">
  <defs
     id="defs2" />
  <sodipodi:namedview
     id="base"
     pagecolor="#ffffff"
     bordercolor="#666666"
     borderopacity="1.0"
     inkscape:pageopacity="0.0"
     inkscape:pageshadow="2"
     inkscape:zoom="2.0459528"
     inkscape:cx="289.9599"
     inkscape:cy="310.46212"
     inkscape:document-units="mm"
     inkscape:current-layer="layer1"
     inkscape:document-rotation="0"
     showgrid="false"
     inkscape:window-width="1920"
     inkscape:window-height="1017"
     inkscape:window-x="-8"
     inkscape:window-y="-8"
     inkscape:window-maximized="1"
     inkscape:snap-global="false" />
  <metadata
     id="metadata5">
    <rdf:RDF>
      <cc:Work
         rdf:about="">
        <dc:format>image/svg+xml</dc:format>
        <dc:type
           rdf:resource="http://purl.org/dc/dcmitype/StillImage" />
        <dc:title></dc:title>
      </cc:Work>
    </rdf:RDF>
  </metadata>
  <g
     inkscape:label="Ebene 1"
     inkscape:groupmode="layer"
     id="layer1"
     style="display:inline">
    <path
       style="fill:none;stroke:#000000;stroke-width:0.2;stroke-linejoin:bevel;stroke-miterlimit:4;stroke-dasharray:none;stroke-opacity:1;paint-order:markers stroke fill"
       d="m 54.141273,67.027543 c 1.101169,0.693828 1.793455,1.285436 2.392393,1.853707 0.647006,0.591497 1.403436,1.182993 1.568522,1.77449 -1.892203,-1.045916 -3.428771,-2.253484 -5.733867,-3.111721 l -1.275923,-0.438114 c -0.204994,1.97239 -0.08819,3.489915 0.03579,4.06855 0.515867,3.218511 3.047999,3.898285 4.324786,5.20295 0.14324,0.17261 0.08635,0.32641 -0.25192,0.68102 -0.59903,0.62797 -2.23245,3.05376 -2.76786,4.11053 -0.35156,0.69393 -0.47047,1.23599 -0.59278,2.70253 -0.08416,1.00897 -0.23298,2.71895 -0.33078,3.79997 -0.09776,1.08101 -0.24534,3.1079 -0.32804,4.50421 -0.35473,5.992374 -0.01386,9.620055 -0.0049,10.154965 0.0682,1.50051 0.635983,4.91036 0.635983,4.91036 0.761991,5.18741 1.746721,11.78813 3.67521,15.63023 0.19137,0.34736 0.26532,0.60317 0.32372,1.12059 0.01781,0.15765 0.08219,0.28663 0.14309,0.28663 1.36094,4.3778 4.442132,8.36887 6.50802,11.79287 0.06094,0 0.19314,0.20269 0.29378,0.45042 6.854623,11.91009 6.13446,27.02338 6.62641,39.46737 0.1856,0.79955 0.33665,2.204 0.36955,3.43588 0.01009,0.37757 0.06501,0.61088 0.12211,0.51858 0.06272,-0.10144 0.14112,-0.0706 0.19812,0.078 0.05189,0.13522 -0.01031,0.28601 -0.13823,0.33511 -0.12788,0.0491 -0.19028,0.19948 -0.13858,0.33421 0.0517,0.13473 -0.27386,1.07726 -0.72347,2.09451 -0.44962,1.01727 -1.01095,2.32865 -1.24741,2.9142 -0.23647,0.58555 -0.50181,1.19262 -0.58961,1.34904 -0.08778,0.15643 -0.16019,0.37755 -0.16068,0.49136 -5.6e-4,0.11384 -0.09907,0.39487 -0.21892,0.62452 -0.11984,0.22965 -0.26503,0.76106 -0.32253,1.18091 0.365361,0.84041 1.758552,-0.002 2.01864,0.93293 1.436272,2.34798 0.123172,20.45641 1.65058,20.48106 1.896591,0.23971 1.210428,-14.27217 3.601828,-20.20351 0.26069,-0.59581 1.821026,0.12644 2.068302,-0.19504 0.24879,-0.48436 0.3873,-1.38543 0.21299,-1.38543 -0.08441,0 -0.15365,-0.38695 -0.15381,-0.85989 -1.7e-4,-0.47295 -0.1048,-1.28788 -0.23253,-1.81098 -0.14662,-0.6003 -0.18532,-1.15909 -0.10502,-1.51505 0.07,-0.31019 0.0891,-0.56398 0.0425,-0.56398 -0.04657,0 -0.0058,-0.0951 0.0907,-0.21132 0.09646,-0.11623 0.2182,-0.61374 0.2706,-1.10558 0.274638,-4.32611 0.528892,-7.07262 0.44931,-10.00225 -0.178475,-0.95805 0.524884,-7.52866 0.87704,-8.80704 0.862892,-3.41388 1.927615,-7.17483 2.770018,-10.27737 1.019528,-1.01857 3.267449,-10.69299 3.723322,-14.47478 0.07038,0 0.12788,-0.0995 0.12788,-0.22119 0,-0.22334 0.84045,-0.95144 1.19852,-1.03824 5.435661,-2.02474 9.192653,-3.24154 14.028238,-3.09872 5.896035,0.18041 6.646325,0.4089 9.130545,2.78056 2.2102,4.80449 2.38399,7.46862 4.94831,10.74119 1.98661,2.30469 5.48406,3.96493 5.48195,7.33817 -0.004,0.29277 0.0355,0.5324 0.0873,0.53251 0.18036,1.46836 -0.12124,2.6296 -0.48009,3.93076 -0.68008,2.46932 -2.06563,6.93852 -2.36139,7.61688 -0.11799,0.27061 -0.26844,0.74969 -0.33444,1.06463 -0.10421,0.49769 -3.22887,6.92266 -4.26126,8.7621 -0.77142,2.37171 -1.97315,4.71282 -2.40178,7.11556 -1.10694,2.63065 -0.9997,2.75526 -1.28067,5.35066 -0.92026,1.70129 0.39599,1.73618 1.90361,2.04911 3.87846,0.0225 3.38352,0.46652 5.51191,0.50365 0.15117,-0.31702 1.57009,-0.43572 1.57009,-0.43572 -0.49495,-2.40624 -0.31603,-0.92736 0.34079,-2.45448 -1.03971,-3.87405 -0.92798,-5.55178 -0.40349,-8.77106 0.46624,-2.27024 1.87498,-6.82248 3.12921,-8.92212 2.82262,-6.68034 3.66324,-8.76884 7.54191,-17.93938 0.0147,-0.13513 0.10674,-0.6427 0.20474,-1.12793 0.0979,-0.48524 0.17811,-1.30513 0.17811,-1.82198 0,-0.90524 -0.0324,-0.97603 -0.88351,-1.92987 -2.4733,-3.10814 -2.55556,-5.91407 -3.70252,-9.12424 -0.18451,-0.42283 -1.14148,-3.42407 -1.28082,-4.16861 2.77618,3.54289 3.53462,9.14575 11.05066,16.90416 2.38982,3.10038 3.36561,4.78605 3.54201,8.83952 0.76557,5.94671 -0.12887,11.9549 -0.4835,17.69357 -0.0145,0.38286 -0.0411,0.80666 -0.059,0.94179 -0.53786,3.34811 -0.35936,9.62937 -1.4161,12.58895 0.0753,0.23192 1.65077,0.12973 1.78702,0.33463 0.77157,4.78896 -0.0991,11.74433 0.73369,17.18584 0.23846,0.15326 0.31287,0.0486 0.42014,-0.0277 0.27748,-2.75986 1.73229,-9.77264 2.76949,-16.67461 0.15071,-1.00291 3.05196,-0.25982 2.9221,-0.80029 -0.30165,-0.56506 -0.66655,-1.87072 -0.34601,-2.51078 -2.71459,-7.7459 -1.85392,-13.12786 -1.73043,-20.82424 0.0578,-3.60338 0.18696,-9.88084 0.28698,-13.94992 l 0.18185,-7.39833 -1.28732,-1.21724 c -1.75091,-1.65092 -2.6375,-2.66355 -3.31749,-4.57959 -0.39056,-1.13516 -0.52482,-3.4175 -0.33806,-5.74633 0.44241,-5.1201 3.817,-10.35728 5.08857,-15.43116 0.3706,-1.49914 0.77374,-5.39988 0.81494,-7.88567 0.0223,-1.34268 0.0716,-1.64942 0.25394,-1.57942 0.13041,0.05 0.22631,-0.017 0.22631,-0.15833 0,-0.13485 0.33156,-0.40103 0.73681,-0.59151 0.40524,-0.19049 0.725,-0.40126 0.7106,-0.46846 -0.0144,-0.0672 0.0594,-0.32961 0.16403,-0.5832 0.26297,-0.63736 0.23939,-1.06457 -0.11569,-2.09665 -1.63719,-4.02083 -3.90683,-6.35211 -7.0408,-7.41159 -10.90533,-4.300401 -21.45604,-5.120711 -29.75164,-5.093431 -10.121508,0.0293 -14.535453,-0.11636 -22.848663,-0.753824 -5.63681,-0.43223 -9.04384,-1.15341 -11.2332,-2.37777 -1.09644,-0.61317 -1.21482,-0.8375 -1.21482,-2.30215 0,-1.25092 1.057594,-2.023137 3.977444,-2.465187 2.823089,-0.906233 5.718249,0.173656 8.142996,0.263897 1.374111,0.04301 2.882465,-0.795526 3.318358,-1.242219 0.229241,-0.23492 -0.669283,-0.301027 -1.064352,-0.360946 -0.280175,-0.04249 -0.0022,-0.235715 -0.0022,-0.255436 0,-0.17449 -0.193734,0.07749 1.296093,-0.0028 0.61531,-0.03317 -0.278367,-1.587565 0.826014,-3.227803 0.960393,-1.426385 0.105528,-1.773501 -0.54855,-2.29764 -0.291552,-0.233633 -0.79936,-0.67259 -1.20474,-0.89248 -0.9445,-0.51233 -4.6886,-2.85507 -6.20583,-3.88309 -1.57102,-1.06445 -2.8642,-2.26935 -3.26885,-3.04567 l -0.33289,-0.63868 1.02497,-1.03764 c 0.90583,-0.932198 2.508317,-5.681847 0.61651,-6.53752 0.121647,1.437544 -3.659089,3.543676 -3.453772,3.090231 -0.222877,-0.141829 3.023841,-3.798928 3.619069,-4.155075 5.914771,-3.328687 11.390771,-6.295025 15.002773,-10.739176 1.697716,-2.157132 3.096305,-4.344343 3.311565,-7.624214 0.0697,-0.637276 -0.27517,-2.768057 -0.27517,-2.768057 0,0 -1.556475,3.812369 -2.264533,4.9307 -0.998488,2.419289 -6.753519,5.973501 -5.570312,4.704211 0.428801,-0.498007 1.821938,-3.821202 2.1536,-5.09847 0.06308,-0.1442 0.13348,-0.35077 0.15628,-0.45902 0.02283,-0.10826 0.15617,-0.66105 0.29633,-1.22843 1.254397,-4.483077 0.689472,-10.646214 -0.41392,-13.93002 -0.985629,-3.441876 -3.231641,-6.126669 -5.188612,-7.877711 -2.215234,-1.738243 -5.345745,-3.302177 -5.345745,-3.302177 3.019403,3.389756 7.61743,8.013147 7.335459,13.255461 -1.828989,1.008996 -4.904444,-1.848578 -6.149318,-2.645408 -1.22563,-0.76066 -2.832904,-2.989165 -3.688004,-4.276515 -1.155397,-1.360035 -1.971488,-2.446619 -3.085369,-2.93574 -1.34571,-0.811156 -3.90883,-1.103725 -4.418879,-0.672678 2.32674,0.217601 6.412103,6.366975 6.018342,6.25841 -1.336988,0.39617 -6.712866,-1.935915 -6.854497,-1.894516 -0.457963,0.133863 1.351342,1.707112 2.440093,2.508014 2.332587,1.384577 4.796464,2.730004 6.8019,3.96694 1.309694,0.668224 2.409754,1.459016 3.52825,2.13238 0.64127,0.37581 1.6856,1.30741 2.20823,1.96986 1.783918,2.280772 3.811136,4.16751 1.444551,10.062656 l -1.490239,-2.362083 c -1.828347,-2.604582 -3.765146,-6.692611 -3.679183,-6.7395 -0.559197,0.101672 -0.09006,3.421124 0.116624,4.324575 0.179709,2.931214 2.834348,7.08331 1.879296,9.725432 -1.522488,2.658614 -3.561795,5.679666 -6.67158,7.55687 -2.09339,1.32372 -3.24409,1.95806 -2.90478,1.6013 0.3568,-2.482365 0.15603,-4.548782 2.646492,-9.159681 -0.06578,-1.940549 -4.198885,4.300408 -5.496212,6.307411 -1.85275,2.80729 -3.46623,4.73333 -4.22754,5.0465 -1.4133,0.58135 -3.28983,0.75146 -4.61333,0.4182 -0.89168,-0.22453 -2.22102,-1.37965 -3.08407,-2.6799 -1.527808,-1.771286 -3.043582,-3.626264 -4.03644,-5.64426 -0.33936,-0.69236 -1.035569,-2.142159 -1.170979,-2.254539 -1.302113,0.805636 -0.484597,6.134762 0.467549,7.934999 -0.04353,0.04353 -0.65503,-0.10514 -1.3589,-0.33037 -0.70387,-0.22524 -1.75884,-0.53516 -2.34439,-0.68872 -0.95201,-0.24966 -2.26411,-0.87598 -5.07748,-2.42365 -0.78158,-0.42997 -2.73989,-1.66766 -4.78727,-3.02567 -0.962101,-0.674746 -1.666605,-1.29511 -1.74482,-2.22888 -0.14766,-0.42638 -0.11281,-2.53891 0.0584,-3.54163 0.282662,-2.103143 2.397385,-6.881387 1.266554,-8.121225 -1.275777,4.279828 -3.667596,6.84572 -4.754915,7.707251 -1.04299,-1.58684 -0.801961,-4.291697 1.767978,-6.794336 1.988566,-2.46824 4.981128,-6.73458 6.522477,-11.601819 -1.814092,1.849604 -7.209304,8.422688 -8.704345,8.32867 -1.357009,-2.86837 0.984802,-6.592685 2.709894,-8.628383 1.400736,-2.010135 5.027781,-4.24421 5.027781,-4.24421 0,0 -5.239926,1.319679 -6.999863,3.298749 -3.450749,3.061901 -3.870331,6.586794 -5.112931,9.818423 -0.14722,0.27025 -0.38176,0.69955 -0.52122,0.95399 -0.281857,0.474329 -0.304074,0.59639 -0.769204,0.546108 0.172406,0.273793 -0.300337,-0.496201 -0.411807,-0.766451 -0.630905,-3.947218 -0.436966,-7.942508 2.382381,-11.167143 -1.167924,-0.246072 -4.342121,2.614347 -4.710136,4.82385 -1.140475,2.569408 -0.891718,6.230079 -0.723059,7.712915 0.596676,1.716336 1.055027,3.738948 2.001854,4.95884 3.328973,4.854361 7.847534,10.115684 10.946349,12.049039 5.430783,5.68214 -7.000027,0.953084 -9.931041,-1.293603 1.245509,2.854466 6.159776,5.752219 11.046805,7.276512 4.866589,0.279069 7.967207,-0.424265 9.774847,0.450366 1.884289,0.54294 2.95952,1.397057 4.351139,2.129485 z"
       id="path849"
       sodipodi:nodetypes="cccccccscsccccccccccsssssssscscccccsssssscccccscccccccsccccccccccccscccccccccccscccscccccsssssscccsssccsssssssssccccccccccccccccccccccscccccccccccccssccccsscccccccccccccccccccccccccc" />
    <path
       style="fill:none;stroke:#000000;stroke-width:0.2;stroke-linejoin:bevel;stroke-miterlimit:4;stroke-dasharray:none;stroke-opacity:1;paint-order:markers stroke fill"
       d="m 72.969876,138.53762 c 1.270553,-0.34981 2.237991,0.20974 3.115672,1.03855 0.832421,4.75461 -0.487241,8.78655 -1.335288,12.98196 -0.291505,-4.62318 -0.35663,-9.20862 -1.780384,-14.02051 z"
       id="path851"
       sodipodi:nodetypes="cccc" />
  </g>
</svg>
